<svg width="69" height="71" viewBox="0 0 69 71" fill="none" xmlns="http://www.w3.org/2000/svg">
<path d="M12.4067 48.8627C11.2587 47.9713 10.1106 47.0798 8.9729 46.1985C7.90759 46.4547 6.9664 46.6801 5.97349 46.9158C6.03555 46.6699 6.02521 46.424 6.13898 46.3317C6.52167 46.0346 6.96641 45.8194 7.36977 45.5427C8.22822 44.9484 8.20754 44.1389 7.88691 43.2884C7.55594 42.4072 6.95606 42.0998 5.83904 42.2022C4.62894 42.315 3.40849 42.5301 2.20873 42.4789C1.75365 42.4584 1.08137 41.8538 0.967599 41.403C0.853829 40.9521 1.17445 40.1733 1.55714 39.8762C2.31216 39.3024 3.21198 38.8207 4.13248 38.5441C6.09761 37.9703 7.1836 36.6381 7.78348 34.8039C7.93862 34.3428 8.06274 33.8715 8.24891 33.4309C9.7693 29.8444 12.3653 28.6763 16.2335 29.8239C16.699 29.9571 17.154 30.1211 17.6712 30.2851C19.9776 28.8505 20.9912 26.6576 20.9498 24.1574C20.8774 18.7368 23.1321 14.2896 26.4418 10.2523C28.2104 8.0902 30.1859 6.10229 32.12 4.0734C35.5331 0.486969 39.8978 -0.230317 44.5934 0.189807C45.7828 0.292276 46.5689 1.14277 46.5689 2.41339C46.5689 3.85821 46.3827 5.30303 46.2793 6.74785C46.1345 6.94254 45.9276 7.10649 45.8449 7.32168C43.9004 12.4964 42.4111 17.794 41.294 23.1942C41.0251 24.4648 41.0562 25.8174 41.1079 27.129C41.1699 28.6763 41.8526 29.0042 43.8901 28.6865C45.6587 28.7993 47.2825 28.3791 48.7512 27.3749C48.8546 27.3032 48.958 27.2417 49.0718 27.1905C52.4229 25.5715 55.2464 23.4094 57.3977 20.3045C58.4837 18.7368 60.1489 17.5789 61.5245 16.2058C62.5484 15.1811 63.5103 14.1051 64.5136 13.0702C65.0824 12.4759 66.065 12.7013 66.2305 13.4903C66.396 14.3101 66.4683 15.1606 66.5304 16.0008C66.6442 17.5686 66.7269 19.1466 66.8303 20.7144C66.3339 23.9217 65.8374 27.129 65.3513 30.3363C65.1755 31.4942 64.5343 32.3549 63.531 32.8878C62.9001 33.2259 62.1968 33.5026 61.4935 33.6358C57.4908 34.3941 54.0467 36.5254 50.3336 37.9907C49.32 38.3904 48.8339 39.1691 48.9787 40.2861C48.4823 40.3578 47.9858 40.4398 47.4894 40.5115C46.4758 39.3433 46.4034 38.1957 47.5514 37.0583C47.8927 36.7201 48.172 36.3307 48.4719 35.9721C50.3646 35.6135 52.0712 34.9372 53.6019 33.7075C54.4087 33.062 55.474 32.7238 56.4255 32.2525C57.6253 32.2012 58.8354 32.2525 60.0145 32.0783C61.2659 31.8836 62.3312 31.156 62.6829 29.9264C63.1587 28.2459 64.0171 26.5552 63.3035 24.721C63.6551 22.9585 64.0274 21.1858 64.3584 19.4233C64.4618 18.8392 64.5239 18.1219 63.7896 17.917C63.3965 17.8043 62.7449 17.917 62.476 18.1834C61.4418 19.1774 60.1696 20.1406 59.6007 21.3805C58.6802 23.3889 57.2116 24.6185 55.3809 25.6432C53.7985 26.5244 52.3091 27.6004 50.6956 28.4201C49.3097 29.1272 47.8203 29.66 46.3413 30.1621C45.1933 30.5515 43.9935 30.7667 42.8144 31.0638C39.5771 29.8444 38.4705 27.3749 38.7187 24.1471C38.7704 23.4299 38.8738 22.6921 39.0703 21.9953C39.9702 18.7265 40.932 15.4782 41.8112 12.2095C42.2249 10.6929 42.5041 9.14563 42.8351 7.61883C43.9314 6.33797 44.0659 4.7497 44.2107 3.17167C44.2831 2.4134 43.6108 1.68586 42.8765 1.76784C41.9146 1.88055 40.839 1.93179 40.0426 2.3929C37.2087 4.06315 34.4471 5.86661 31.7063 7.68032C31.1168 8.0697 30.672 8.71526 30.248 9.30958C28.8103 11.277 27.4554 13.2956 25.9971 15.2426C24.6318 17.0665 23.9803 19.0442 23.9492 21.3395C23.9182 23.1429 23.5562 24.9464 23.2149 26.7294C22.7288 29.2809 21.4049 31.197 18.7882 31.986C17.6919 31.6786 16.6472 31.2995 15.5819 31.1048C13.3375 30.6949 11.8172 31.402 10.6588 33.4001C8.74536 36.6996 8.48679 40.0401 10.545 43.3909C12.1585 47.5921 14.3615 48.8013 18.7365 47.879C19.4501 47.7253 20.1845 47.6024 20.8878 47.3974C22.253 46.9978 23.3493 47.4794 24.1044 48.5451C24.787 49.5185 25.4903 50.574 25.7902 51.7011C26.1936 53.2074 26.2143 54.806 26.4005 56.3635C26.0902 56.4045 25.7902 56.4455 25.48 56.4967V56.4762C25.2938 56.1995 25.0973 55.9331 24.9111 55.6565C24.6422 55.2568 24.3733 54.8572 24.094 54.4678C23.8251 53.1767 23.6389 51.8548 23.2769 50.5842C22.9356 49.3751 22.2427 48.8935 21.0843 49.2931C18.1159 50.2973 15.2923 49.6313 12.4377 48.8627H12.4067Z" fill="#7D809B"/>
<path d="M62.3723 53.2998C63.7065 53.515 65.0097 53.7814 65.8578 54.8061C66.1991 56.0562 65.5475 56.8657 64.9269 57.5625C61.7724 61.1592 58.3903 64.4177 53.5189 65.7498C51.7916 66.2212 50.1678 67.1946 48.5957 68.1066C41.7385 72.0927 33.6401 69.8896 29.7822 62.9217C30.1339 62.8499 30.4855 62.768 30.8475 62.6962C32.3989 63.4033 33.909 64.223 35.5121 64.7866C37.4772 65.4834 39.5561 65.9343 41.5937 65.094C48.4406 62.2454 55.5978 59.9398 60.9346 54.3962C61.3483 53.9659 61.8965 53.6687 62.3826 53.3101L62.3723 53.2998Z" fill="#FAE955" fill-opacity="0.8"/>
<path d="M62.3731 53.3C61.887 53.6586 61.3388 53.966 60.9251 54.3861C55.5882 59.9297 48.431 62.2353 41.5841 65.0839C39.5466 65.9344 37.4677 65.4733 35.5026 64.7765C33.8994 64.2129 32.3894 63.3932 30.838 62.6861C30.7966 62.266 30.7552 61.8356 30.7139 61.4155C31.7688 61.7229 32.8238 62.0201 33.8684 62.3377C37.416 63.4239 40.9532 63.2702 44.2525 61.6512C48.8551 59.3969 53.3438 56.9171 57.8326 54.4476C58.5152 54.0685 58.9496 53.2385 59.4874 52.6134C60.0873 52.0498 60.7803 51.5477 61.2767 50.8919C61.5974 50.4616 61.7732 49.816 61.7422 49.2832C61.7111 48.904 61.2147 48.5556 60.9251 48.197C61.2043 47.9408 61.4939 47.6744 61.7732 47.4182C62.8281 47.5924 63.8831 47.7461 64.483 49.027C63.8107 50.3796 63.0867 51.8244 62.3627 53.2692L62.3731 53.3Z" fill="#7D809B"/>
<path d="M43.9107 28.6865C41.8732 29.0041 41.1906 28.6865 41.1285 27.129C41.0768 25.8173 41.0458 24.4648 41.3147 23.1941C42.4421 17.794 43.9211 12.4861 45.8655 7.32163C45.9483 7.10645 46.1551 6.94249 46.2999 6.7478C48.4616 7.78274 48.6994 8.00817 48.3892 9.87312C48.0892 11.6356 47.5824 13.3673 47.1066 15.0991C46.1758 18.4498 45.1415 21.7698 44.2727 25.1308C43.9728 26.2682 44.0245 27.4978 43.9211 28.6865H43.9107Z" fill="#FAE955" fill-opacity="0.8"/>
<path d="M12.4067 48.8628C15.251 49.6313 18.0849 50.2973 21.0533 49.2931C22.2117 48.9038 22.9047 49.3751 23.246 50.5843C23.608 51.8549 23.7941 53.1767 24.063 54.4679C21.4153 55.2159 18.8606 54.9187 16.3473 53.8633C14.0823 52.9103 12.5309 51.445 12.4067 48.8525V48.8628Z" fill="#FAE955" fill-opacity="0.8"/>
<path d="M61.7831 47.4382C61.5038 47.6944 61.2142 47.9608 60.9349 48.217C58.2768 48.5142 55.9704 47.6329 53.7777 46.2291C52.7745 45.5938 51.6782 45.1019 50.6232 44.5486C49.5786 43.2063 48.5236 41.8537 47.479 40.5113C47.9755 40.4396 48.4719 40.3576 48.9684 40.2859C49.9406 41.618 50.9955 42.8066 52.8365 42.8374C53.4571 43.985 54.5431 44.5281 55.7015 44.9892C57.739 45.7987 59.7559 46.6287 61.7934 47.4382H61.7831Z" fill="#7D809B"/>
<path d="M30.7235 61.4153C30.7649 61.8354 30.8063 62.2658 30.8477 62.6859C30.496 62.7576 30.1443 62.8396 29.7824 62.9113C28.7067 61.6304 27.5587 60.4008 26.5864 59.0585C26.0486 58.3104 25.8211 57.3575 25.4487 56.4967C25.759 56.4558 26.059 56.4148 26.3692 56.3635C27.8172 58.044 29.2756 59.7245 30.7235 61.405V61.4153Z" fill="#7D809B"/>
<path d="M17.206 36.7301C14.7134 36.1666 13.3689 37.6319 12.3449 39.5275C11.6623 40.7777 11.1245 42.1098 10.5246 43.4009C8.46639 40.0501 8.72496 36.6994 10.6384 33.4101C11.7968 31.412 13.3275 30.7049 15.5615 31.1148C16.6372 31.3095 17.6715 31.6886 18.7678 31.9961C21.3845 31.2173 22.7084 29.2909 23.1945 26.7394C23.5358 24.9564 23.8978 23.153 23.9288 21.3495C23.9702 19.0542 24.6115 17.0765 25.9767 15.2526C27.435 13.3056 28.7899 11.287 30.2276 9.31959C30.6516 8.73552 31.0964 8.08996 31.6859 7.69033C34.4267 5.86638 37.1883 4.06292 40.0222 2.40291C40.8186 1.9418 41.8942 1.89057 42.8561 1.77785C43.5904 1.68563 44.2627 2.42341 44.1903 3.18168C44.0455 4.74946 43.9111 6.33773 42.8147 7.62885C40.3118 7.37267 38.2949 8.2949 36.6297 10.1086C34.4888 12.4244 32.3065 14.6992 30.2172 17.0663C27.6833 19.9457 26.0698 23.3169 25.2527 27.0365C25.0458 27.969 24.8907 28.9527 24.9631 29.8954C25.2113 33.2564 23.9599 35.7874 20.9915 37.4577C19.7814 36.9556 18.592 36.351 17.206 36.7301Z" fill="#FBFCFC"/>
<path d="M48.4716 35.9721C47.5201 35.9413 46.5582 35.9004 45.6067 35.8799C44.2208 35.8491 43.3209 35.1523 43.0313 33.851C42.8245 32.9492 42.8659 31.9963 42.7935 31.0638C43.9725 30.7667 45.1826 30.5515 46.3203 30.1621C47.7994 29.66 49.2887 29.1271 50.6746 28.4201C52.2881 27.6003 53.7775 26.5244 55.3599 25.6432C57.2009 24.6185 58.6696 23.3889 59.5798 21.3805C60.1486 20.1303 61.4104 19.1774 62.4551 18.1834C62.7343 17.917 63.3756 17.8043 63.7686 17.917C64.5029 18.1219 64.4512 18.829 64.3374 19.4233C64.0065 21.196 63.6341 22.9585 63.2825 24.7312C62.2379 25.6842 61.1208 26.5552 60.1796 27.6003C58.8454 29.0862 57.656 30.7052 56.4045 32.2627C55.453 32.7341 54.3877 33.0722 53.581 33.7178C52.0502 34.9372 50.3333 35.6237 48.451 35.9823L48.4716 35.9721Z" fill="#FBFCFC"/>
<path d="M59.4973 52.6237C57.5736 51.5785 55.5774 50.6665 53.7674 49.4676C52.0505 48.3302 50.3853 46.9878 50.6336 44.5491C51.6885 45.1024 52.7849 45.5943 53.7881 46.2296C55.9808 47.6334 58.2872 48.5146 60.9453 48.2175C61.2349 48.5761 61.7314 48.9245 61.7624 49.3036C61.8038 49.8365 61.6176 50.482 61.297 50.9124C60.8109 51.558 60.1179 52.0601 59.5077 52.6339L59.4973 52.6237Z" fill="#FBFCFC"/>
<path d="M17.2058 36.7305C18.5917 36.3514 19.7811 36.956 20.9912 37.4581C20.9705 38.2983 21.105 39.1898 20.8878 39.9788C20.4948 41.4031 18.9951 42.2229 17.7643 41.854C16.5852 41.5056 15.7164 39.9481 16.1094 38.5955C16.2956 37.9294 16.8438 37.3556 17.2161 36.7408L17.2058 36.7305Z" fill="#7D809B"/>
<path d="M68.4339 20.0996C67.8754 20.3148 67.3583 20.5197 66.8308 20.7247C66.3343 23.932 65.8379 27.1393 65.3518 30.3465C65.176 31.5044 64.5347 32.3652 63.5315 32.898C62.9006 33.2362 62.1972 33.5128 61.4939 33.6461C57.4913 34.4043 54.0471 36.5357 50.3341 38.001C49.3205 38.4006 48.8344 39.1794 48.9792 40.2963C49.9514 41.6284 51.0064 42.8171 52.8474 42.8478C56.3122 41.403 59.6736 39.661 63.3867 38.8413C64.2037 38.6568 65.0105 38.2982 65.7345 37.878C66.717 37.3042 67.2859 36.4127 67.4617 35.2446C67.8547 32.6316 68.2891 30.0186 68.7235 27.4159C69.0855 25.2846 69.0131 22.6306 68.4339 20.0996Z" fill="#FAE955" fill-opacity="0.8"/>
<path d="M50.6232 44.5488C49.5786 43.2064 48.5237 41.8538 47.479 40.5115C46.4654 39.3433 46.393 38.1957 47.5411 37.0583C47.6755 36.925 47.7997 36.7713 47.9238 36.6279C51.854 35.5827 55.7222 34.2608 59.1974 32.1705C59.4766 32.15 59.7456 32.1192 60.0145 32.0782C61.2659 31.8835 62.3312 31.156 62.6829 29.9264C63.1587 28.2459 64.0171 26.5551 63.3035 24.7209C62.2589 25.6739 61.1418 26.5449 60.2006 27.5901C59.456 28.4303 58.7526 29.3013 58.0597 30.1928C53.7467 32.8058 48.7926 34.1481 43.8797 35.306C43.466 34.9679 43.1764 34.4863 43.0316 33.851C42.8248 32.9492 42.8662 31.9963 42.7938 31.0638C39.5565 29.8444 38.4601 27.3749 38.698 24.1471C38.7497 23.4298 38.8532 22.692 39.0497 21.9953C39.9495 18.7265 40.9114 15.4782 41.7905 12.2094C42.2042 10.6929 42.4835 9.1456 42.8144 7.6188C40.3115 7.36263 38.2843 8.28486 36.6191 10.0986C34.4782 12.4144 32.2958 14.6892 30.2066 17.0562C27.6726 19.9356 26.0592 23.3069 25.2421 27.0265C25.0352 27.959 24.8801 28.9427 24.9525 29.8854C25.0456 31.0945 24.9318 32.191 24.6215 33.1849C23.7941 33.9124 22.8426 34.4145 21.829 34.7527C20.3603 34.1174 18.964 33.7587 17.3402 34.0969C14.6614 34.64 12.6963 36.8943 12.355 39.5073C12.355 39.5073 12.355 39.5175 12.355 39.5278C11.6724 40.7779 11.1345 42.11 10.5347 43.4011C12.1481 47.6023 14.3511 48.8115 18.7261 47.8893C19.4398 47.7356 20.1741 47.6126 20.8774 47.4077C22.2427 47.008 23.339 47.4896 24.094 48.5553C24.7767 49.5288 25.48 50.5842 25.7799 51.7114C26.1833 53.2074 26.204 54.8162 26.3901 56.3737C27.8381 58.0542 29.2964 59.7347 30.7444 61.4152C31.7994 61.7226 32.8544 62.0198 33.899 62.3374C37.4465 63.4236 40.9838 63.2699 44.2831 61.6509C48.8856 59.3966 53.3744 56.9168 57.8632 54.4473C58.5458 54.0682 58.9802 53.2382 59.518 52.6131C57.5943 51.5679 55.5981 50.6559 53.7881 49.457C52.0712 48.3196 50.406 46.9773 50.6543 44.5385L50.6232 44.5488ZM20.8774 39.9786C20.4844 41.403 18.9847 42.2227 17.7539 41.8538C16.5748 41.5054 15.706 39.9479 16.0991 38.5953C16.1715 38.3494 16.2956 38.1137 16.4404 37.8883C18.0125 37.8883 19.657 37.96 21.0119 38.6875C21.0119 39.1384 21.0016 39.579 20.8878 39.9889L20.8774 39.9786Z" fill="#FAE955" fill-opacity="0.8"/>
</svg>
