<svg width="70" height="53" viewBox="0 0 70 53" fill="none" xmlns="http://www.w3.org/2000/svg">
<path d="M23.6831 50.5074C25.3691 50.487 27.0552 50.5688 28.731 50.4359C31.2447 50.2314 33.7482 49.9452 36.2414 49.5465C37.2837 49.3829 38.4179 49.0354 39.266 48.4322C43.2716 45.5903 47.9823 43.8116 51.5893 40.3768C52.7951 39.2318 53.8578 37.9233 54.992 36.6966C56.3102 35.613 58.0064 35.2859 59.5188 34.7236C62.4003 33.6707 63.7287 31.5955 64.3316 28.866C64.7199 27.1077 64.8834 25.2881 65.1491 23.4991C66.3957 23.2742 66.7635 22.1395 67.4073 21.3012C67.6934 20.9128 67.8978 20.4425 68.2554 20.1359C68.4802 19.9314 68.9094 19.8905 69.2466 19.911C69.4203 19.911 69.7064 20.2074 69.7166 20.3812C70.1458 24.9814 70.3604 29.5612 68.2861 33.8854C67.7036 35.1019 66.7329 35.9912 65.476 36.6148C63.5346 37.586 61.6646 38.7105 59.7333 39.7123C58.4152 40.3972 57.2401 41.2457 56.5248 42.5542C55.9117 43.6787 54.9512 44.3125 53.8885 44.9258C51.9061 46.0708 49.9851 47.3486 48.0436 48.5651C44.4059 50.8243 40.5025 52.4702 36.2312 52.8586C31.8782 53.2471 27.5661 52.9506 23.7138 50.4972L23.6831 50.5074Z" fill="#FA66A9" fill-opacity="0.27"/>
<path d="M65.1286 23.5194C64.8629 25.3084 64.7096 27.128 64.3111 28.8863C63.7082 31.6158 62.3798 33.6808 59.4983 34.7439C57.986 35.2959 56.2897 35.6231 54.9716 36.7169C54.4709 36.5942 53.9599 36.4818 53.4592 36.3591C53.9191 35.7048 54.3789 35.0506 54.8387 34.3861H54.7774C55.5131 34.6315 56.0649 34.4986 56.2488 33.6501C58.0984 33.8648 59.4472 32.8323 60.7449 31.7589C61.3376 31.258 61.5011 30.5424 61.2967 29.7757C63.371 25.9422 63.8411 22.446 62.6149 19.5326C61.1434 20.0846 60.5916 21.5056 59.8048 22.6198C57.4239 25.9831 54.6957 28.9477 51.0477 30.9718C49.2902 31.7793 47.5428 32.5972 45.7853 33.3945C45.0189 33.7421 44.2525 34.1817 43.4351 34.2941C42.2804 34.4577 41.2994 34.059 41.0542 32.7096C42.5563 30.6344 44.0788 28.6103 45.5094 26.5249C46.8991 24.5008 47.7881 22.2927 47.9413 19.7882C48.0129 18.7148 48.2275 17.6312 48.5749 16.6191C49.0041 15.3822 48.8406 14.2884 48.3399 13.123C47.3385 10.7922 46.429 8.43077 45.4787 6.07955C46.1429 6.04888 46.8173 6.01822 47.4815 5.98755C48.207 6.94848 48.9427 7.90941 49.6682 8.87034C49.9544 11.4976 50.312 14.1248 50.5164 16.7622C50.7105 19.2157 50.1587 21.526 48.953 23.7137C47.9618 25.5026 47.1648 27.404 46.3473 29.2748C46.194 29.6326 46.3269 30.1233 46.3269 30.7877C50.0463 29.4486 52.9994 27.496 55.4109 24.7155C56.4021 23.6932 57.5364 22.7834 58.3538 21.6385C59.9479 19.3997 61.3478 17.028 62.8499 14.7177C63.0951 14.3395 63.4528 14.0226 63.8819 13.5217C64.2804 13.9817 64.7709 14.2884 64.822 14.6462C65.057 16.292 65.2307 17.9583 65.2921 19.6144C65.3431 20.9229 65.1797 22.2314 65.1183 23.5501L65.1286 23.5194Z" fill="#7D809B"/>
<path d="M55.4212 24.6745C53.0097 27.4653 50.0566 29.4178 46.3371 30.7467C46.3371 30.0823 46.2043 29.5916 46.3575 29.2338C47.175 27.3528 47.972 25.4616 48.9632 23.6727C50.169 21.485 50.7208 19.1747 50.5266 16.7212C50.3223 14.0838 49.9646 11.4668 49.6785 8.82935C52.9995 9.36092 53.9498 11.8859 54.7059 14.6563C55.5949 17.9582 55.4416 21.3112 55.4212 24.6643V24.6745Z" fill="#FA66A9" fill-opacity="0.27"/>
<path d="M47.4921 5.94683C46.8279 5.9775 46.1535 6.00817 45.4893 6.03884C44.774 5.67082 44.0485 5.3028 43.3332 4.92456C42.7814 2.93114 41.1976 1.99066 39.4707 1.20351C39.4707 0.876388 39.4707 0.539039 39.4604 0.211914C41.7289 0.559485 43.2719 2.11333 44.8864 3.53428C45.7754 4.3112 46.6235 5.13924 47.4921 5.94683Z" fill="#7D809B"/>
<path d="M53.4696 36.349C51.712 37.6064 49.934 38.8332 48.2071 40.1314C47.0422 41.0004 45.9693 41.9817 44.8146 42.8609C39.3785 46.9908 33.2066 48.6674 26.4319 48.1971C21.803 47.8802 17.7259 46.3161 14.4151 42.9324C13.5874 42.084 12.5145 41.491 11.554 40.7755C10.6854 40.1314 9.8271 39.4772 8.95854 38.8229C7.23164 38.4549 6.4857 37.31 6.80247 35.6437C7.02728 34.4885 7.36448 33.2516 8.01845 32.3009C9.04028 30.8186 10.246 29.4181 11.5949 28.2322C13.3933 26.6375 15.6107 26.8624 17.7565 27.4655C19.0236 27.8233 20.2498 28.3651 21.4862 28.8354C22.7941 29.3158 23.8671 28.8558 24.7663 27.946C25.267 27.4349 25.7268 26.842 26.064 26.2082C27.1982 24.0818 28.3018 21.9351 29.3441 19.7577C31.6841 14.861 33.9423 9.92344 36.3028 5.03701C37.0385 3.52405 37.8866 2.03154 39.4807 1.19328C39.4807 0.866159 39.4807 0.528811 39.4704 0.201686C38.2647 -0.350338 37.3553 0.334581 36.5174 1.00928C34.5759 2.5529 33.4416 4.65877 32.4607 6.90776C31.163 9.88255 29.712 12.796 28.3938 15.7708C27.423 17.9687 26.5443 20.2074 25.6348 22.4258C25.3181 23.2027 25.175 24.1023 24.705 24.7565C23.2029 26.8317 22.0584 27.6291 19.5345 26.9135C17.9404 26.4637 16.3464 26.0446 14.7523 25.605C13.6896 25.5232 12.6269 25.4721 11.7073 26.1877C9.62273 26.5251 8.31478 27.9051 7.23164 29.5612C6.77182 30.2666 6.40396 31.0333 5.97479 31.7591C4.94274 33.4663 3.68588 34.8668 1.56047 35.1837C1.21305 35.2348 0.794099 35.3574 0.579514 35.5926C0.283183 35.9197 -0.0540218 36.4308 0.00728814 36.7988C0.0685981 37.1669 0.569296 37.494 0.926937 37.77C1.10065 37.9029 1.39698 37.9438 1.62178 37.9131C3.81872 37.6575 5.60693 38.4549 7.18055 39.9474C7.69147 40.4279 8.38631 40.755 9.0505 41.0413C10.3074 41.5831 11.2474 42.452 12.1364 43.4742C15.2224 47.0522 19.0338 49.4852 23.6934 50.487C25.3794 50.4666 27.0654 50.5483 28.7412 50.4154C31.2549 50.211 33.7584 49.9248 36.2517 49.5261C37.2939 49.3625 38.4282 49.0149 39.2763 48.4118C43.2819 45.5699 47.9925 43.7911 51.5996 40.3563C52.8054 39.2114 53.8681 37.9029 55.0023 36.6762C54.5016 36.5535 53.9907 36.441 53.49 36.3184L53.4696 36.349Z" fill="#7D809B"/>
<path d="M43.3331 4.93458C40.6967 6.88711 39.3275 9.74946 38.183 12.6323C37.0692 15.4333 35.8328 18.1423 34.3614 20.7797C33.3089 22.6607 32.5834 24.7154 31.7353 26.7089C31.5003 27.2609 31.4287 27.8845 31.1835 28.4263C29.9982 31.0024 28.118 31.9735 25.3284 31.3909C23.9183 31.0944 22.549 30.6139 21.1491 30.297C18.8806 29.7961 16.8676 30.4913 15.0896 31.8713C14.8444 32.0655 14.7831 32.5051 14.64 32.8322C14.1393 33.5172 13.6386 34.2021 13.1379 34.887C12.6679 35.5413 12.1263 36.1546 11.7278 36.8498C11.1045 37.9538 10.2053 38.6081 8.96885 38.8125C7.24196 38.4445 6.49602 37.3098 6.81279 35.6333C7.03759 34.4781 7.3748 33.2412 8.02877 32.2904C9.0506 30.8082 10.2564 29.4077 11.6052 28.2218C13.4036 26.6271 15.621 26.852 17.7668 27.4551C19.0339 27.8129 20.2601 28.3547 21.4965 28.825C22.8045 29.3054 23.8774 28.8454 24.7766 27.9356C25.2773 27.4245 25.7371 26.8315 26.0743 26.1977C27.1983 24.0714 28.3121 21.9247 29.3544 19.7472C31.6944 14.8506 33.9527 9.91302 36.3131 5.02659C37.0488 3.51363 37.8969 2.02112 39.491 1.18286C41.2077 1.98023 42.7915 2.91049 43.3535 4.90391L43.3331 4.93458Z" fill="#FBFCFC"/>
<path d="M54.8489 34.3864C54.0519 34.5193 53.2651 34.6216 52.4681 34.7749C51.2214 35.0202 50.4142 34.3149 50.5674 33.0166C50.6492 32.3215 50.874 31.6468 51.0375 30.9516C54.6854 28.9275 57.4137 25.9732 59.7946 22.5997C60.5814 21.4854 61.1332 20.0645 62.6046 19.5125C63.8308 22.4259 63.3608 25.9221 61.2865 29.7556C59.7537 30.6347 58.1903 31.473 56.6984 32.4135C56.4021 32.5975 56.3919 33.2211 56.2488 33.6402C55.5029 33.3846 54.9613 33.5175 54.7774 34.3762H54.8387L54.8489 34.3864Z" fill="#FBFCFC"/>
<path d="M13.1274 34.8973C13.6281 34.2124 14.1288 33.5274 14.6295 32.8425C15.5492 33.0777 16.5506 33.1492 17.368 33.5786C18.6453 34.2533 18.9212 35.9809 18.0935 37.0032C17.2454 38.0459 15.5185 38.3014 14.5478 37.3303C13.904 36.6863 13.5873 35.7151 13.1274 34.8973Z" fill="#7D809B"/>
<path d="M60.1829 28.437C59.5085 29.3979 58.6604 30.1544 57.7305 30.8189C57.6488 30.8189 57.567 30.8189 57.4853 30.8189C56.8722 30.7575 56.2795 31.0438 56.1365 31.698C56.1365 31.7389 56.1263 31.79 56.1263 31.8411C55.7073 32.0865 55.2986 32.3114 54.8796 32.5465C53.6432 33.2314 52.4068 33.9061 51.1704 34.591C50.7208 34.3048 50.4858 33.763 50.5777 33.0167C50.6595 32.3216 50.8843 31.6469 51.0478 30.9518C49.3004 31.7593 47.5429 32.5772 45.7853 33.3643C45.019 33.7119 44.2526 34.1514 43.4351 34.2639C42.2804 34.4275 41.2995 34.0288 41.0542 32.6794C42.5563 30.6042 44.0789 28.5801 45.5094 26.4947C46.8991 24.4706 47.7881 22.2625 47.9414 19.7579C48.0129 18.6845 48.2275 17.6009 48.5749 16.5889C49.0041 15.352 48.8406 14.2581 48.3399 13.0927C47.3385 10.762 46.4291 8.40054 45.489 6.04933C44.7737 5.68131 44.0482 5.3133 43.3329 4.93506C40.6966 6.88759 39.3273 9.74994 38.1829 12.6327C37.0691 15.4337 35.8327 18.1427 34.3612 20.7802C33.3088 22.6612 32.5833 24.7159 31.7351 26.7093C31.5001 27.2614 31.4286 27.885 31.1833 28.4268C29.998 31.0029 28.1178 31.974 25.3282 31.3913C23.9181 31.0949 22.5489 30.6144 21.149 30.2975C20.8015 30.2157 20.4541 30.1851 20.1169 30.1544C18.3594 29.3979 16.3055 29.4286 14.5786 30.3793C13.0458 31.2175 11.9831 32.7918 11.605 34.499C11.2065 35.3884 10.9511 36.3595 10.7774 37.3511C10.7365 37.576 10.7569 37.7703 10.8182 37.9441C10.3073 38.3939 9.70443 38.6903 8.9585 38.8232C9.82705 39.4775 10.6854 40.1215 11.5539 40.7757C12.5145 41.4913 13.5874 42.0842 14.4151 42.9327C17.7258 46.3164 21.8029 47.8805 26.4318 48.1974C33.2066 48.6574 39.3784 46.9911 44.8146 42.8612C45.9693 41.982 47.0524 41.0006 48.2071 40.1317C49.934 38.8437 51.712 37.6067 53.4695 36.3493C53.633 36.1142 53.8067 35.8689 53.9702 35.6337C54.7468 35.2044 55.5234 34.775 56.3 34.3457C56.7598 34.0901 57.2298 33.8243 57.6897 33.5483C58.4765 33.3541 59.1815 32.9452 59.8457 32.4647C60.9697 31.8513 61.8485 30.7984 62.1449 29.4388C62.3697 28.4165 60.8676 27.476 60.1932 28.437H60.1829ZM18.0937 37.0036C17.2456 38.0463 15.5187 38.3019 14.5479 37.3307C14.2107 36.9934 13.9655 36.5538 13.7305 36.104C13.6998 35.7155 13.71 35.4804 13.7713 35.1533C14.1494 34.407 14.691 33.763 15.5289 33.4052C15.7435 33.3132 15.9683 33.2416 16.1931 33.1803C16.6018 33.2723 17.0003 33.395 17.358 33.579C18.6352 34.2537 18.9111 35.9813 18.0835 37.0036H18.0937Z" fill="#FA66A9" fill-opacity="0.27"/>
</svg>
