<svg width="8" height="8" viewBox="0 0 8 8" fill="none" xmlns="http://www.w3.org/2000/svg">
<g clip-path="url(#clip0_556_5214)">
<path d="M0.19001 6.42006C0.19001 6.42006 0.19001 6.44006 0.19001 6.45006C0.19001 6.45006 0.18001 6.47006 0.17001 6.48006C0.17001 6.48006 0.17001 6.50006 0.15001 6.50006C0.15001 6.50006 0.13001 6.50006 0.13001 6.51006C0.13001 6.51006 0.12001 6.52006 0.11001 6.53006C0.11001 6.53006 0.0900098 6.53006 0.0800098 6.53006C0.0700098 6.53006 0.0600098 6.52006 0.0600098 6.52006C0.0600098 6.52006 0.0400098 6.52006 0.0300098 6.52006C0.0300098 6.52006 0.0300098 6.50006 0.0200098 6.49006L0.0100098 6.47006C0.0100098 6.47006 0.0100098 6.45006 0.0100098 6.44006C0.0100098 6.44006 0.0100098 6.42006 0.0100098 6.41006C0.0100098 6.41006 0.0100098 6.39006 0.0200098 6.38006C0.0200098 6.38006 0.0400098 6.38006 0.0500098 6.37006C0.0500098 6.37006 0.0600098 6.35006 0.0700098 6.35006C0.0700098 6.35006 0.0900098 6.36006 0.10001 6.36006C0.11001 6.36006 0.12001 6.35006 0.13001 6.36006C0.13001 6.36006 0.14001 6.38006 0.15001 6.38006C0.15001 6.38006 0.15001 6.40006 0.16001 6.40006C0.16001 6.40006 0.18001 6.41006 0.18001 6.42006H0.19001ZM0.46001 6.65006C0.46001 6.65006 0.48001 6.63006 0.48001 6.62006C0.48001 6.62006 0.48001 6.61006 0.48001 6.60006C0.49001 6.60006 0.49001 6.63006 0.51001 6.63006C0.52001 6.63006 0.54001 6.62006 0.55001 6.62006C0.56001 6.62006 0.58001 6.62006 0.59001 6.62006C0.60001 6.62006 0.61001 6.60006 0.62001 6.59006C0.62001 6.59006 0.64001 6.57006 0.65001 6.56006C0.65001 6.55006 0.65001 6.54006 0.66001 6.53006C0.66001 6.52006 0.66001 6.51006 0.66001 6.50006C0.66001 6.49006 0.66001 6.47006 0.66001 6.46006C0.66001 6.45006 0.64001 6.45006 0.63001 6.44006C0.63001 6.44006 0.63001 6.42006 0.61001 6.41006C0.61001 6.41006 0.61001 6.41006 0.60001 6.41006C0.65001 6.41006 0.70001 6.45006 0.75001 6.44006C0.80001 6.43006 0.81001 6.36006 0.86001 6.33006C0.90001 6.31006 0.96001 6.31006 0.99001 6.27006C1.02001 6.23006 1.05001 6.19006 1.06001 6.15006C1.08001 6.11006 1.06001 6.06006 1.06001 6.01006C1.06001 5.96006 1.08001 5.92006 1.07001 5.88006C1.06001 5.83006 1.04001 5.79006 1.02001 5.75006C0.99001 5.71006 1.00001 5.64006 0.96001 5.61006C0.92001 5.58006 0.86001 5.58006 0.81001 5.56006C0.76001 5.54006 0.71001 5.57006 0.66001 5.57006C0.61001 5.57006 0.57001 5.55006 0.52001 5.56006C0.47001 5.57006 0.40001 5.54006 0.36001 5.56006C0.32001 5.58006 0.33001 5.67006 0.30001 5.71006C0.27001 5.75006 0.17001 5.75006 0.15001 5.79006C0.13001 5.83006 0.19001 5.90006 0.19001 5.95006C0.19001 6.00006 0.14001 6.05006 0.16001 6.09006C0.17001 6.14006 0.22001 6.17006 0.24001 6.21006C0.27001 6.25006 0.29001 6.29006 0.33001 6.32006C0.37001 6.35006 0.41001 6.37006 0.46001 6.39006C0.48001 6.39006 0.51001 6.40006 0.53001 6.41006C0.52001 6.41006 0.51001 6.41006 0.49001 6.41006C0.48001 6.41006 0.47001 6.42006 0.46001 6.43006C0.46001 6.43006 0.43001 6.43006 0.43001 6.45006C0.43001 6.46006 0.43001 6.48006 0.43001 6.49006C0.43001 6.50006 0.43001 6.51006 0.43001 6.53006C0.43001 6.53006 0.43001 6.54006 0.43001 6.55006C0.43001 6.55006 0.41001 6.55006 0.40001 6.54006C0.39001 6.54006 0.38001 6.53006 0.37001 6.53006C0.36001 6.53006 0.35001 6.54006 0.34001 6.55006C0.33001 6.55006 0.32001 6.55006 0.31001 6.55006C0.31001 6.55006 0.29001 6.56006 0.29001 6.57006C0.29001 6.57006 0.29001 6.59006 0.29001 6.60006C0.29001 6.60006 0.28001 6.62006 0.28001 6.63006C0.28001 6.64006 0.28001 6.65006 0.28001 6.66006C0.28001 6.66006 0.28001 6.68006 0.28001 6.69006C0.28001 6.69006 0.30001 6.70006 0.31001 6.71006C0.31001 6.71006 0.33001 6.71006 0.34001 6.71006C0.35001 6.71006 0.36001 6.71006 0.37001 6.71006C0.38001 6.71006 0.39001 6.72006 0.40001 6.71006C0.41001 6.71006 0.41001 6.69006 0.42001 6.68006C0.42001 6.68006 0.45001 6.68006 0.46001 6.67006C0.46001 6.67006 0.46001 6.64006 0.46001 6.63006V6.65006ZM1.77001 4.86006C1.77001 4.86006 1.77001 4.88006 1.79001 4.89006C1.79001 4.89006 1.80001 4.92006 1.81001 4.92006C1.82001 4.92006 1.84001 4.92006 1.85001 4.92006C1.86001 4.92006 1.88001 4.94006 1.89001 4.94006C1.90001 4.94006 1.91001 4.92006 1.92001 4.91006C1.93001 4.91006 1.95001 4.91006 1.96001 4.90006C1.96001 4.90006 1.97001 4.88006 1.98001 4.86006C1.98001 4.85006 1.99001 4.84006 1.99001 4.82006C1.99001 4.81006 1.99001 4.80006 1.99001 4.78006C1.99001 4.77006 1.99001 4.76006 1.97001 4.75006C1.97001 4.74006 1.97001 4.72006 1.96001 4.71006C1.96001 4.71006 1.93001 4.71006 1.92001 4.71006C1.91001 4.71006 1.90001 4.69006 1.89001 4.69006C1.88001 4.69006 1.86001 4.69006 1.85001 4.69006C1.84001 4.69006 1.83001 4.71006 1.82001 4.71006C1.81001 4.71006 1.80001 4.71006 1.79001 4.73006C1.79001 4.73006 1.77001 4.75006 1.77001 4.76006C1.77001 4.77006 1.75001 4.78006 1.75001 4.79006C1.75001 4.80006 1.75001 4.82006 1.75001 4.83006C1.75001 4.84006 1.77001 4.85006 1.77001 4.86006ZM3.48001 3.43006C3.48001 3.43006 3.48001 3.43006 3.47001 3.43006H3.48001ZM7.58001 2.23006C7.58001 2.23006 7.58001 2.19006 7.56001 2.17006C7.54001 2.15006 7.52001 2.15006 7.50001 2.15006C7.48001 2.15006 7.46001 2.15006 7.44001 2.15006C7.42001 2.15006 7.40001 2.14006 7.38001 2.15006C7.36001 2.15006 7.33001 2.14006 7.32001 2.15006C7.30001 2.15006 7.30001 2.19006 7.29001 2.21006C7.28001 2.22006 7.24001 2.22006 7.23001 2.24006C7.23001 2.25006 7.23001 2.27006 7.23001 2.29006C7.23001 2.29006 7.23001 2.29006 7.23001 2.30006C7.23001 2.32006 7.21001 2.34006 7.21001 2.35006C7.21001 2.37006 7.23001 2.38006 7.24001 2.40006C7.24001 2.40006 7.24001 2.41006 7.25001 2.42006C7.25001 2.42006 7.26001 2.44006 7.27001 2.45006C7.28001 2.46006 7.30001 2.47006 7.32001 2.48006C7.34001 2.48006 7.36001 2.48006 7.38001 2.49006C7.40001 2.49006 7.42001 2.51006 7.44001 2.51006C7.46001 2.51006 7.47001 2.48006 7.49001 2.47006C7.51001 2.47006 7.53001 2.47006 7.55001 2.45006C7.56001 2.44006 7.58001 2.42006 7.58001 2.40006C7.58001 2.38006 7.58001 2.36006 7.58001 2.34006C7.58001 2.32006 7.59001 2.31006 7.58001 2.29006C7.58001 2.27006 7.58001 2.25006 7.56001 2.24006L7.58001 2.23006ZM7.96001 1.52006C7.96001 1.52006 7.96001 1.56006 7.94001 1.57006C7.93001 1.57006 7.91001 1.57006 7.89001 1.58006C7.87001 1.58006 7.86001 1.59006 7.84001 1.59006C7.82001 1.59006 7.81001 1.59006 7.79001 1.59006C7.77001 1.59006 7.76001 1.58006 7.75001 1.57006C7.74001 1.57006 7.72001 1.56006 7.71001 1.54006C7.70001 1.53006 7.71001 1.51006 7.71001 1.49006C7.71001 1.47006 7.68001 1.46006 7.68001 1.45006C7.68001 1.43006 7.71001 1.42006 7.71001 1.41006C7.67001 1.41006 7.62001 1.41006 7.60001 1.43006C7.56001 1.46006 7.55001 1.55006 7.50001 1.56006C7.46001 1.57006 7.41001 1.54006 7.36001 1.53006C7.36001 1.55006 7.36001 1.58006 7.36001 1.60006C7.38001 1.61006 7.42001 1.62006 7.43001 1.65006C7.45001 1.67006 7.43001 1.71006 7.45001 1.74006C7.45001 1.77006 7.46001 1.79006 7.46001 1.82006C7.46001 1.85006 7.44001 1.87006 7.43001 1.90006C7.43001 1.93006 7.43001 1.96006 7.41001 1.98006C7.39001 2.00006 7.37001 2.02006 7.35001 2.04006C7.33001 2.06006 7.29001 2.04006 7.27001 2.05006C7.24001 2.05006 7.22001 2.10006 7.19001 2.10006C7.16001 2.10006 7.14001 2.07006 7.11001 2.06006C7.08001 2.06006 7.06001 2.05006 7.03001 2.03006C7.02001 2.03006 7.01001 2.01006 7.00001 2.00006C7.00001 2.02006 7.01001 2.03006 7.02001 2.04006C7.02001 2.08006 7.06001 2.12006 7.05001 2.16006C7.05001 2.20006 6.99001 2.23006 6.98001 2.27006C6.96001 2.31006 6.98001 2.38006 6.96001 2.41006C6.93001 2.44006 6.85001 2.41006 6.81001 2.43006C6.80001 2.43006 6.79001 2.45006 6.78001 2.46006C6.78001 2.48006 6.79001 2.49006 6.78001 2.50006C6.77001 2.53006 6.72001 2.54006 6.70001 2.56006C6.70001 2.56006 6.69001 2.56006 6.68001 2.57006C6.68001 2.59006 6.69001 2.61006 6.69001 2.63006C6.69001 2.66006 6.66001 2.69006 6.64001 2.72006C6.64001 2.74006 6.66001 2.77006 6.67001 2.78006C6.69001 2.80006 6.75001 2.79006 6.76001 2.82006C6.77001 2.84006 6.76001 2.88006 6.76001 2.91006C6.76001 2.94006 6.76001 2.96006 6.75001 2.99006C6.75001 3.02006 6.77001 3.05006 6.75001 3.07006C6.74001 3.10006 6.74001 3.13006 6.72001 3.15006C6.70001 3.17006 6.66001 3.17006 6.63001 3.18006C6.60001 3.19006 6.58001 3.20006 6.55001 3.21006C6.52001 3.21006 6.50001 3.21006 6.47001 3.20006C6.45001 3.20006 6.42001 3.20006 6.40001 3.20006C6.40001 3.21006 6.41001 3.23006 6.41001 3.24006C6.41001 3.26006 6.41001 3.27006 6.41001 3.29006C6.44001 3.33006 6.50001 3.34006 6.52001 3.39006C6.54001 3.43006 6.58001 3.48006 6.58001 3.53006C6.58001 3.58006 6.53001 3.62006 6.51001 3.67006C6.50001 3.72006 6.48001 3.76006 6.45001 3.79006C6.42001 3.83006 6.38001 3.84006 6.34001 3.87006C6.30001 3.90006 6.28001 3.95006 6.23001 3.97006C6.18001 3.99006 6.14001 4.00006 6.09001 4.00006C6.04001 4.00006 6.00001 3.95006 5.96001 3.94006C5.91001 3.93006 5.84001 3.96006 5.80001 3.94006C5.78001 3.96006 5.75001 3.97006 5.73001 3.99006C5.70001 4.02006 5.70001 4.08006 5.66001 4.10006C5.62001 4.12006 5.57001 4.10006 5.53001 4.10006C5.50001 4.10006 5.48001 4.10006 5.45001 4.11006C5.43001 4.15006 5.46001 4.21006 5.44001 4.24006C5.41001 4.27006 5.34001 4.24006 5.30001 4.27006C5.26001 4.29006 5.25001 4.36006 5.21001 4.37006C5.17001 4.37006 5.12001 4.34006 5.08001 4.34006C5.04001 4.34006 5.01001 4.31006 4.97001 4.30006C4.93001 4.29006 4.88001 4.30006 4.85001 4.27006C4.83001 4.29006 4.79001 4.31006 4.78001 4.34006C4.77001 4.38006 4.80001 4.45006 4.78001 4.48006C4.75001 4.51006 4.69001 4.51006 4.65001 4.53006C4.62001 4.55006 4.58001 4.55006 4.54001 4.56006C4.54001 4.56006 4.54001 4.57006 4.54001 4.58006C4.54001 4.58006 4.54001 4.58006 4.54001 4.59006C4.54001 4.59006 4.54001 4.59006 4.53001 4.60006C4.53001 4.60006 4.53001 4.60006 4.52001 4.60006C4.52001 4.60006 4.52001 4.60006 4.52001 4.61006C4.52001 4.61006 4.52001 4.61006 4.51001 4.61006C4.51001 4.61006 4.51001 4.62006 4.50001 4.63006C4.50001 4.64006 4.51001 4.65006 4.52001 4.66006C4.52001 4.71006 4.55001 4.76006 4.53001 4.81006C4.52001 4.86006 4.45001 4.88006 4.43001 4.92006C4.40001 4.96006 4.37001 4.99006 4.33001 5.02006C4.30001 5.04006 4.28001 5.05006 4.25001 5.05006C4.25001 5.05006 4.27001 5.06006 4.28001 5.07006C4.28001 5.08006 4.28001 5.10006 4.28001 5.11006C4.28001 5.12006 4.28001 5.13006 4.28001 5.15006C4.28001 5.16006 4.28001 5.17006 4.27001 5.18006C4.27001 5.19006 4.27001 5.21006 4.26001 5.22006C4.26001 5.22006 4.24001 5.24006 4.23001 5.24006C4.22001 5.24006 4.20001 5.24006 4.19001 5.24006C4.18001 5.24006 4.17001 5.26006 4.15001 5.26006C4.14001 5.26006 4.13001 5.25006 4.11001 5.24006C4.10001 5.24006 4.09001 5.24006 4.08001 5.22006C4.08001 5.22006 4.06001 5.20006 4.05001 5.19006C4.05001 5.18006 4.04001 5.17006 4.04001 5.16006C4.04001 5.15006 4.03001 5.14006 4.03001 5.12006C4.03001 5.12006 4.03001 5.12006 4.03001 5.11006C3.99001 5.11006 3.96001 5.11006 3.92001 5.10006C3.87001 5.09006 3.85001 5.03006 3.81001 5.01006C3.77001 4.98006 3.69001 5.00006 3.67001 4.96006C3.64001 4.92006 3.65001 4.86006 3.64001 4.82006C3.62001 4.78006 3.60001 4.74006 3.60001 4.69006C3.60001 4.68006 3.60001 4.67006 3.60001 4.66006C3.60001 4.66006 3.59001 4.66006 3.58001 4.66006C3.58001 4.68006 3.57001 4.71006 3.56001 4.73006C3.55001 4.74006 3.53001 4.75006 3.52001 4.75006H3.53001H3.55001C3.58001 4.78006 3.57001 4.84006 3.59001 4.87006C3.61001 4.90006 3.60001 4.94006 3.61001 4.98006C3.61001 4.98006 3.62001 4.98006 3.63001 4.98006C3.67001 4.99006 3.69001 5.04006 3.73001 5.07006C3.77001 5.09006 3.84001 5.07006 3.87001 5.11006C3.90001 5.14006 3.86001 5.21006 3.87001 5.25006C3.89001 5.25006 3.91001 5.27006 3.92001 5.27006C3.94001 5.27006 3.96001 5.27006 3.97001 5.29006C3.99001 5.30006 4.00001 5.31006 4.02001 5.33006C4.03001 5.35006 4.04001 5.36006 4.05001 5.38006C4.05001 5.40006 4.07001 5.42006 4.07001 5.44006C4.07001 5.46006 4.05001 5.48006 4.04001 5.50006C4.04001 5.52006 4.05001 5.55006 4.04001 5.57006C4.03001 5.59006 3.99001 5.57006 3.97001 5.59006C3.95001 5.60006 3.95001 5.64006 3.93001 5.64006C3.91001 5.64006 3.88001 5.63006 3.86001 5.63006C3.84001 5.63006 3.82001 5.62006 3.81001 5.61006C3.81001 5.61006 3.81001 5.61006 3.80001 5.61006C3.80001 5.64006 3.78001 5.67006 3.76001 5.69006C3.73001 5.72006 3.70001 5.76006 3.66001 5.77006C3.62001 5.78006 3.57001 5.75006 3.52001 5.75006C3.52001 5.75006 3.52001 5.76006 3.53001 5.77006C3.53001 5.78006 3.55001 5.79006 3.55001 5.81006C3.55001 5.82006 3.54001 5.84006 3.53001 5.85006C3.53001 5.86006 3.53001 5.88006 3.53001 5.90006C3.53001 5.91006 3.50001 5.90006 3.48001 5.91006C3.47001 5.91006 3.47001 5.94006 3.45001 5.95006C3.44001 5.95006 3.42001 5.95006 3.41001 5.95006C3.40001 5.95006 3.39001 5.95006 3.37001 5.94006C3.36001 5.94006 3.34001 5.94006 3.33001 5.94006C3.33001 5.94006 3.32001 5.94006 3.31001 5.93006C3.30001 5.96006 3.29001 5.99006 3.27001 6.01006C3.24001 6.03006 3.18001 5.98006 3.14001 5.99006C3.10001 6.00006 3.06001 6.05006 3.03001 6.05006C2.99001 6.05006 2.97001 6.00006 2.93001 5.98006C2.93001 5.98006 2.91001 5.98006 2.89001 5.98006C2.92001 6.00006 2.95001 6.03006 2.97001 6.06006C2.98001 6.07006 2.98001 6.09006 2.98001 6.11006C2.98001 6.11006 2.98001 6.11006 2.99001 6.11006C2.99001 6.11006 2.99001 6.11006 3.00001 6.11006C3.00001 6.11006 3.00001 6.11006 3.00001 6.12006C3.00001 6.12006 3.00001 6.12006 3.00001 6.13006C3.00001 6.13006 3.00001 6.13006 3.00001 6.14006C3.00001 6.14006 3.00001 6.14006 2.99001 6.14006C3.01001 6.17006 3.05001 6.20006 3.05001 6.23006C3.05001 6.27006 3.01001 6.30006 3.00001 6.34006C2.99001 6.38006 2.98001 6.41006 2.96001 6.44006C2.94001 6.47006 2.91001 6.50006 2.88001 6.52006C2.85001 6.54006 2.81001 6.56006 2.77001 6.57006C2.73001 6.58006 2.69001 6.61006 2.65001 6.61006C2.61001 6.61006 2.58001 6.57006 2.54001 6.55006C2.52001 6.55006 2.50001 6.55006 2.48001 6.55006C2.48001 6.58006 2.48001 6.62006 2.48001 6.64006C2.50001 6.67006 2.56001 6.69006 2.57001 6.73006C2.57001 6.77006 2.53001 6.80006 2.53001 6.84006C2.53001 6.88006 2.50001 6.90006 2.48001 6.93006C2.46001 6.96006 2.48001 7.01006 2.44001 7.03006C2.41001 7.05006 2.39001 7.10006 2.36001 7.11006C2.36001 7.11006 2.35001 7.11006 2.34001 7.11006C2.32001 7.12006 2.29001 7.11006 2.26001 7.11006C2.23001 7.11006 2.21001 7.15006 2.18001 7.15006C2.15001 7.15006 2.13001 7.12006 2.11001 7.11006C2.08001 7.11006 2.06001 7.09006 2.04001 7.08006C2.04001 7.09006 2.02001 7.10006 2.01001 7.10006C1.97001 7.12006 1.90001 7.07006 1.86001 7.08006C1.82001 7.08006 1.79001 7.06006 1.75001 7.05006C1.76001 7.05006 1.77001 7.05006 1.78001 7.06006C1.80001 7.07006 1.80001 7.10006 1.81001 7.12006C1.82001 7.14006 1.83001 7.16006 1.84001 7.18006C1.84001 7.19006 1.84001 7.21006 1.84001 7.22006C1.84001 7.22006 1.86001 7.23006 1.86001 7.24006C1.88001 7.28006 1.86001 7.34006 1.86001 7.39006C1.86001 7.44006 1.94001 7.49006 1.93001 7.53006C1.93001 7.57006 1.83001 7.60006 1.81001 7.64006C1.79001 7.68006 1.81001 7.76006 1.78001 7.79006C1.75001 7.82006 1.67001 7.81006 1.63001 7.83006C1.59001 7.85006 1.54001 7.83006 1.49001 7.85006C1.44001 7.85006 1.40001 7.90006 1.35001 7.89006C1.30001 7.89006 1.24001 7.89006 1.20001 7.87006C1.16001 7.85006 1.14001 7.78006 1.11001 7.75006C1.08001 7.72006 1.05001 7.68006 1.03001 7.64006C1.01001 7.60006 1.03001 7.55006 1.01001 7.51006C1.01001 7.46006 0.97001 7.42006 0.97001 7.38006C0.97001 7.34006 0.99001 7.29006 1.02001 7.25006C1.04001 7.21006 1.10001 7.20006 1.14001 7.17006C1.17001 7.14006 1.18001 7.08006 1.21001 7.05006C1.21001 7.05006 1.21001 7.04006 1.20001 7.03006C1.17001 7.01006 1.16001 6.97006 1.14001 6.95006C1.12001 6.92006 1.07001 6.91006 1.06001 6.87006C1.06001 6.87006 1.06001 6.85006 1.05001 6.84006C1.04001 6.84006 1.03001 6.82006 1.02001 6.81006C1.01001 6.81006 1.00001 6.79006 0.99001 6.78006C0.99001 6.78006 0.97001 6.77006 0.97001 6.76006C0.97001 6.77006 0.96001 6.79006 0.95001 6.80006C0.94001 6.82006 0.93001 6.84006 0.92001 6.85006C0.91001 6.85006 0.89001 6.85006 0.88001 6.85006C0.88001 6.87006 0.87001 6.90006 0.88001 6.91006C0.88001 6.93006 0.92001 6.95006 0.92001 6.97006C0.92001 6.99006 0.89001 7.01006 0.88001 7.02006C0.88001 7.04006 0.85001 7.05006 0.84001 7.06006C0.83001 7.08006 0.82001 7.10006 0.81001 7.11006C0.79001 7.12006 0.78001 7.14006 0.75001 7.15006C0.73001 7.15006 0.71001 7.14006 0.68001 7.14006C0.66001 7.14006 0.64001 7.14006 0.62001 7.13006C0.60001 7.13006 0.59001 7.10006 0.58001 7.09006C0.56001 7.08006 0.54001 7.07006 0.53001 7.06006C0.52001 7.04006 0.51001 7.02006 0.51001 7.00006C0.51001 6.98006 0.52001 6.96006 0.52001 6.94006C0.52001 6.92006 0.50001 6.90006 0.51001 6.88006C0.51001 6.86006 0.54001 6.85006 0.56001 6.84006C0.57001 6.82006 0.58001 6.81006 0.60001 6.80006C0.62001 6.79006 0.63001 6.78006 0.66001 6.77006C0.66001 6.77006 0.67001 6.77006 0.68001 6.77006V6.75006C0.68001 6.73006 0.65001 6.72006 0.65001 6.70006C0.65001 6.68006 0.65001 6.66006 0.65001 6.64006C0.65001 6.62006 0.68001 6.61006 0.69001 6.60006C0.70001 6.58006 0.71001 6.57006 0.73001 6.56006C0.75001 6.55006 0.76001 6.56006 0.78001 6.54006C0.80001 6.54006 0.81001 6.52006 0.83001 6.52006C0.85001 6.52006 0.87001 6.52006 0.89001 6.52006C0.91001 6.52006 0.92001 6.55006 0.93001 6.56006C0.95001 6.57006 0.98001 6.56006 0.99001 6.58006C1.00001 6.59006 0.99001 6.62006 1.00001 6.64006C1.00001 6.63006 1.02001 6.62006 1.03001 6.61006C1.03001 6.61006 1.04001 6.59006 1.05001 6.58006C1.06001 6.58006 1.07001 6.58006 1.09001 6.57006C1.10001 6.57006 1.11001 6.57006 1.13001 6.58006C1.13001 6.58006 1.15001 6.58006 1.16001 6.58006C1.16001 6.56006 1.16001 6.54006 1.16001 6.53006C1.14001 6.49006 1.16001 6.45006 1.16001 6.41006C1.16001 6.37006 1.12001 6.32006 1.13001 6.28006C1.14001 6.24006 1.13001 6.18006 1.16001 6.15006C1.19001 6.12006 1.25001 6.11006 1.29001 6.08006C1.33001 6.05006 1.36001 6.03006 1.40001 6.02006C1.40001 6.01006 1.40001 6.00006 1.40001 5.98006C1.41001 5.94006 1.46001 5.93006 1.48001 5.90006C1.50001 5.87006 1.48001 5.81006 1.52001 5.79006C1.55001 5.77006 1.60001 5.78006 1.64001 5.76006C1.65001 5.76006 1.66001 5.76006 1.67001 5.75006V5.73006C1.67001 5.71006 1.67001 5.70006 1.66001 5.68006C1.66001 5.68006 1.66001 5.69006 1.66001 5.70006C1.63001 5.72006 1.58001 5.70006 1.55001 5.72006C1.52001 5.73006 1.49001 5.72006 1.45001 5.72006C1.42001 5.72006 1.38001 5.75006 1.35001 5.74006C1.32001 5.74006 1.27001 5.74006 1.24001 5.72006C1.21001 5.70006 1.20001 5.65006 1.18001 5.63006C1.16001 5.60006 1.14001 5.58006 1.13001 5.55006C1.12001 5.52006 1.13001 5.49006 1.13001 5.45006C1.13001 5.42006 1.10001 5.39006 1.11001 5.35006C1.11001 5.32006 1.13001 5.29006 1.15001 5.26006C1.17001 5.23006 1.21001 5.23006 1.24001 5.21006C1.27001 5.19006 1.27001 5.13006 1.30001 5.12006C1.33001 5.11006 1.37001 5.12006 1.41001 5.12006C1.42001 5.12006 1.44001 5.12006 1.45001 5.12006C1.45001 5.11006 1.45001 5.09006 1.47001 5.08006C1.49001 5.06006 1.52001 5.06006 1.54001 5.04006C1.56001 5.02006 1.57001 4.98006 1.59001 4.97006C1.59001 4.97006 1.61001 4.97006 1.62001 4.97006C1.62001 4.97006 1.62001 4.95006 1.64001 4.95006C1.66001 4.94006 1.67001 4.92006 1.69001 4.92006C1.71001 4.92006 1.73001 4.93006 1.75001 4.93006C1.77001 4.93006 1.79001 4.93006 1.80001 4.94006C1.82001 4.94006 1.83001 4.96006 1.84001 4.97006C1.86001 4.98006 1.88001 4.98006 1.89001 5.00006C1.90001 5.02006 1.91001 5.03006 1.91001 5.05006C1.91001 5.05006 1.91001 5.07006 1.91001 5.08006C1.93001 5.10006 1.95001 5.11006 1.95001 5.13006C1.95001 5.13006 1.95001 5.13006 1.95001 5.14006C1.95001 5.14006 1.96001 5.12006 1.97001 5.11006C1.98001 5.08006 1.95001 5.02006 1.97001 5.00006C1.99001 4.97006 2.06001 4.99006 2.09001 4.97006C2.12001 4.95006 2.13001 4.89006 2.16001 4.88006C2.19001 4.87006 2.24001 4.90006 2.27001 4.90006C2.31001 4.90006 2.33001 4.92006 2.36001 4.93006C2.39001 4.93006 2.43001 4.93006 2.46001 4.95006C2.49001 4.97006 2.53001 4.98006 2.55001 5.01006C2.57001 5.04006 2.55001 5.09006 2.57001 5.12006C2.57001 5.15006 2.58001 5.17006 2.58001 5.19006C2.60001 5.21006 2.62001 5.23006 2.64001 5.24006C2.67001 5.26006 2.71001 5.28006 2.73001 5.31006C2.73001 5.31006 2.74001 5.33006 2.75001 5.34006C2.77001 5.34006 2.79001 5.35006 2.82001 5.35006C2.84001 5.35006 2.86001 5.35006 2.88001 5.35006C2.88001 5.34006 2.89001 5.33006 2.90001 5.32006C2.90001 5.32006 2.92001 5.31006 2.93001 5.30006C2.94001 5.30006 2.95001 5.28006 2.96001 5.28006C2.97001 5.28006 2.99001 5.28006 3.00001 5.28006C3.01001 5.28006 3.02001 5.28006 3.03001 5.30006C3.04001 5.30006 3.06001 5.29006 3.07001 5.29006C3.07001 5.29006 3.07001 5.29006 3.08001 5.29006C3.08001 5.28006 3.07001 5.27006 3.06001 5.26006C3.04001 5.24006 3.01001 5.23006 2.98001 5.22006C2.97001 5.22006 2.95001 5.22006 2.94001 5.23006C2.92001 5.23006 2.91001 5.27006 2.89001 5.28006C2.87001 5.28006 2.85001 5.25006 2.83001 5.25006C2.81001 5.25006 2.78001 5.27006 2.76001 5.26006C2.74001 5.26006 2.74001 5.22006 2.72001 5.21006C2.71001 5.20006 2.70001 5.18006 2.70001 5.16006C2.70001 5.14006 2.67001 5.13006 2.66001 5.11006C2.66001 5.09006 2.64001 5.07006 2.65001 5.05006C2.65001 5.03006 2.68001 5.02006 2.69001 5.00006C2.69001 5.00006 2.69001 5.00006 2.69001 4.99006C2.67001 4.98006 2.65001 4.97006 2.64001 4.95006C2.63001 4.92006 2.65001 4.88006 2.65001 4.85006C2.65001 4.82006 2.65001 4.79006 2.65001 4.76006C2.65001 4.73006 2.67001 4.70006 2.69001 4.67006C2.69001 4.67006 2.71001 4.65006 2.72001 4.65006C2.72001 4.64006 2.70001 4.62006 2.69001 4.61006C2.66001 4.58006 2.63001 4.56006 2.62001 4.53006C2.60001 4.50006 2.58001 4.47006 2.58001 4.43006C2.58001 4.39006 2.58001 4.36006 2.58001 4.32006C2.58001 4.28006 2.58001 4.24006 2.59001 4.21006C2.61001 4.18006 2.66001 4.17006 2.69001 4.14006C2.72001 4.11006 2.72001 4.05006 2.75001 4.03006C2.78001 4.01006 2.84001 4.06006 2.88001 4.05006C2.90001 4.05006 2.91001 4.04006 2.93001 4.03006C2.93001 4.02006 2.92001 4.00006 2.91001 3.99006C2.89001 3.97006 2.84001 3.96006 2.82001 3.93006C2.81001 3.90006 2.82001 3.86006 2.82001 3.83006C2.82001 3.80006 2.81001 3.77006 2.82001 3.74006C2.82001 3.71006 2.83001 3.68006 2.85001 3.65006C2.87001 3.62006 2.89001 3.60006 2.91001 3.58006C2.93001 3.56006 2.95001 3.52006 2.98001 3.51006C2.98001 3.50006 2.97001 3.48006 2.97001 3.47006C2.97001 3.45006 3.03001 3.44006 3.04001 3.42006C3.06001 3.40006 3.04001 3.35006 3.06001 3.34006C3.08001 3.32006 3.12001 3.34006 3.15001 3.33006C3.17001 3.33006 3.20001 3.33006 3.23001 3.33006C3.26001 3.33006 3.28001 3.31006 3.31001 3.32006C3.33001 3.32006 3.37001 3.32006 3.39001 3.34006C3.41001 3.35006 3.42001 3.39006 3.43001 3.41006C3.45001 3.43006 3.46001 3.45006 3.47001 3.47006C3.47001 3.49006 3.47001 3.52006 3.47001 3.54006C3.47001 3.54006 3.47001 3.55006 3.47001 3.56006C3.47001 3.56006 3.48001 3.56006 3.49001 3.56006C3.49001 3.56006 3.50001 3.56006 3.51001 3.56006C3.51001 3.56006 3.51001 3.57006 3.52001 3.58006C3.52001 3.58006 3.52001 3.58006 3.52001 3.59006C3.52001 3.59006 3.52001 3.59006 3.53001 3.60006C3.53001 3.60006 3.53001 3.61006 3.53001 3.62006C3.53001 3.63006 3.53001 3.63006 3.52001 3.64006C3.52001 3.64006 3.52001 3.64006 3.52001 3.65006C3.52001 3.65006 3.52001 3.65006 3.51001 3.65006C3.51001 3.65006 3.51001 3.65006 3.50001 3.65006C3.50001 3.65006 3.49001 3.65006 3.48001 3.65006C3.47001 3.65006 3.48001 3.65006 3.47001 3.65006C3.47001 3.65006 3.47001 3.67006 3.46001 3.68006C3.45001 3.69006 3.43001 3.70006 3.42001 3.71006C3.42001 3.73006 3.42001 3.75006 3.42001 3.77006C3.42001 3.80006 3.45001 3.83006 3.45001 3.86006C3.45001 3.88006 3.45001 3.91006 3.45001 3.93006C3.47001 3.93006 3.50001 3.91006 3.52001 3.91006C3.56001 3.91006 3.59001 3.94006 3.62001 3.95006C3.66001 3.95006 3.71001 3.93006 3.74001 3.95006C3.77001 3.97006 3.78001 4.02006 3.80001 4.05006C3.82001 4.08006 3.85001 4.10006 3.86001 4.14006C3.87001 4.17006 3.89001 4.21006 3.89001 4.24006C3.89001 4.24006 3.89001 4.24006 3.89001 4.25006C3.92001 4.25006 3.95001 4.25006 3.97001 4.24006C4.01001 4.22006 4.05001 4.15006 4.10001 4.15006C4.10001 4.11006 4.10001 4.07006 4.12001 4.03006C4.13001 3.99006 4.19001 3.98006 4.21001 3.94006C4.23001 3.91006 4.23001 3.88006 4.25001 3.85006C4.23001 3.83006 4.22001 3.80006 4.20001 3.79006C4.17001 3.77006 4.16001 3.73006 4.13001 3.70006C4.11001 3.67006 4.06001 3.65006 4.04001 3.62006C4.04001 3.59006 4.01001 3.56006 4.00001 3.53006C4.00001 3.53006 4.00001 3.53006 3.98001 3.53006C3.98001 3.53006 3.98001 3.53006 3.97001 3.53006C3.97001 3.53006 3.97001 3.52006 3.97001 3.51006C3.97001 3.51006 3.97001 3.50006 3.97001 3.49006C3.97001 3.49006 3.97001 3.48006 3.97001 3.47006C3.97001 3.47006 3.97001 3.46006 3.97001 3.45006C3.97001 3.45006 3.97001 3.44006 3.98001 3.43006H4.00001C4.00001 3.43006 4.01001 3.42006 4.02001 3.42006C4.02001 3.42006 4.03001 3.43006 4.04001 3.43006H4.06001C4.06001 3.43006 4.06001 3.44006 4.06001 3.45006C4.06001 3.45006 4.06001 3.44006 4.07001 3.43006C4.06001 3.42006 4.05001 3.41006 4.03001 3.39006C4.01001 3.37006 3.97001 3.37006 3.95001 3.35006C3.93001 3.33006 3.90001 3.30006 3.90001 3.27006C3.90001 3.24006 3.92001 3.21006 3.92001 3.18006C3.92001 3.15006 3.92001 3.13006 3.94001 3.10006C3.95001 3.07006 3.98001 3.06006 4.00001 3.04006C4.02001 3.02006 4.02001 2.98006 4.05001 2.97006C4.05001 2.97006 4.05001 2.97006 4.06001 2.97006C4.04001 2.97006 4.02001 2.95006 4.01001 2.94006C3.99001 2.91006 3.95001 2.88006 3.94001 2.85006C3.94001 2.81006 3.96001 2.77006 3.97001 2.74006C3.97001 2.70006 3.97001 2.67006 3.99001 2.64006C4.00001 2.61006 4.03001 2.59006 4.06001 2.56006C4.08001 2.53006 4.09001 2.49006 4.12001 2.47006C4.13001 2.47006 4.15001 2.46006 4.17001 2.45006C4.17001 2.44006 4.17001 2.42006 4.17001 2.41006C4.19001 2.39006 4.23001 2.39006 4.26001 2.38006C4.28001 2.37006 4.31001 2.37006 4.33001 2.36006C4.35001 2.33006 4.39001 2.30006 4.42001 2.28006C4.45001 2.26006 4.48001 2.22006 4.52001 2.21006C4.55001 2.21006 4.58001 2.21006 4.61001 2.22006C4.62001 2.22006 4.63001 2.20006 4.65001 2.20006C4.67001 2.20006 4.69001 2.20006 4.72001 2.20006C4.74001 2.19006 4.77001 2.18006 4.79001 2.18006C4.80001 2.18006 4.81001 2.20006 4.82001 2.21006C4.83001 2.21006 4.84001 2.22006 4.85001 2.23006C4.85001 2.23006 4.85001 2.23006 4.85001 2.22006C4.85001 2.19006 4.81001 2.15006 4.82001 2.12006C4.83001 2.09006 4.87001 2.07006 4.89001 2.05006C4.91001 2.02006 4.93001 2.00006 4.95001 1.98006C4.97001 1.97006 4.99001 1.95006 5.02001 1.94006C5.02001 1.93006 5.02001 1.92006 5.02001 1.91006C5.02001 1.87006 5.06001 1.85006 5.07001 1.82006C5.09001 1.79006 5.08001 1.75006 5.11001 1.72006C5.14001 1.70006 5.17001 1.67006 5.20001 1.66006C5.24001 1.64006 5.28001 1.66006 5.31001 1.66006C5.35001 1.66006 5.38001 1.61006 5.42001 1.62006C5.42001 1.62006 5.42001 1.60006 5.42001 1.59006C5.42001 1.56006 5.44001 1.54006 5.45001 1.52006C5.45001 1.49006 5.44001 1.46006 5.45001 1.44006C5.46001 1.42006 5.50001 1.41006 5.52001 1.40006C5.54001 1.38006 5.56001 1.37006 5.58001 1.36006C5.60001 1.36006 5.63001 1.34006 5.65001 1.34006C5.68001 1.34006 5.70001 1.34006 5.73001 1.34006C5.76001 1.34006 5.79001 1.34006 5.81001 1.36006C5.83001 1.37006 5.84001 1.41006 5.85001 1.43006C5.87001 1.45006 5.91001 1.45006 5.92001 1.48006C5.92001 1.50006 5.89001 1.54006 5.89001 1.57006C5.89001 1.60006 5.93001 1.63006 5.92001 1.65006C5.92001 1.68006 5.87001 1.69006 5.86001 1.71006C5.85001 1.73006 5.82001 1.74006 5.80001 1.76006C5.78001 1.78006 5.77001 1.81006 5.75001 1.82006C5.73001 1.82006 5.70001 1.85006 5.67001 1.85006C5.68001 1.88006 5.69001 1.91006 5.70001 1.95006C5.70001 1.99006 5.73001 2.03006 5.72001 2.06006C5.72001 2.09006 5.68001 2.11006 5.66001 2.14006C5.67001 2.16006 5.69001 2.18006 5.68001 2.21006C5.68001 2.22006 5.66001 2.23006 5.64001 2.24006C5.64001 2.24006 5.64001 2.24006 5.64001 2.25006C5.64001 2.28006 5.69001 2.31006 5.69001 2.34006C5.69001 2.37006 5.65001 2.39006 5.64001 2.42006C5.63001 2.45006 5.62001 2.48006 5.60001 2.50006C5.58001 2.52006 5.56001 2.55006 5.53001 2.56006C5.53001 2.56006 5.53001 2.56006 5.52001 2.56006C5.52001 2.58006 5.52001 2.59006 5.52001 2.61006C5.52001 2.64006 5.50001 2.66006 5.48001 2.67006C5.46001 2.70006 5.48001 2.76006 5.45001 2.79006C5.42001 2.82006 5.37001 2.81006 5.34001 2.83006C5.31001 2.85006 5.28001 2.87006 5.24001 2.87006C5.20001 2.87006 5.16001 2.88006 5.12001 2.87006C5.08001 2.87006 5.05001 2.85006 5.01001 2.83006C5.01001 2.83006 5.01001 2.85006 5.01001 2.86006C5.01001 2.89006 5.04001 2.92006 5.04001 2.95006C5.04001 2.95006 5.04001 2.95006 5.04001 2.96006C5.05001 2.98006 5.06001 3.01006 5.05001 3.03006C5.05001 3.05006 5.02001 3.06006 5.00001 3.07006C5.00001 3.10006 5.00001 3.12006 5.00001 3.14006C4.98001 3.16006 4.92001 3.15006 4.89001 3.17006C4.89001 3.17006 4.89001 3.17006 4.89001 3.18006C4.90001 3.18006 4.91001 3.18006 4.93001 3.18006C4.97001 3.18006 5.00001 3.15006 5.03001 3.16006C5.05001 3.16006 5.08001 3.16006 5.11001 3.17006L5.12001 3.15006C5.13001 3.11006 5.15001 3.08006 5.17001 3.05006C5.19001 3.02006 5.23001 3.01006 5.27001 2.98006C5.30001 2.96006 5.32001 2.91006 5.36001 2.90006C5.40001 2.89006 5.44001 2.88006 5.48001 2.88006C5.50001 2.88006 5.52001 2.89006 5.55001 2.91006C5.57001 2.89006 5.59001 2.87006 5.61001 2.87006C5.64001 2.87006 5.68001 2.90006 5.71001 2.92006C5.71001 2.92006 5.72001 2.92006 5.73001 2.92006C5.76001 2.92006 5.80001 2.92006 5.83001 2.93006C5.86001 2.94006 5.86001 2.99006 5.89001 3.01006C5.91001 3.03006 5.97001 3.03006 5.98001 3.06006C5.98001 3.06006 5.98001 3.07006 5.98001 3.08006C5.98001 3.08006 5.98001 3.08006 5.98001 3.09006C5.99001 3.06006 6.01001 3.03006 6.04001 3.02006C6.09001 3.00006 6.15001 3.07006 6.20001 3.07006C6.24001 3.07006 6.29001 3.02006 6.34001 3.02006C6.32001 3.02006 6.31001 3.00006 6.29001 2.99006C6.27001 2.98006 6.24001 2.98006 6.22001 2.96006C6.21001 2.94006 6.18001 2.92006 6.17001 2.90006C6.14001 2.90006 6.11001 2.90006 6.09001 2.89006C6.06001 2.86006 6.05001 2.81006 6.03001 2.77006C6.01001 2.73006 5.98001 2.70006 5.97001 2.66006C5.97001 2.66006 5.97001 2.66006 5.97001 2.65006C5.96001 2.65006 5.95001 2.65006 5.94001 2.65006C5.92001 2.65006 5.90001 2.65006 5.88001 2.65006C5.86001 2.65006 5.85001 2.63006 5.83001 2.61006C5.81001 2.60006 5.79001 2.60006 5.78001 2.58006C5.77001 2.56006 5.76001 2.55006 5.75001 2.53006C5.75001 2.51006 5.75001 2.49006 5.75001 2.47006C5.75001 2.45006 5.73001 2.43006 5.73001 2.41006C5.73001 2.39006 5.76001 2.38006 5.77001 2.36006C5.78001 2.34006 5.79001 2.33006 5.81001 2.31006C5.83001 2.30006 5.84001 2.29006 5.86001 2.28006C5.88001 2.28006 5.90001 2.28006 5.92001 2.28006C5.94001 2.28006 5.97001 2.28006 5.99001 2.28006C5.99001 2.28006 6.01001 2.29006 6.01001 2.30006C6.01001 2.27006 5.99001 2.24006 5.99001 2.21006C5.99001 2.17006 6.05001 2.14006 6.07001 2.10006C6.09001 2.06006 6.07001 1.99006 6.10001 1.96006C6.13001 1.93006 6.21001 1.96006 6.25001 1.94006C6.29001 1.92006 6.31001 1.84006 6.36001 1.84006C6.38001 1.84006 6.40001 1.84006 6.42001 1.86006C6.42001 1.85006 6.42001 1.83006 6.44001 1.82006C6.47001 1.79006 6.50001 1.76006 6.54001 1.74006C6.57001 1.73006 6.60001 1.73006 6.63001 1.74006C6.63001 1.74006 6.65001 1.73006 6.66001 1.72006C6.66001 1.72006 6.64001 1.71006 6.63001 1.71006C6.61001 1.71006 6.58001 1.71006 6.56001 1.71006C6.56001 1.71006 6.56001 1.72006 6.55001 1.73006C6.53001 1.75006 6.51001 1.75006 6.48001 1.76006C6.46001 1.77006 6.44001 1.80006 6.42001 1.80006C6.39001 1.80006 6.37001 1.80006 6.34001 1.80006C6.31001 1.80006 6.30001 1.77006 6.27001 1.76006C6.27001 1.76006 6.27001 1.76006 6.26001 1.76006C6.26001 1.76006 6.26001 1.76006 6.26001 1.77006C6.26001 1.77006 6.26001 1.77006 6.26001 1.78006C6.26001 1.78006 6.26001 1.78006 6.26001 1.79006C6.26001 1.79006 6.26001 1.79006 6.25001 1.79006C6.25001 1.79006 6.25001 1.79006 6.24001 1.79006C6.24001 1.79006 6.24001 1.79006 6.23001 1.79006C6.23001 1.79006 6.23001 1.79006 6.22001 1.79006C6.22001 1.79006 6.22001 1.79006 6.21001 1.79006C6.21001 1.79006 6.21001 1.79006 6.21001 1.78006C6.21001 1.78006 6.21001 1.78006 6.21001 1.77006C6.21001 1.77006 6.21001 1.77006 6.21001 1.76006C6.21001 1.76006 6.21001 1.76006 6.21001 1.75006C6.19001 1.73006 6.19001 1.70006 6.18001 1.68006C6.17001 1.66006 6.15001 1.64006 6.15001 1.61006C6.15001 1.59006 6.14001 1.56006 6.15001 1.53006C6.16001 1.50006 6.16001 1.48006 6.17001 1.46006C6.18001 1.44006 6.18001 1.40006 6.20001 1.39006C6.22001 1.37006 6.26001 1.37006 6.28001 1.36006C6.30001 1.35006 6.32001 1.30006 6.34001 1.30006C6.35001 1.30006 6.37001 1.30006 6.38001 1.32006C6.38001 1.30006 6.40001 1.28006 6.40001 1.26006C6.41001 1.22006 6.39001 1.17006 6.41001 1.14006C6.42001 1.12006 6.43001 1.10006 6.44001 1.08006C6.44001 1.08006 6.43001 1.08006 6.42001 1.08006C6.39001 1.09006 6.37001 1.12006 6.34001 1.12006C6.31001 1.12006 6.28001 1.12006 6.25001 1.12006C6.22001 1.12006 6.21001 1.08006 6.18001 1.06006C6.15001 1.04006 6.11001 1.06006 6.09001 1.03006C6.07001 1.01006 6.08001 0.97006 6.07001 0.94006C6.06001 0.91006 6.04001 0.89006 6.04001 0.86006C6.04001 0.83006 6.04001 0.80006 6.04001 0.77006C6.04001 0.74006 6.06001 0.71006 6.08001 0.69006C6.10001 0.66006 6.10001 0.63006 6.13001 0.61006C6.15001 0.59006 6.20001 0.60006 6.22001 0.59006C6.25001 0.58006 6.27001 0.53006 6.30001 0.53006C6.32001 0.53006 6.34001 0.55006 6.35001 0.56006C6.36001 0.56006 6.38001 0.56006 6.39001 0.56006C6.39001 0.56006 6.39001 0.56006 6.40001 0.56006C6.41001 0.54006 6.45001 0.52006 6.46001 0.50006L6.48001 0.48006C6.47001 0.45006 6.46001 0.42006 6.46001 0.39006C6.46001 0.34006 6.53001 0.31006 6.54001 0.26006C6.56001 0.22006 6.58001 0.18006 6.62001 0.15006C6.65001 0.12006 6.70001 0.11006 6.74001 0.0900597C6.78001 0.0700597 6.81001 0.0200597 6.86001 0.0100597C6.91001 0.0100597 6.95001 5.96792e-05 7.00001 0.0100597C7.05001 0.0100597 7.08001 0.0700597 7.12001 0.0900597C7.16001 0.11006 7.24001 0.0900597 7.27001 0.11006C7.31001 0.14006 7.30001 0.20006 7.33001 0.24006C7.35001 0.28006 7.38001 0.31006 7.39001 0.36006C7.39001 0.40006 7.41001 0.45006 7.40001 0.50006C7.40001 0.51006 7.40001 0.52006 7.40001 0.53006C7.41001 0.53006 7.42001 0.55006 7.43001 0.56006C7.45001 0.54006 7.47001 0.52006 7.50001 0.51006C7.53001 0.51006 7.57001 0.48006 7.61001 0.49006C7.65001 0.49006 7.67001 0.54006 7.70001 0.55006C7.73001 0.57006 7.76001 0.58006 7.78001 0.61006C7.80001 0.63006 7.81001 0.67006 7.82001 0.70006C7.84001 0.73006 7.87001 0.75006 7.88001 0.78006C7.88001 0.81006 7.88001 0.85006 7.88001 0.88006C7.89001 0.90006 7.91001 0.93006 7.91001 0.95006C7.93001 1.00006 7.96001 1.04006 7.96001 1.09006C7.96001 1.14006 7.91001 1.18006 7.89001 1.22006C7.89001 1.25006 7.89001 1.29006 7.89001 1.33006C7.90001 1.33006 7.91001 1.33006 7.92001 1.32006C7.94001 1.32006 7.95001 1.30006 7.96001 1.30006C7.98001 1.30006 8.00001 1.30006 8.01001 1.30006C8.03001 1.30006 8.04001 1.33006 8.05001 1.34006C8.06001 1.34006 8.07001 1.36006 8.08001 1.37006C8.08001 1.38006 8.08001 1.40006 8.09001 1.41006C8.09001 1.43006 8.11001 1.44006 8.11001 1.45006C8.11001 1.47006 8.11001 1.48006 8.11001 1.50006C8.11001 1.52006 8.09001 1.52006 8.08001 1.53006L7.96001 1.52006ZM3.06001 4.15006C3.06001 4.15006 3.04001 4.15006 3.03001 4.15006C3.05001 4.17006 3.06001 4.19006 3.08001 4.20006C3.08001 4.20006 3.09001 4.20006 3.10001 4.21006C3.10001 4.19006 3.12001 4.16006 3.13001 4.14006C3.13001 4.14006 3.13001 4.14006 3.14001 4.13006C3.11001 4.13006 3.08001 4.13006 3.05001 4.13006L3.06001 4.15006ZM1.78001 5.47006C1.78001 5.47006 1.77001 5.51006 1.77001 5.53006C1.80001 5.52006 1.82001 5.46006 1.86001 5.45006C1.86001 5.45006 1.85001 5.43006 1.85001 5.42006C1.83001 5.44006 1.80001 5.45006 1.78001 5.47006ZM2.18001 6.53006C2.18001 6.53006 2.17001 6.53006 2.16001 6.52006C2.16001 6.52006 2.16001 6.52006 2.16001 6.53006H2.18001ZM4.57001 3.84006C4.57001 3.84006 4.63001 3.86006 4.66001 3.86006C4.66001 3.86006 4.68001 3.86006 4.68001 3.85006C4.66001 3.85006 4.64001 3.85006 4.63001 3.83006C4.63001 3.83006 4.63001 3.83006 4.62001 3.82006C4.59001 3.83006 4.56001 3.84006 4.54001 3.86006C4.54001 3.86006 4.54001 3.86006 4.55001 3.86006C4.55001 3.86006 4.55001 3.84006 4.56001 3.84006H4.57001ZM6.89001 1.83006C6.89001 1.83006 6.91001 1.85006 6.91001 1.86006C6.91001 1.84006 6.90001 1.83006 6.90001 1.81006C6.90001 1.78006 6.93001 1.76006 6.94001 1.73006C6.94001 1.73006 6.94001 1.73006 6.94001 1.72006C6.91001 1.72006 6.87001 1.72006 6.84001 1.71006C6.84001 1.71006 6.83001 1.70006 6.82001 1.69006C6.80001 1.70006 6.78001 1.72006 6.75001 1.73006C6.75001 1.73006 6.73001 1.73006 6.72001 1.74006C6.74001 1.75006 6.75001 1.77006 6.77001 1.78006C6.81001 1.80006 6.85001 1.81006 6.88001 1.84006L6.89001 1.83006Z" fill="#26C8D2"/>
</g>
<defs>
<clipPath id="clip0_556_5214">
<rect width="8" height="8" fill="white"/>
</clipPath>
</defs>
</svg>
