<svg width="121" height="320" viewBox="0 0 121 320" fill="none" xmlns="http://www.w3.org/2000/svg">
<g clip-path="url(#clip0_644_5369)">
<path d="M86.1078 18.8028C83.1158 22.3338 82.1478 22.7752 81.1798 22.7752C79.9918 22.7752 79.1118 21.8483 79.1118 20.789C79.1118 20.2593 79.3318 19.6855 79.8598 19.2C84.1718 15.36 88.0438 10.0635 90.3758 4.06072C90.7718 3.08969 91.5638 2.64831 92.3558 2.64831C93.5438 2.64831 94.7758 3.5752 94.7758 4.8552C94.7758 6.1352 91.8718 10.858 90.4198 13.0649L89.9358 39.1062C89.8918 40.4304 88.7918 41.0924 87.6918 41.0924C86.5918 41.0924 85.5358 40.4745 85.5358 39.1945V39.1062L86.1078 18.8028ZM93.1478 39.2276C91.6518 39.2276 90.9478 38.2566 90.9478 37.2855C90.9478 36.3145 91.6958 35.3435 93.1478 35.3435L102.828 35.3876V26.1187L96.3598 26.1628C94.9518 26.1628 94.2038 25.1918 94.2038 24.2649C94.2038 23.338 94.9518 22.3669 96.3598 22.3669L102.828 22.4111V14.9959L95.4358 15.04C93.9838 15.04 93.2798 14.069 93.2798 13.1421C93.2798 12.2152 93.9838 11.2442 95.4358 11.2442H115.412C116.82 11.2442 117.524 12.2152 117.524 13.1862C117.524 14.1573 116.82 15.04 115.412 15.04L107.096 14.9959V22.4111L113.784 22.3669C115.192 22.3669 115.896 23.338 115.896 24.2649C115.896 25.1918 115.192 26.1628 113.784 26.1628L107.096 26.1187V35.3876L117.348 35.3435C118.668 35.3435 119.372 36.3587 119.372 37.3297C119.372 38.3007 118.712 39.2276 117.348 39.2276H93.1478ZM105.644 9.04831C104.06 7.4152 101.86 6.26762 100.452 5.73796C99.6598 5.429 99.3078 4.89934 99.3078 4.28141C99.3078 3.26624 100.364 2.11865 101.684 2.11865C102.52 2.11865 109.472 4.41382 109.472 7.28279C109.472 8.56279 108.372 9.75451 107.14 9.75451C106.656 9.75451 106.128 9.53382 105.644 9.04831Z" fill="#7D809B"/>
<path d="M98.2958 65.6442C101.596 65.7766 104.852 66.5269 107.844 67.5862C108.108 65.7766 107.932 64.1435 107.228 62.9517C105.996 60.8773 109.956 59.2 111.408 61.9366C112.376 63.7021 112.508 66.3504 111.848 69.2635C114.136 70.3669 116.204 71.691 117.92 73.0152C120.692 75.1779 117.7 79.2386 115.192 76.9435C113.74 75.6193 112.156 74.4276 110.396 73.3683C108.768 76.6786 105.996 79.989 102.036 82.3283C98.9558 84.1379 96.7558 80.6952 99.6158 78.9297C102.916 76.8993 105.204 74.1628 106.568 71.4704C103.312 70.1021 99.8358 69.3076 96.3158 69.2635C94.6878 72.6621 93.1918 75.3986 90.6838 77.3407C88.0438 79.4152 84.1718 79.68 82.2798 77.3407C80.0358 74.5159 81.6638 69.9255 86.7238 67.6745C89.0558 66.6593 91.5198 66.0414 93.9398 65.7766C95.4798 62.4662 97.5038 58.4497 98.7358 55.669C98.9998 55.051 99.1318 54.6979 98.4718 54.8745C96.7558 55.3159 95.0838 55.8897 93.2798 55.9338C90.3758 56.0221 90.5078 51.9172 93.1478 51.7407C94.9078 51.6524 97.5918 50.9904 99.4838 50.6372C103.488 49.8428 105.248 52.4469 103.268 55.669C101.42 58.7586 99.6598 62.3338 98.0758 65.6442H98.2958ZM87.9558 70.9407C86.8118 71.5145 84.7438 73.3683 85.4918 74.4717C86.0198 75.2221 87.6038 74.9573 88.3958 74.3393C89.8478 73.2359 91.0358 71.4262 92.0478 69.6166C90.9038 69.7931 89.5838 70.1462 87.9558 70.9407Z" fill="#7D809B"/>
<path d="M78.8921 108.668C78.8921 108.226 79.0241 107.741 79.3321 107.211C80.4321 105.401 81.0041 103.106 81.0041 100.855C81.0041 99.6193 81.8841 99.0455 82.8081 99.0455C83.0721 99.0455 84.8321 99.0897 84.8321 101.252C84.8321 103.724 83.5121 110.566 80.7841 110.566C79.7721 110.566 78.8921 109.771 78.8921 108.668ZM85.7121 92.2924C85.7121 90.9683 86.7241 90.3503 87.7801 90.3503C88.8361 90.3503 89.8921 91.0124 89.8921 92.2924V98.9131C90.2001 98.6924 90.6401 98.56 91.0361 98.56C92.6201 98.56 94.5121 102.312 94.5121 103.283C94.5121 104.474 93.5001 105.269 92.6201 105.269C92.0481 105.269 91.5201 104.96 91.3001 104.254C90.9481 103.106 90.3321 102.003 89.8921 101.297V127.338C89.8921 128.574 88.8361 129.192 87.7801 129.192C86.7241 129.192 85.7121 128.574 85.7121 127.338V92.3034V92.2924ZM110.352 122.428C110.44 122.472 110.484 122.516 110.572 122.56C112.068 123.531 114.972 124.546 117.48 124.767C118.712 124.855 119.284 125.782 119.284 126.709C119.284 127.768 118.536 128.872 117.26 128.872C115.148 128.872 107.58 126.312 107.58 124.017C107.58 123.399 107.976 122.781 108.504 122.472C107.492 122.472 106.436 122.516 105.424 122.516C104.412 122.516 103.4 122.472 102.344 122.472C102.96 122.781 103.4 123.443 103.4 124.149C103.4 124.634 103.18 125.164 102.652 125.561C100.364 127.415 95.6561 129.092 93.1921 129.092C91.8721 129.092 91.1241 128.077 91.1241 127.018C91.1241 126.135 91.6961 125.252 92.9721 125.12C95.5681 124.855 98.6921 123.884 100.496 122.648C100.628 122.56 100.76 122.472 100.892 122.428H99.7041C96.9321 122.383 95.7441 121.148 95.6561 118.764C95.6121 117.44 95.6121 115.851 95.6121 114.262C95.6121 112.673 95.6121 111.084 95.6561 109.804C95.7001 108.083 96.4921 106.361 99.6601 106.229C101.332 106.185 103.092 106.141 104.94 106.141C107.14 106.141 109.428 106.185 111.584 106.229C114.048 106.273 115.5 107.509 115.632 109.539C115.72 110.775 115.764 112.452 115.764 114.086C115.764 120.309 115.764 122.295 111.364 122.428H110.352ZM116.061 99.9283C116.017 100.237 116.017 100.59 115.973 100.855C115.665 103.239 114.477 104.519 111.441 104.607C109.197 104.651 107.129 104.695 105.149 104.695C96.8331 104.695 95.0291 104.695 95.0291 101.12V100.899C95.0291 100.634 95.0731 100.281 95.0731 99.9283H93.7091C92.6971 99.9283 92.2131 99.0897 92.2131 98.251C92.2131 97.4124 92.6971 96.5738 93.7091 96.5738H95.3371C95.6011 93.8372 95.8211 91.8952 100.089 91.7186C102.069 91.6303 104.093 91.6303 106.161 91.6303C108.229 91.6303 110.429 91.6303 112.673 91.7186C115.357 91.8069 116.413 93.2635 116.413 95.0731V95.1614C116.413 95.5586 116.369 96.0441 116.325 96.5738H118.217C119.273 96.5738 119.845 97.4124 119.845 98.2952C119.845 99.0897 119.317 99.9283 118.217 99.9283H116.061ZM103.708 99.531H98.8681V100.502C98.8681 101.782 98.9561 101.826 103.532 101.826L103.708 99.531ZM104.104 94.411C103.004 94.411 101.904 94.411 100.936 94.4552C99.3521 94.4993 99.3081 95.0731 99.0881 96.971H103.884L104.104 94.411ZM111.925 113.258H99.2531V115.2H111.925V113.258ZM111.837 110.08C111.837 108.844 110.737 108.844 105.193 108.844C100.045 108.844 99.4291 108.932 99.3411 110.212L99.2971 110.786H111.881L111.837 110.08ZM99.3081 117.672C99.3081 118.025 99.3521 118.334 99.3521 118.643C99.3961 119.702 99.5721 119.879 105.556 119.879C111.012 119.879 111.76 119.879 111.848 118.51C111.848 118.246 111.892 117.937 111.892 117.672H99.3081ZM107.316 99.531L107.14 101.826C108.284 101.826 109.428 101.826 110.528 101.782C111.936 101.738 112.024 101.297 112.288 99.531H107.316ZM112.508 96.971C112.552 96.5297 112.552 96.0883 112.552 95.7793C112.552 94.4552 112.508 94.411 107.668 94.411L107.492 96.971H112.508Z" fill="#7D809B"/>
<path d="M87.8679 166.312C85.8879 169.799 81.4439 167.106 83.8639 164.237C83.9959 164.061 84.1279 163.928 84.2159 163.84C86.1519 161.192 89.0119 157.352 90.7719 153.997C90.8599 153.115 90.9039 152.276 90.9919 151.393C89.9799 151.746 88.7479 152.276 87.6479 152.982C84.6119 154.924 83.2479 150.599 85.6239 149.495C87.2079 148.745 89.3199 147.862 91.3879 147.068C91.6959 143.757 92.0479 140.8 92.2679 138.858C92.6199 135.945 96.7559 136.872 96.3159 139.299C96.0079 140.888 95.6999 143.095 95.3919 145.655C96.7999 145.479 98.0319 146.803 97.3719 148.877C97.8999 148.392 98.4279 147.906 98.9119 147.509C105.732 141.904 112.112 142.301 111.54 151.084C111.364 153.733 110.66 158.411 110.44 160.927C110 165.959 112.596 165.429 115.544 162.295C117.788 159.912 120.56 163.134 118.712 165.208C113.124 171.344 105.248 170.637 106.26 160.883C106.48 158.544 107.272 153.777 107.404 151.128C107.536 147.995 106.876 145.611 100.716 150.731C98.6039 152.497 96.5359 154.086 94.4239 156.469C94.1599 161.368 94.2039 166.224 94.7759 169.578C95.3039 172.624 90.6839 173.639 90.3319 169.931C90.1559 167.989 90.1559 165.076 90.2879 161.766C89.3639 163.355 88.5719 165.032 87.8679 166.312Z" fill="#7D809B"/>
<path d="M88.704 213.561C87.384 216.519 82.72 215.239 84.568 211.487C86.46 207.603 89.584 200.894 92.268 192.331C89.936 192.596 87.692 192.508 85.844 191.713C83.6 190.742 84.04 186.726 87.34 187.917C89.188 188.579 91.344 188.579 93.412 188.182C93.676 186.549 93.5 185.357 93.368 183.415C93.192 180.899 97.328 180.767 97.768 183.195C97.944 184.298 97.944 185.49 97.812 186.726C98.428 186.417 98.956 186.108 99.484 185.799C101.772 184.298 104.5 187.961 101.2 189.595C99.968 190.212 98.384 190.875 96.756 191.36C93.984 201.026 90.86 208.662 88.704 213.561ZM99.396 211.575C97.504 209.457 100.232 205.97 102.52 208.309C104.764 210.604 107.448 210.383 112.596 209.942C115.808 209.677 116.072 213.915 113.168 214.488C106.788 215.768 101.332 213.738 99.396 211.575ZM104.368 196.171C102.08 197.01 100.716 193.39 103.62 192.375C105.864 191.581 109.868 191.051 114.18 192.596C117.128 193.655 115.94 197.539 113.168 196.612C110.704 195.774 106.7 195.288 104.368 196.171Z" fill="#7D809B"/>
<path d="M107.8 232.21H100.452C100.496 234.019 100.496 236.138 100.496 238.256C100.496 242.141 100.452 246.025 100.364 248.32C100.276 250.703 98.5161 252.69 95.7881 252.866C94.2481 252.954 92.5761 253.043 90.9481 253.043C89.3201 253.043 87.7361 252.954 86.2401 252.866C83.2921 252.645 81.8401 250.88 81.7521 248.364C81.7081 246.069 81.6641 242.317 81.6641 238.565C81.6641 234.814 81.7081 231.062 81.7521 228.767C81.7961 226.692 83.0281 224.618 86.2841 224.441C87.8681 224.353 89.4521 224.353 91.0361 224.353C92.6201 224.353 94.2481 224.353 95.7881 224.441C98.5601 224.574 100.232 226.207 100.364 228.325H116.952C118.36 228.325 119.064 229.296 119.064 230.267C119.064 231.239 118.36 232.21 116.908 232.21H112.068V248.629L112.156 255.117V255.205C112.156 257.898 110.176 261.252 104.676 261.252C99.1761 261.252 98.9561 259.619 98.9561 258.604C98.9561 257.589 99.7481 256.485 101.024 256.485C101.244 256.485 101.464 256.53 101.728 256.574C102.696 256.839 103.708 257.015 104.632 257.015C106.392 257.015 107.8 256.353 107.8 254.279V232.21ZM89.1001 227.84C86.6361 227.84 85.6681 228.016 85.5801 229.738C85.5361 231.194 85.4481 233.534 85.4481 236.05H89.1001V227.84ZM89.1001 239.492H85.4481C85.4481 242.67 85.4921 245.76 85.5801 247.614C85.6241 248.805 86.2841 249.335 87.4721 249.379C88.0001 249.379 88.5281 249.423 89.1001 249.423V239.492ZM96.7121 236.05C96.7121 233.49 96.7121 231.194 96.6681 229.782C96.6241 228.016 95.9201 227.84 92.9281 227.84V236.05H96.7121ZM92.9281 239.492V249.468C95.1721 249.468 96.6241 249.291 96.6681 247.525C96.7121 245.76 96.7121 242.67 96.7121 239.492H92.9281Z" fill="#7D809B"/>
<path d="M95.4359 282.494C95.8759 281.655 96.2719 280.949 96.8439 280.199C97.5479 279.272 97.3279 279.316 96.4919 279.581C93.1919 280.64 93.9399 280.64 90.9479 281.788C89.5399 282.317 88.3079 282.759 86.9879 283.112C83.1159 284.171 81.9279 279.095 85.4479 278.345C86.3719 278.124 88.9239 277.639 90.3319 277.285C92.4879 276.756 96.3599 275.873 100.848 274.593C105.38 273.313 108.944 272.254 112.816 271.989C115.544 271.812 116.292 273.975 115.808 275.388C115.544 276.138 114.576 277.021 111.496 276.844C109.252 276.712 106.48 277.55 104.984 278.08C102.52 278.963 100.276 281.611 99.3079 283.244C95.4359 289.732 98.3839 299.001 108.24 298.648C112.86 298.472 113.168 303.68 108.504 303.636C95.2159 303.592 90.6399 291.365 95.4359 282.494ZM108.988 285.407C106.656 284.392 108.416 281.655 110.572 282.45C111.804 282.891 114.18 284.127 115.192 285.23C116.996 287.172 114.268 289.997 112.728 288.188C112.112 287.481 109.912 285.804 108.988 285.407ZM113.432 281.567C111.056 280.64 112.772 277.815 114.928 278.521C116.16 278.919 118.536 280.11 119.592 281.17C121.44 283.023 118.844 285.937 117.26 284.171C116.644 283.465 114.356 281.92 113.432 281.567Z" fill="#7D809B"/>
<path d="M115.181 318.499C114.081 316.866 111.661 314.836 109.769 313.865C108.933 313.423 108.581 312.761 108.581 312.099C108.581 311.084 109.373 310.157 110.649 310.157C112.189 310.157 119.229 314.041 119.229 317.043C119.229 318.455 118.041 319.47 116.853 319.47C116.237 319.47 115.621 319.161 115.181 318.499Z" fill="#7D809B"/>
<path d="M14.1679 26.9462C12.6279 22.6648 15.0039 19.4869 17.6879 18.6483C18.9639 18.251 20.2839 18.0745 21.4719 18.251C21.4279 17.28 21.3839 15.9559 21.3399 14.6759C17.6439 15.029 13.9919 15.5586 11.7039 15.9117C8.53592 16.3972 6.46792 16.971 5.14792 17.1917C2.19992 17.7214 1.31992 13.3076 4.79592 12.7338C6.55592 12.4248 9.41592 12.1159 11.2639 11.8069C13.4639 11.4538 17.4239 10.9683 21.2959 10.6152V9.82068C21.3399 7.08413 21.0759 6.90758 21.0759 5.49516C21.0759 2.2731 25.5199 2.58206 25.6959 5.36275C25.7399 6.37792 25.6079 8.40827 25.5199 9.59999C25.5199 9.82068 25.4759 10.0414 25.4759 10.2621C26.7519 10.1738 27.8959 10.1296 28.8639 10.1296C31.0199 10.1296 32.5599 10.0855 35.5519 10.1296C39.2479 10.2179 39.0719 14.8965 35.5519 14.6317C32.4279 14.3669 31.3719 14.3669 28.6439 14.3227C27.6319 14.3227 26.5759 14.3669 25.4319 14.411C25.4759 15.8234 25.5199 17.1917 25.5199 18.4717C25.5199 19.0896 25.6079 20.0165 25.6519 20.9876C29.5679 27.1669 24.9039 36.5241 20.2399 40.2758C17.2919 42.6152 13.4639 39.4814 17.2919 36.7448C19.4039 35.2441 21.2519 32.7724 22.3079 30.2565C19.4039 31.7572 15.5759 30.9186 14.1679 26.9462ZM21.5599 22.3117C20.9439 21.7821 19.6679 21.6938 18.7439 22.1352C17.6879 22.6207 16.9839 23.989 17.4679 25.4896C18.2599 27.8731 22.0879 27.8731 22.5279 24.7393C22.6599 23.8124 22.5279 23.4152 22.2639 23.0621C22.0439 22.7972 21.8239 22.5324 21.5599 22.3117ZM32.1639 8.54068C31.7239 7.7462 29.8759 5.89241 29.0839 5.36275C27.0599 4.03861 29.1719 1.6993 31.0639 2.80275C32.1199 3.42068 34.1439 5.00965 34.9359 6.20137C36.2999 8.31999 33.3079 10.4827 32.1639 8.54068ZM37.5209 5.98068C36.7729 5.23034 35.1449 3.33241 34.3089 2.84689C32.2409 1.61103 34.2649 -0.772422 36.2009 0.24275C37.3009 0.816543 39.3689 2.36137 40.2049 3.50896C41.6569 5.58344 39.1049 7.56965 37.5209 5.98068Z" fill="#7D809B"/>
<path d="M22.7479 76.7006C21.2519 76.7006 20.5039 75.7296 20.5039 74.7144C20.5039 73.6992 21.2079 72.7723 22.5719 72.5516C32.6919 71.0951 34.0999 66.0634 34.0999 64.7392C34.0999 62.6647 32.2079 60.7668 28.5559 60.7668C27.3679 60.7668 26.1359 60.9875 25.0359 61.2965C21.8679 62.2675 19.0079 64.033 16.0159 65.4013C15.5759 65.622 15.1799 65.7103 14.7839 65.7103C13.5079 65.7103 12.6719 64.6068 12.6719 63.5475C12.6719 62.753 13.1119 61.9585 14.1239 61.5172C16.9399 60.3696 20.7679 58.6041 24.2439 57.7213C25.5639 57.4123 27.0599 57.1917 28.5559 57.1917C34.4079 57.1917 38.1919 60.811 38.1919 64.8716C38.1919 67.4758 36.6959 70.0358 34.2759 72.0661C29.4799 76.0827 23.1439 76.7006 22.7479 76.7006Z" fill="#7D809B"/>
<path d="M11.6598 98.4716C9.37184 95.6468 13.6838 93.2634 15.4438 95.7792C17.3358 98.4716 19.3158 102.4 20.5918 106.063C22.9678 104.386 25.4758 102.797 28.3358 101.208C31.3278 99.5309 33.6158 103.768 30.2278 105.49C25.7398 107.785 21.2078 110.345 17.7318 113.302C13.3758 117.01 13.2438 120.32 16.6758 121.997C19.7558 123.542 26.0478 122.394 28.6878 121.423C32.3838 120.011 33.7038 125.087 29.7878 126.19C26.3118 127.161 18.9638 128.044 14.6078 125.837C8.27184 122.615 8.53584 115.465 15.6638 109.771C16.1038 109.418 16.4998 109.065 16.9398 108.756C15.7958 105.269 13.6838 100.943 11.6598 98.4716Z" fill="#7D809B"/>
<path d="M3.2121 173.098C1.8041 173.098 1.1001 171.994 1.1001 170.891C1.1001 170.008 1.5401 169.17 2.4641 168.949C11.3961 166.698 13.3321 159.901 13.7721 153.986C13.8601 152.618 14.7841 152.088 15.7961 152.088C16.9401 152.088 18.2161 152.883 18.2161 154.119V154.295C17.5561 161.313 14.7401 170.096 4.0921 172.965C3.7841 173.054 3.4761 173.098 3.2121 173.098ZM36.8171 151.525L26.0811 151.393C26.0371 155.365 25.9051 163.045 25.9051 165.65C25.9051 167.283 25.9051 168.43 29.6891 168.43C32.4171 168.43 34.6611 167.901 34.6611 164.061C34.6611 162.604 35.6731 161.986 36.7291 161.986C36.9931 161.986 39.1051 162.03 39.1051 164.325C39.1051 172.314 32.4611 172.403 29.0291 172.403C24.8491 172.403 21.6811 171.652 21.6811 167.15C21.6811 165.738 21.7251 155.983 21.8131 151.393C18.8211 151.393 15.1251 151.393 3.8611 151.525H3.8171C2.4971 151.525 1.7931 150.51 1.7931 149.495C1.7931 148.48 2.4971 147.465 3.8611 147.465H36.8171C38.1371 147.465 38.7971 148.48 38.7971 149.539C38.7971 150.51 38.1811 151.525 36.8611 151.525H36.8171ZM8.5801 141.33C7.2161 141.33 6.5561 140.314 6.5561 139.299C6.5561 138.284 7.2161 137.313 8.5801 137.313H31.8121C33.1761 137.313 33.8801 138.328 33.8801 139.343C33.8801 140.359 33.2201 141.33 31.8121 141.33H8.5801Z" fill="#7D809B"/>
<path d="M5.06013 216.971C3.82813 216.971 3.03613 215.956 3.03613 214.941C3.03613 214.234 3.43213 213.528 4.35613 213.131C7.83213 211.63 10.7801 209.688 13.3761 207.172C12.0121 206.378 10.6041 205.672 9.32813 205.054C8.53613 204.656 8.18413 204.039 8.18413 203.376C8.18413 202.405 9.02013 201.39 10.1641 201.39C11.0881 201.39 14.4321 203.244 16.0601 204.215C17.2921 202.714 18.4361 201.037 19.5801 199.183C20.0201 198.477 20.6361 198.168 21.2961 198.168C22.3961 198.168 23.4961 199.095 23.4961 200.287C23.4961 200.64 23.4081 201.655 19.4481 206.334C24.1561 209.512 24.5081 210.836 24.5081 211.586C24.5081 212.866 23.4521 213.97 22.3081 213.97C21.7801 213.97 21.2081 213.705 20.7241 213.131C19.6241 211.807 18.2161 210.527 16.6761 209.379C10.7361 215.338 5.80813 216.971 5.06013 216.971ZM12.3201 186.041C8.22813 192.397 6.77613 192.618 6.07213 192.618C4.92813 192.618 3.91613 191.779 3.91613 190.764C3.91613 190.279 4.13613 189.793 4.66413 189.307C7.83213 186.527 9.81213 182.51 11.3081 179.156C11.6601 178.405 12.3201 178.096 13.0241 178.096C14.1681 178.096 15.3561 178.935 15.3561 180.083C15.3561 180.392 15.3121 180.833 14.4761 182.334L34.0121 182.29C35.2881 182.29 35.9481 183.216 35.9481 184.143C35.9481 185.07 35.2881 186.041 33.9681 186.041H12.3201ZM7.08413 197.076C5.94013 197.076 5.32413 196.193 5.32413 195.31C5.32413 194.427 5.94013 193.545 7.08413 193.545H28.1161C30.5361 193.589 32.9121 195.09 32.9121 197.782C32.9121 198.885 32.8241 200.474 32.8241 202.284C32.8241 209.92 35.3321 212.039 35.7281 212.039C36.2561 212.039 36.7401 211.023 37.0481 208.552C37.1801 207.448 38.0161 206.963 38.8521 206.963C39.9081 206.963 41.0081 207.669 41.0081 208.993C41.0081 211.421 39.2481 216.673 35.6401 216.673C34.7161 216.673 28.6441 216.364 28.6441 199.547C28.6441 198.356 28.6441 197.076 26.7081 197.076H7.08413ZM12.7161 191.338C11.5721 191.338 11.0001 190.543 11.0001 189.749C11.0001 188.91 11.5721 188.116 12.7161 188.116H30.3601C31.5041 188.116 32.0321 188.91 32.0321 189.705C32.0321 190.543 31.5041 191.338 30.3601 191.338H12.7161Z" fill="#7D809B"/>
<path d="M7.6119 257.721C4.0919 249.026 7.5679 235.961 8.3599 230.709C8.8439 227.443 13.1119 228.414 12.6279 230.974C11.9239 234.549 9.2839 244.921 10.3399 249.026C10.4719 249.6 10.6479 249.468 10.8239 249.07C10.9119 248.85 11.3959 247.967 11.5719 247.658C12.9359 245.495 15.6639 247.614 14.6519 249.379C13.0239 252.248 12.3199 254.279 12.0559 255.559C11.7919 256.75 12.3199 258.119 11.2199 259.09C10.1199 260.061 8.4919 259.884 7.6119 257.721ZM19.4039 254.588C17.5999 252.601 20.2399 249.468 22.5279 251.542C24.9039 253.705 30.1839 252.999 33.6159 252.292C37.1799 251.542 37.3999 256.221 34.4959 256.971C29.7879 258.163 22.5719 258.03 19.4039 254.588ZM21.9119 236.977C19.4919 237.594 18.0839 233.666 21.2959 232.872C25.2119 231.901 29.7879 231.857 32.8679 232.607C35.9479 233.357 35.1119 237.506 32.1199 236.844C28.9519 236.182 25.6079 236.05 21.9119 236.977Z" fill="#7D809B"/>
</g>
<defs>
<clipPath id="clip0_644_5369">
<rect width="121" height="320" fill="white"/>
</clipPath>
</defs>
</svg>
