<svg width="16" height="16" viewBox="0 0 16 16" fill="none" xmlns="http://www.w3.org/2000/svg">
<g clip-path="url(#clip0_143_1282)">
<path d="M11.496 2.51203C11.496 2.51203 11.512 2.52803 11.512 2.53603C11.512 2.54403 11.512 2.56003 11.512 2.56803C11.512 2.57603 11.496 2.58403 11.488 2.59203C11.488 2.60003 11.48 2.60803 11.472 2.61603C11.472 2.61603 11.456 2.61603 11.448 2.62403C11.44 2.62403 11.432 2.64003 11.424 2.64003C11.416 2.64003 11.4 2.64003 11.392 2.64003C11.384 2.64003 11.376 2.62403 11.368 2.62403C11.36 2.62403 11.344 2.62403 11.336 2.61603C11.336 2.61603 11.336 2.59203 11.328 2.58403C11.32 2.57603 11.32 2.56803 11.32 2.55203C11.32 2.54403 11.32 2.52803 11.32 2.52003C11.32 2.51203 11.32 2.50403 11.336 2.49603C11.336 2.48803 11.336 2.47203 11.352 2.47203C11.352 2.47203 11.376 2.47203 11.384 2.47203C11.392 2.47203 11.4 2.44803 11.408 2.44803C11.416 2.44803 11.424 2.46403 11.44 2.46403C11.448 2.46403 11.464 2.45603 11.472 2.46403C11.48 2.46403 11.48 2.48803 11.488 2.49603C11.488 2.49603 11.488 2.51203 11.496 2.52003V2.51203ZM12.552 2.80803C12.552 2.80803 12.624 2.79203 12.648 2.80003C12.68 2.80003 12.704 2.83203 12.736 2.83203C12.768 2.83203 12.792 2.80003 12.816 2.79203C12.84 2.77603 12.872 2.76803 12.888 2.74403C12.912 2.72003 12.92 2.69603 12.936 2.67203C12.952 2.64803 12.952 2.61603 12.96 2.58403C12.96 2.55203 12.992 2.52803 12.992 2.49603C12.992 2.46403 12.944 2.44803 12.936 2.42403C12.92 2.40003 12.936 2.36003 12.912 2.33603C12.888 2.31203 12.864 2.29603 12.84 2.28003C12.816 2.26403 12.784 2.28003 12.752 2.28003C12.72 2.28003 12.696 2.25603 12.672 2.26403C12.64 2.26403 12.616 2.27203 12.592 2.28803C12.568 2.30403 12.52 2.28803 12.504 2.31203C12.48 2.33603 12.472 2.36803 12.464 2.40003C12.448 2.42403 12.464 2.46403 12.464 2.48803C12.464 2.52003 12.44 2.54403 12.448 2.56803C12.448 2.60003 12.424 2.64003 12.44 2.66403C12.456 2.68803 12.504 2.68803 12.528 2.71203C12.552 2.73603 12.544 2.79203 12.568 2.80803H12.552ZM14.64 5.48803C14.64 5.48803 14.64 5.47203 14.64 5.46403C14.64 5.46403 14.624 5.46403 14.624 5.45603C14.624 5.45603 14.608 5.45603 14.608 5.44803C14.608 5.44803 14.592 5.44803 14.584 5.44803H14.568C14.568 5.44803 14.552 5.44803 14.544 5.44803C14.544 5.44803 14.544 5.46403 14.544 5.47203C14.544 5.47203 14.536 5.48003 14.528 5.48803C14.528 5.48803 14.528 5.50403 14.528 5.51203C14.528 5.51203 14.528 5.52003 14.536 5.52803V5.54403C14.536 5.54403 14.544 5.55203 14.552 5.56003C14.552 5.56003 14.56 5.57603 14.568 5.57603C14.568 5.57603 14.584 5.57603 14.592 5.57603C14.592 5.57603 14.6 5.56803 14.608 5.56803H14.624C14.624 5.56803 14.64 5.56803 14.648 5.56003C14.648 5.56003 14.648 5.54403 14.648 5.53603C14.648 5.52803 14.664 5.52003 14.664 5.51203L14.648 5.49603L14.64 5.48803ZM14.824 7.04003C14.824 7.04003 14.824 7.04003 14.816 7.03203C14.816 7.03203 14.816 7.02403 14.808 7.02403C14.808 7.02403 14.8 7.02403 14.792 7.02403C14.792 7.02403 14.784 7.02403 14.776 7.02403C14.768 7.02403 14.768 7.02403 14.768 7.02403V7.03203C14.768 7.03203 14.768 7.03203 14.768 7.04003C14.768 7.04003 14.768 7.04803 14.768 7.05603C14.768 7.05603 14.768 7.06403 14.768 7.07203C14.768 7.07203 14.768 7.07203 14.776 7.08003C14.776 7.08003 14.784 7.08003 14.792 7.08003C14.792 7.08003 14.792 7.08003 14.8 7.08003C14.8 7.08003 14.808 7.08003 14.816 7.08003C14.816 7.08003 14.816 7.08003 14.832 7.07203C14.832 7.07203 14.84 7.07203 14.848 7.07203C14.848 7.07203 14.848 7.06403 14.848 7.05603C14.848 7.05603 14.856 7.05603 14.856 7.04803C14.856 7.04803 14.856 7.04003 14.856 7.03203C14.856 7.03203 14.856 7.02403 14.856 7.01603C14.856 7.00803 14.856 7.00803 14.856 7.00803L14.824 7.04003ZM15.92 8.25603C15.92 8.33603 16.016 8.41603 15.992 8.48803C15.976 8.56003 15.888 8.60803 15.84 8.67203C15.8 8.73603 15.768 8.80003 15.712 8.84803C15.656 8.89603 15.6 8.94403 15.528 8.97603C15.456 9.00803 15.384 9.01603 15.312 9.01603C15.288 9.01603 15.264 9.01603 15.24 9.03203C15.24 9.03203 15.24 9.04803 15.248 9.04803C15.28 9.08003 15.352 9.08003 15.368 9.12003C15.384 9.16003 15.368 9.21603 15.368 9.26403C15.368 9.31203 15.384 9.35203 15.376 9.39203C15.376 9.44003 15.36 9.48003 15.336 9.52003C15.312 9.56003 15.28 9.59203 15.248 9.62403C15.216 9.65603 15.192 9.70403 15.152 9.72803C15.112 9.75203 15.056 9.72003 15.008 9.72803C14.96 9.72803 14.912 9.80003 14.872 9.79203C14.832 9.79203 14.808 9.69603 14.768 9.67203C14.728 9.64803 14.648 9.67203 14.616 9.64803C14.584 9.61603 14.6 9.54403 14.576 9.50403C14.56 9.46403 14.568 9.41603 14.56 9.37603C14.56 9.32803 14.512 9.28803 14.52 9.24803V9.23203C14.456 9.23203 14.4 9.23203 14.336 9.22403C14.336 9.23203 14.336 9.24003 14.336 9.25603C14.336 9.27203 14.328 9.28803 14.32 9.30403C14.32 9.32003 14.32 9.33603 14.32 9.35203C14.312 9.36803 14.304 9.37603 14.288 9.39203C14.272 9.40003 14.256 9.39203 14.24 9.40003C14.224 9.40003 14.216 9.43203 14.2 9.43203C14.184 9.43203 14.168 9.41603 14.152 9.41603C14.136 9.43203 14.128 9.44803 14.112 9.46403C14.096 9.48803 14.08 9.51203 14.064 9.53603C14.096 9.55203 14.128 9.56803 14.168 9.57603C14.2 9.58403 14.24 9.57603 14.272 9.57603C14.272 9.57603 14.264 9.56803 14.264 9.56003C14.264 9.54403 14.288 9.54403 14.296 9.52803C14.296 9.51203 14.296 9.49603 14.296 9.48803C14.304 9.48003 14.328 9.48803 14.336 9.47203C14.344 9.47203 14.36 9.47203 14.376 9.47203C14.392 9.47203 14.4 9.45603 14.416 9.45603C14.432 9.45603 14.448 9.45603 14.456 9.45603C14.464 9.45603 14.472 9.48003 14.48 9.48803C14.488 9.49603 14.496 9.50403 14.504 9.52003C14.504 9.52803 14.504 9.54403 14.504 9.56003C14.504 9.57603 14.52 9.58403 14.512 9.60003C14.512 9.61603 14.512 9.62403 14.504 9.64003C14.496 9.65603 14.48 9.65603 14.472 9.66403C14.496 9.68003 14.528 9.69603 14.544 9.72003C14.584 9.77603 14.56 9.87203 14.584 9.93603C14.608 10 14.616 10.064 14.624 10.128C14.624 10.152 14.624 10.168 14.608 10.184C14.616 10.184 14.64 10.184 14.64 10.2C14.672 10.256 14.632 10.336 14.64 10.4C14.64 10.416 14.64 10.432 14.64 10.448C14.64 10.448 14.656 10.448 14.656 10.456C14.712 10.504 14.704 10.6 14.736 10.664C14.768 10.728 14.896 10.76 14.912 10.832C14.928 10.904 14.816 10.984 14.808 11.056C14.808 11.128 14.888 11.224 14.856 11.288C14.824 11.352 14.72 11.376 14.672 11.432C14.624 11.488 14.56 11.496 14.496 11.528C14.432 11.568 14.4 11.648 14.336 11.664C14.272 11.68 14.192 11.728 14.12 11.72C14.048 11.72 13.992 11.624 13.928 11.6C13.912 11.6 13.904 11.584 13.888 11.576C13.832 11.576 13.76 11.56 13.72 11.576C13.656 11.6 13.616 11.72 13.552 11.728C13.52 11.728 13.48 11.712 13.448 11.688C13.448 11.712 13.448 11.728 13.448 11.752C13.448 11.792 13.472 11.84 13.448 11.88C13.432 11.92 13.416 11.96 13.384 11.992C13.352 12.024 13.304 12.024 13.264 12.048C13.224 12.072 13.216 12.136 13.168 12.152C13.128 12.16 13.08 12.128 13.04 12.128C13 12.128 12.96 12.128 12.912 12.112C12.872 12.096 12.832 12.08 12.8 12.056C12.784 12.048 12.784 12.032 12.768 12.024C12.76 12.024 12.752 12.024 12.744 12.024C12.696 12.024 12.648 12.024 12.6 12C12.6 12.016 12.6 12.032 12.6 12.04C12.592 12.088 12.536 12.112 12.512 12.152C12.488 12.192 12.464 12.224 12.432 12.248C12.4 12.28 12.36 12.28 12.32 12.296C12.28 12.312 12.248 12.36 12.208 12.36C12.2 12.36 12.184 12.36 12.176 12.36C12.176 12.36 12.176 12.376 12.176 12.384C12.176 12.408 12.176 12.44 12.16 12.464C12.144 12.488 12.128 12.504 12.104 12.52C12.08 12.536 12.048 12.52 12.024 12.536C12 12.544 11.976 12.584 11.952 12.584C11.928 12.584 11.904 12.56 11.88 12.552C11.864 12.552 11.848 12.552 11.832 12.552C11.816 12.552 11.8 12.536 11.792 12.52C11.784 12.512 11.784 12.496 11.776 12.488C11.768 12.488 11.76 12.472 11.752 12.464C11.752 12.464 11.752 12.448 11.744 12.44C11.744 12.44 11.728 12.44 11.72 12.44C11.68 12.424 11.664 12.352 11.632 12.32C11.6 12.288 11.592 12.248 11.568 12.208C11.544 12.168 11.496 12.152 11.488 12.104C11.48 12.064 11.448 12.016 11.456 11.968C11.456 11.92 11.512 11.888 11.528 11.848C11.544 11.808 11.568 11.776 11.6 11.744C11.616 11.72 11.64 11.72 11.664 11.704C11.648 11.688 11.624 11.68 11.608 11.672C11.56 11.648 11.496 11.656 11.464 11.616C11.432 11.576 11.368 11.552 11.344 11.496C11.32 11.44 11.352 11.376 11.344 11.328C11.344 11.272 11.344 11.232 11.344 11.176C11.352 11.128 11.392 11.096 11.416 11.048C11.44 11 11.44 10.944 11.472 10.904C11.512 10.872 11.552 10.84 11.6 10.816C11.632 10.8 11.664 10.808 11.696 10.816C11.728 10.776 11.784 10.752 11.824 10.72C11.864 10.672 11.864 10.576 11.92 10.544C11.936 10.544 11.944 10.544 11.96 10.544C11.944 10.52 11.928 10.488 11.92 10.456C11.92 10.416 11.96 10.384 11.968 10.352C11.976 10.32 11.992 10.288 12.008 10.256C12.024 10.224 12.064 10.216 12.088 10.192C12.104 10.176 12.12 10.152 12.144 10.136C12.104 10.088 12.112 10 12.08 9.94403C12.048 9.88003 12.016 9.83203 12.008 9.76003C12 9.69603 11.992 9.63203 12.008 9.56003C12.016 9.50403 12.04 9.45603 12.064 9.40803C12.064 9.40803 12.048 9.40003 12.048 9.39203C12.04 9.38403 12.032 9.36803 12.032 9.36003C11.984 9.34403 11.936 9.33603 11.904 9.29603C11.864 9.25603 11.84 9.20003 11.816 9.14403C11.792 9.08803 11.832 9.02403 11.832 8.96803C11.832 8.91203 11.76 8.84803 11.776 8.79203C11.792 8.73603 11.856 8.70403 11.888 8.64803C11.92 8.60003 11.936 8.55203 11.984 8.51203C12.024 8.47203 12.072 8.44003 12.12 8.41603C12.176 8.39203 12.232 8.38403 12.288 8.38403C12.344 8.38403 12.408 8.35203 12.464 8.36803C12.464 8.36003 12.464 8.34403 12.464 8.33603C12.448 8.30403 12.384 8.29603 12.376 8.25603C12.368 8.22403 12.4 8.17603 12.408 8.14403C12.408 8.11203 12.432 8.08003 12.448 8.04803C12.464 8.01603 12.448 7.96803 12.472 7.94403C12.496 7.92003 12.512 7.88003 12.536 7.85603C12.536 7.85603 12.52 7.85603 12.512 7.85603C12.504 7.85603 12.488 7.85603 12.48 7.85603C12.472 7.85603 12.464 7.84803 12.456 7.84003C12.456 7.83203 12.456 7.81603 12.456 7.80803C12.456 7.80003 12.44 7.79203 12.44 7.78403C12.44 7.77603 12.448 7.76803 12.448 7.75203C12.424 7.75203 12.4 7.76803 12.376 7.76003C12.344 7.75203 12.296 7.75203 12.272 7.72803C12.272 7.72803 12.272 7.71203 12.264 7.70403C12.264 7.70403 12.264 7.71203 12.256 7.71203C12.256 7.71203 12.256 7.71203 12.24 7.72003C12.24 7.72003 12.232 7.72003 12.224 7.72003C12.224 7.72003 12.216 7.72003 12.208 7.72003C12.208 7.72003 12.208 7.72003 12.2 7.71203H12.184V7.69603C12.184 7.69603 12.176 7.68803 12.176 7.68003C12.176 7.68003 12.176 7.67203 12.176 7.66403C12.176 7.66403 12.176 7.66403 12.184 7.65603C12.184 7.65603 12.184 7.64803 12.184 7.64003C12.184 7.64003 12.184 7.63203 12.192 7.63203C12.192 7.63203 12.2 7.63203 12.208 7.63203C12.184 7.60003 12.176 7.57603 12.16 7.54403C12.152 7.51203 12.16 7.48003 12.16 7.44003C12.16 7.40803 12.136 7.36803 12.152 7.33603C12.152 7.32803 12.16 7.31203 12.168 7.30403C12.16 7.30403 12.152 7.30403 12.144 7.30403C12.08 7.28803 12.056 7.21603 12 7.18403C11.984 7.17603 11.952 7.16803 11.928 7.16803C11.912 7.16803 11.896 7.16803 11.88 7.16803C11.864 7.16803 11.848 7.16003 11.832 7.15203C11.816 7.15203 11.792 7.14403 11.784 7.12803C11.768 7.11203 11.776 7.08803 11.768 7.07203C11.76 7.05603 11.728 7.04803 11.728 7.03203C11.728 7.01603 11.752 6.99203 11.752 6.97603C11.752 6.96003 11.736 6.93603 11.744 6.92003C11.744 6.91203 11.76 6.91203 11.768 6.90403C11.744 6.85603 11.72 6.80803 11.72 6.75203C11.72 6.68803 11.712 6.63203 11.72 6.56803C11.728 6.50403 11.768 6.44803 11.8 6.40003C11.832 6.34403 11.848 6.27203 11.896 6.23203C11.944 6.19203 12.032 6.20803 12.088 6.18403C12.144 6.16003 12.192 6.05603 12.256 6.04803C12.256 6.04803 12.272 6.05603 12.28 6.06403C12.256 6.01603 12.232 5.96803 12.24 5.92003C12.248 5.85603 12.24 5.76803 12.264 5.70403C12.264 5.70403 12.264 5.70403 12.272 5.70403C12.272 5.68003 12.272 5.66403 12.28 5.64803C12.304 5.60803 12.368 5.60003 12.4 5.56803C12.432 5.53603 12.44 5.45603 12.48 5.44003C12.496 5.44003 12.512 5.44003 12.536 5.44803C12.536 5.43203 12.544 5.41603 12.552 5.40803C12.568 5.39203 12.6 5.38403 12.632 5.37603C12.616 5.34403 12.6 5.30403 12.576 5.28003C12.568 5.28803 12.552 5.29603 12.544 5.30403C12.52 5.33603 12.496 5.35203 12.472 5.37603C12.44 5.40003 12.408 5.39203 12.376 5.40003C12.344 5.40803 12.312 5.44003 12.28 5.44003C12.264 5.46403 12.256 5.48803 12.24 5.50403C12.184 5.56003 12.128 5.60003 12.064 5.64003C12.032 5.65603 12.008 5.68003 11.984 5.69603C11.968 5.72003 11.96 5.75203 11.936 5.77603C11.888 5.82403 11.832 5.85603 11.776 5.88003C11.72 5.91203 11.664 5.96803 11.6 5.97603C11.536 5.98403 11.472 5.92003 11.408 5.91203C11.344 5.90403 11.248 5.96803 11.192 5.94403C11.136 5.91203 11.144 5.78403 11.096 5.74403C11.048 5.69603 10.928 5.70403 10.904 5.64803C10.872 5.59203 10.92 5.49603 10.912 5.43203C10.904 5.36803 10.936 5.31203 10.944 5.24803C10.952 5.18403 10.912 5.11203 10.944 5.05603C10.976 5.00003 10.984 4.92003 11.032 4.87203C11.032 4.87203 11.048 4.87203 11.064 4.86403C11.056 4.81603 11.048 4.76003 11.064 4.71203C11.096 4.64803 11.104 4.54403 11.152 4.48803C11.168 4.47203 11.192 4.46403 11.224 4.45603C11.224 4.45603 11.208 4.44803 11.208 4.44003C11.2 4.40003 11.232 4.35203 11.264 4.30403C11.248 4.30403 11.24 4.30403 11.224 4.30403C11.152 4.31203 11.08 4.42403 11 4.41603C10.928 4.40803 10.896 4.26403 10.824 4.23203C10.808 4.23203 10.792 4.23203 10.776 4.23203C10.752 4.28803 10.688 4.31203 10.656 4.35203C10.624 4.40003 10.632 4.49603 10.584 4.52803C10.536 4.56003 10.464 4.54403 10.408 4.56003C10.352 4.57603 10.304 4.60003 10.24 4.60003C10.216 4.60003 10.192 4.60003 10.176 4.60003C10.176 4.60003 10.184 4.61603 10.184 4.62403C10.184 4.63203 10.184 4.64003 10.184 4.64803C10.184 4.65603 10.184 4.66403 10.184 4.67203C10.184 4.68003 10.168 4.68003 10.16 4.68803C10.16 4.68803 10.16 4.71203 10.144 4.71203C10.144 4.71203 10.12 4.71203 10.112 4.71203C10.104 4.71203 10.096 4.72803 10.088 4.72803C10.08 4.72803 10.072 4.71203 10.064 4.71203C10.056 4.71203 10.056 4.69603 10.048 4.69603C10.048 4.69603 10.032 4.69603 10.024 4.68003C10.024 4.68003 10.008 4.66403 10.008 4.65603C10.008 4.64803 10.008 4.64003 10.016 4.63203C10.016 4.62403 10.016 4.61603 10.016 4.60803C10.016 4.60003 10.032 4.60003 10.032 4.59203C9.98399 4.57603 9.93599 4.54403 9.89599 4.51203C9.84799 4.47203 9.77599 4.45603 9.74399 4.40803C9.71199 4.36003 9.73599 4.28003 9.71199 4.22403C9.69599 4.16803 9.59999 4.12003 9.59999 4.05603C9.59999 4.01603 9.63999 3.98403 9.67999 3.94403C9.67999 3.94403 9.66399 3.94403 9.66399 3.93603C9.64799 3.88803 9.68799 3.83203 9.68799 3.78403C9.68799 3.76003 9.69599 3.73603 9.71199 3.71203C9.67199 3.74403 9.62399 3.77603 9.57599 3.78403C9.57599 3.78403 9.57599 3.78403 9.56799 3.78403C9.56799 3.80803 9.56799 3.82403 9.56799 3.84803C9.55199 3.89603 9.51999 3.93603 9.49599 3.97603C9.46399 4.01603 9.44799 4.07203 9.40799 4.10403C9.36799 4.13603 9.30399 4.10403 9.25599 4.12803C9.24799 4.12803 9.23999 4.14403 9.23199 4.14403C9.23199 4.16003 9.23199 4.17603 9.23199 4.18403C9.23199 4.23203 9.25599 4.28003 9.23199 4.32803C9.21599 4.37603 9.19199 4.41603 9.15999 4.45603C9.12799 4.49603 9.07199 4.48803 9.03199 4.51203C8.99199 4.53603 8.97599 4.61603 8.92799 4.62403C8.87999 4.64003 8.83199 4.60003 8.78399 4.59203C8.73599 4.59203 8.68799 4.59203 8.64799 4.57603C8.59999 4.56003 8.55999 4.54403 8.51999 4.51203C8.47999 4.48003 8.45599 4.44003 8.43199 4.40003C8.40799 4.36003 8.35999 4.32003 8.34399 4.27203C8.32799 4.22403 8.37599 4.16803 8.37599 4.12003C8.37599 4.07203 8.31999 4.00803 8.33599 3.96003C8.35199 3.91203 8.44799 3.91203 8.47999 3.87203V3.85603C8.41599 3.84803 8.33599 3.85603 8.30399 3.81603C8.30399 3.81603 8.30399 3.80803 8.30399 3.80003C8.27999 3.82403 8.25599 3.84003 8.23199 3.84803C8.16799 3.86403 8.10399 3.86403 8.03999 3.84803C7.98399 3.84803 7.94399 3.78403 7.89599 3.75203C7.89599 3.76803 7.89599 3.78403 7.89599 3.80003C7.90399 3.85603 7.87999 3.90403 7.87999 3.96003C7.87999 4.01603 7.91199 4.07203 7.88799 4.12803C7.86399 4.17603 7.86399 4.24803 7.82399 4.29603C7.78399 4.33603 7.70399 4.33603 7.66399 4.36003C7.61599 4.39203 7.56799 4.40803 7.51999 4.41603C7.47199 4.42403 7.42399 4.41603 7.37599 4.40003C7.35999 4.46403 7.37599 4.56803 7.32799 4.60803C7.27999 4.65603 7.15199 4.60803 7.08799 4.63203C7.02399 4.66403 6.98399 4.78403 6.91999 4.79203C6.84799 4.80003 6.77599 4.72003 6.71199 4.70403C6.63999 4.68803 6.59999 4.64003 6.54399 4.60003C6.47999 4.56803 6.39999 4.57603 6.35199 4.52803C6.30399 4.48003 6.22399 4.44003 6.19199 4.36803C6.15999 4.30403 6.20799 4.20803 6.19199 4.14403C6.18399 4.07203 6.19199 4.00803 6.19199 3.94403C6.19999 3.89603 6.23199 3.85603 6.26399 3.81603C6.24799 3.82403 6.24799 3.84803 6.23199 3.84803C6.21599 3.84803 6.19999 3.86403 6.18399 3.86403C6.16799 3.86403 6.15199 3.84803 6.13599 3.84003C6.11999 3.84003 6.11199 3.82403 6.09599 3.81603C6.07999 3.80803 6.07999 3.79203 6.07199 3.77603C6.06399 3.76003 6.04799 3.75203 6.03999 3.73603C6.03999 3.72003 6.03999 3.70403 6.03999 3.68803C6.03999 3.67203 6.05599 3.66403 6.06399 3.64803C6.06399 3.63203 6.06399 3.60803 6.06399 3.60003C6.07199 3.58403 6.09599 3.58403 6.11199 3.57603C6.12799 3.56803 6.13599 3.56003 6.15199 3.55203C6.16799 3.55203 6.18399 3.54403 6.19999 3.54403C6.21599 3.54403 6.23199 3.54403 6.24799 3.55203C6.26399 3.55203 6.27999 3.55203 6.29599 3.56803C6.31199 3.57603 6.30399 3.60003 6.31999 3.61603C6.31999 3.62403 6.34399 3.63203 6.35199 3.64003C6.35999 3.61603 6.36799 3.59203 6.38399 3.57603C6.43199 3.52803 6.48799 3.48803 6.55199 3.45603C6.61599 3.42403 6.68799 3.47203 6.75999 3.45603C6.83199 3.44803 6.89599 3.36003 6.95999 3.36803C6.98399 3.36803 6.99199 3.39203 7.01599 3.40003C7.01599 3.36003 7.03999 3.31203 7.02399 3.28003C7.02399 3.26403 6.99999 3.24003 6.98399 3.22403C6.97599 3.22403 6.96799 3.22403 6.95199 3.22403C6.95199 3.24003 6.95199 3.24803 6.95199 3.26403C6.95199 3.28003 6.93599 3.28803 6.92799 3.29603C6.92799 3.31203 6.92799 3.32803 6.91999 3.34403C6.91199 3.35203 6.88799 3.35203 6.87999 3.36003C6.86399 3.36003 6.85599 3.37603 6.83999 3.37603C6.82399 3.37603 6.81599 3.37603 6.79999 3.37603C6.78399 3.37603 6.77599 3.37603 6.75999 3.36003C6.74399 3.36003 6.72799 3.35203 6.71999 3.34403C6.71199 3.33603 6.71999 3.31203 6.70399 3.30403C6.70399 3.28803 6.67199 3.28003 6.67199 3.27203C6.67199 3.25603 6.69599 3.24003 6.69599 3.23203C6.69599 3.21603 6.67999 3.20003 6.68799 3.18403C6.68799 3.16803 6.71999 3.16803 6.72799 3.16003C6.73599 3.15203 6.75199 3.15203 6.75999 3.14403C6.77599 3.14403 6.77599 3.12003 6.79199 3.12003C6.79199 3.12003 6.79199 3.11203 6.79199 3.10403C6.77599 3.11203 6.75999 3.12803 6.74399 3.13603C6.71999 3.15203 6.70399 3.16803 6.67999 3.18403C6.65599 3.20003 6.63199 3.18403 6.59999 3.18403C6.57599 3.18403 6.54399 3.20803 6.51999 3.20003C6.49599 3.20003 6.46399 3.18403 6.43999 3.16803C6.41599 3.15203 6.40799 3.12003 6.39199 3.09603C6.37599 3.07203 6.32799 3.07203 6.31999 3.04803C6.31199 3.02403 6.31999 2.99203 6.31999 2.96003C6.31999 2.92803 6.31199 2.90403 6.31999 2.88003C6.29599 2.92003 6.27199 2.96803 6.23199 2.99203C6.21599 3.00003 6.19999 3.00003 6.17599 3.00003C6.17599 3.00003 6.17599 3.01603 6.17599 3.02403C6.17599 3.09603 6.15999 3.16003 6.13599 3.22403C6.11199 3.28803 6.04799 3.32003 6.00799 3.37603C5.96799 3.43203 5.95199 3.51203 5.89599 3.55203C5.83999 3.59203 5.77599 3.61603 5.71199 3.64003C5.67999 3.64803 5.64799 3.64003 5.61599 3.62403C5.61599 3.62403 5.61599 3.64003 5.61599 3.64803C5.60799 3.68803 5.59999 3.72803 5.57599 3.76003C5.55199 3.79203 5.52799 3.82403 5.49599 3.84803C5.46399 3.87203 5.43999 3.92003 5.39999 3.93603C5.35999 3.95203 5.31199 3.92003 5.27199 3.92803C5.23199 3.92803 5.18399 3.98403 5.14399 3.97603C5.10399 3.96803 5.09599 3.88803 5.05599 3.86403C5.02399 3.84003 4.95199 3.86403 4.92799 3.83203C4.90399 3.80003 4.91999 3.73603 4.90399 3.70403C4.88799 3.66403 4.90399 3.63203 4.90399 3.58403C4.90399 3.58403 4.90399 3.58403 4.90399 3.57603C4.87999 3.57603 4.86399 3.57603 4.83999 3.57603C4.79999 3.58403 4.75999 3.58403 4.71999 3.58403C4.71199 3.60803 4.69599 3.62403 4.67999 3.64003C4.66399 3.65603 4.63999 3.66403 4.62399 3.68003C4.59999 3.68803 4.58399 3.71203 4.55999 3.71203C4.53599 3.71203 4.51199 3.68803 4.48799 3.68803C4.48799 3.68803 4.47199 3.68803 4.46399 3.68803C4.46399 3.70403 4.45599 3.71203 4.43999 3.72803C4.41599 3.76003 4.38399 3.78403 4.35199 3.80803C4.34399 3.80803 4.33599 3.80803 4.32799 3.81603C4.32799 3.81603 4.34399 3.81603 4.35199 3.81603C4.39199 3.81603 4.40799 3.86403 4.43999 3.88003C4.47199 3.89603 4.52799 3.88003 4.55199 3.90403C4.57599 3.92803 4.57599 3.97603 4.59199 4.01603C4.59999 4.03203 4.60799 4.05603 4.61599 4.07203C4.63199 4.07203 4.63999 4.05603 4.65599 4.04803C4.72799 4.03203 4.81599 4.09603 4.88799 4.10403C4.95999 4.10403 5.03199 4.12803 5.09599 4.15203C5.16799 4.18403 5.19999 4.24803 5.25599 4.29603C5.31199 4.34403 5.39999 4.35203 5.43999 4.42403C5.47999 4.48803 5.51199 4.55203 5.52799 4.63203C5.54399 4.70403 5.48799 4.77603 5.47999 4.84803C5.47999 4.92803 5.55199 5.01603 5.51999 5.08003C5.49599 5.15203 5.39999 5.18403 5.35199 5.24003C5.30399 5.29603 5.27199 5.36003 5.20799 5.40003C5.14399 5.44003 5.08799 5.48003 5.00799 5.49603C4.93599 5.51203 4.86399 5.51203 4.79199 5.50403C4.77599 5.50403 4.76799 5.50403 4.75199 5.50403C4.75199 5.52803 4.73599 5.53603 4.72799 5.55203C4.74399 5.59203 4.75999 5.62403 4.75999 5.66403C4.75999 5.73603 4.74399 5.81603 4.71199 5.88803C4.67999 5.96003 4.59199 5.98403 4.54399 6.04003C4.51199 6.07203 4.50399 6.12803 4.48799 6.17603C4.50399 6.20803 4.51999 6.24003 4.52799 6.28003C4.54399 6.36003 4.47999 6.43203 4.47199 6.50403C4.46399 6.58403 4.53599 6.68003 4.51199 6.75203C4.47999 6.82403 4.38399 6.84803 4.32799 6.91203C4.27999 6.96803 4.23999 7.03203 4.16799 7.07203C4.15199 7.08003 4.13599 7.08803 4.11999 7.09603C4.11999 7.10403 4.11999 7.11203 4.11999 7.12003C4.11999 7.14403 4.08799 7.15203 4.07199 7.17603C4.05599 7.19203 4.04799 7.20803 4.03199 7.22403C4.01599 7.24003 3.99199 7.24003 3.97599 7.24803C3.95999 7.24803 3.95199 7.26403 3.93599 7.27203C3.93599 7.27203 3.94399 7.28003 3.94399 7.28803C3.94399 7.34403 3.88799 7.40003 3.87199 7.45603C3.85599 7.51203 3.84799 7.56803 3.81599 7.61603C3.78399 7.66403 3.75199 7.71203 3.70399 7.75203C3.65599 7.79203 3.60799 7.80803 3.55199 7.83203C3.49599 7.84803 3.43999 7.89603 3.38399 7.89603C3.32799 7.89603 3.27999 7.83203 3.22399 7.81603C3.16799 7.80003 3.07999 7.84803 3.03199 7.81603C3.00799 7.80003 3.00799 7.76803 2.99999 7.73603C2.98399 7.76803 2.96799 7.79203 2.94399 7.80803C2.90399 7.83203 2.85599 7.85603 2.80799 7.86403C2.75999 7.87203 2.71199 7.83203 2.66399 7.83203C2.64799 7.83203 2.62399 7.83203 2.60799 7.84803C2.60799 7.91203 2.61599 7.98403 2.58399 8.02403C2.58399 8.03203 2.55999 8.02403 2.55199 8.03203C2.55999 8.04803 2.56799 8.06403 2.56799 8.08803C2.56799 8.13603 2.56799 8.18403 2.54399 8.24003C2.54399 8.25603 2.52799 8.26403 2.51999 8.27203C2.51999 8.29603 2.51999 8.32003 2.51199 8.33603C2.49599 8.36003 2.47999 8.37603 2.45599 8.39203C2.45599 8.39203 2.43999 8.39203 2.43199 8.39203C2.43199 8.39203 2.43199 8.40003 2.43199 8.40803C2.45599 8.45603 2.47199 8.49603 2.50399 8.53603C2.51999 8.55203 2.52799 8.57603 2.54399 8.60003C2.54399 8.58403 2.55199 8.56803 2.55199 8.54403C2.55199 8.52003 2.52799 8.49603 2.53599 8.47203C2.53599 8.45603 2.57599 8.44803 2.59199 8.43203C2.56799 8.40803 2.55199 8.39203 2.55199 8.36803C2.55199 8.32803 2.59999 8.29603 2.60799 8.26403C2.61599 8.23203 2.64799 8.20803 2.67199 8.18403C2.69599 8.15203 2.68799 8.11203 2.71999 8.08803C2.75199 8.06403 2.77599 8.03203 2.80799 8.01603C2.83999 8.00803 2.88799 8.03203 2.91999 8.03203C2.93599 8.03203 2.94399 8.03203 2.95999 8.03203C2.95999 8.03203 2.96799 8.02403 2.97599 8.01603C2.99199 8.00003 2.99199 7.97603 3.00799 7.96003C3.02399 7.95203 3.03999 7.93603 3.06399 7.93603C3.08799 7.93603 3.10399 7.94403 3.11999 7.94403C3.14399 7.94403 3.15999 7.92003 3.18399 7.92803C3.19999 7.92803 3.20799 7.94403 3.21599 7.96003C3.22399 7.96003 3.23199 7.95203 3.23999 7.94403C3.27999 7.92803 3.31999 7.94403 3.36799 7.94403C3.41599 7.94403 3.45599 7.91203 3.50399 7.92803C3.54399 7.94403 3.58399 7.96003 3.62399 7.98403C3.66399 8.00803 3.66399 8.07203 3.68799 8.10403C3.71199 8.14403 3.78399 8.15203 3.79999 8.19203C3.81599 8.23203 3.78399 8.28803 3.78399 8.33603C3.78399 8.36803 3.78399 8.40003 3.78399 8.42403C3.78399 8.42403 3.79199 8.44003 3.79999 8.44803C3.86399 8.49603 3.98399 8.48803 4.02399 8.55203C4.06399 8.61603 4.03199 8.72003 4.05599 8.79203C4.07199 8.86403 4.10399 8.93603 4.09599 9.01603C4.09599 9.08803 4.08799 9.16003 4.06399 9.23203C4.13599 9.23203 4.20799 9.16003 4.27199 9.18403C4.33599 9.20803 4.36799 9.29603 4.42399 9.33603C4.47999 9.37603 4.53599 9.40803 4.57599 9.47203C4.61599 9.52803 4.65599 9.58403 4.67199 9.65603C4.69599 9.72803 4.69599 9.79203 4.68799 9.86403C4.68799 9.93603 4.71199 10.016 4.68799 10.08C4.66399 10.144 4.57599 10.176 4.52799 10.232C4.48799 10.288 4.50399 10.416 4.43999 10.456C4.42399 10.464 4.39999 10.456 4.37599 10.456C4.37599 10.48 4.39199 10.512 4.38399 10.536C4.37599 10.576 4.32799 10.6 4.30399 10.64C4.27999 10.672 4.30399 10.752 4.27199 10.776C4.23999 10.8 4.16799 10.776 4.12799 10.784C4.08799 10.8 4.06399 10.872 4.02399 10.88C4.02399 10.88 4.00799 10.88 3.99999 10.88C3.99999 10.88 3.99999 10.896 4.01599 10.904C4.01599 10.904 4.02399 10.92 4.02399 10.928C4.02399 10.936 4.02399 10.944 4.02399 10.952C4.02399 10.96 4.02399 10.968 4.02399 10.976C4.02399 10.984 4.02399 10.992 4.00799 11C4.00799 11 3.99199 11 3.98399 11.016C3.98399 11.016 3.97599 11.04 3.96799 11.04C3.95999 11.04 3.95199 11.04 3.93599 11.04C3.92799 11.04 3.91999 11.04 3.91199 11.04C3.90399 11.04 3.89599 11.04 3.88799 11.032C3.88799 11.032 3.87199 11.016 3.87199 11.008C3.87199 11.008 3.85599 10.992 3.85599 10.984C3.85599 10.976 3.85599 10.968 3.85599 10.952C3.85599 10.944 3.84799 10.928 3.84799 10.92C3.84799 10.912 3.87199 10.912 3.87199 10.904C3.87199 10.904 3.87199 10.88 3.87999 10.872C3.87999 10.872 3.90399 10.872 3.91199 10.872C3.91999 10.872 3.92799 10.872 3.93599 10.872C3.94399 10.872 3.95199 10.872 3.95999 10.872C3.95999 10.872 3.96799 10.872 3.97599 10.872C3.94399 10.856 3.91199 10.832 3.88799 10.832C3.84799 10.824 3.82399 10.792 3.79199 10.768C3.75999 10.744 3.70399 10.752 3.67999 10.72C3.65599 10.696 3.62399 10.672 3.59999 10.64C3.58399 10.672 3.56799 10.712 3.56799 10.744C3.56799 10.8 3.52799 10.84 3.50399 10.896C3.48799 10.952 3.50399 11.016 3.47199 11.064C3.43999 11.104 3.41599 11.176 3.36799 11.208C3.31999 11.24 3.25599 11.216 3.19999 11.224C3.19999 11.224 3.19999 11.232 3.19999 11.24C3.20799 11.24 3.21599 11.24 3.23199 11.256C3.24799 11.264 3.24799 11.28 3.25599 11.296C3.25599 11.296 3.26399 11.288 3.27199 11.28C3.28799 11.28 3.30399 11.264 3.31999 11.264C3.33599 11.264 3.35199 11.264 3.36799 11.272C3.38399 11.272 3.40799 11.272 3.42399 11.288C3.43999 11.296 3.43999 11.32 3.44799 11.336C3.45599 11.352 3.48799 11.352 3.49599 11.368C3.49599 11.384 3.47999 11.408 3.47999 11.424C3.47999 11.44 3.50399 11.464 3.49599 11.48C3.49599 11.496 3.46399 11.504 3.45599 11.52C3.44799 11.536 3.43199 11.536 3.41599 11.552C3.39999 11.56 3.39999 11.584 3.37599 11.592C3.35999 11.592 3.34399 11.616 3.32799 11.616C3.31199 11.616 3.29599 11.6 3.27999 11.592C3.26399 11.592 3.24799 11.576 3.23199 11.568C3.22399 11.576 3.21599 11.592 3.19999 11.592C3.18399 11.592 3.15999 11.592 3.13599 11.592C3.13599 11.592 3.12799 11.592 3.11999 11.592C3.12799 11.616 3.14399 11.648 3.15999 11.664C3.18399 11.696 3.23999 11.712 3.27999 11.744C3.35199 11.72 3.41599 11.672 3.48799 11.672C3.56799 11.672 3.63199 11.752 3.70399 11.784C3.72799 11.752 3.75199 11.72 3.75999 11.688C3.77599 11.608 3.83999 11.568 3.88799 11.496C3.92799 11.432 3.91999 11.328 3.98399 11.272C4.03999 11.224 4.09599 11.136 4.16799 11.104C4.23999 11.072 4.34399 11.136 4.41599 11.128C4.49599 11.128 4.56799 11.128 4.63999 11.152C4.71999 11.168 4.75999 11.232 4.82399 11.28C4.88799 11.32 4.98399 11.32 5.03199 11.384C5.07199 11.44 5.11199 11.496 5.13599 11.56C5.16799 11.56 5.20799 11.56 5.23999 11.584C5.27999 11.608 5.27999 11.672 5.31199 11.712C5.34399 11.752 5.42399 11.76 5.43999 11.8C5.45599 11.84 5.39199 11.904 5.39199 11.952C5.39199 12 5.45599 12.056 5.44799 12.096C5.43999 12.136 5.38399 12.16 5.35199 12.192C5.39199 12.232 5.42399 12.296 5.46399 12.336C5.50399 12.32 5.54399 12.312 5.56799 12.336C5.56799 12.312 5.56799 12.288 5.56799 12.264C5.56799 12.216 5.56799 12.16 5.58399 12.12C5.59999 12.08 5.66399 12.064 5.69599 12.032C5.72799 12 5.72799 11.912 5.76799 11.888C5.80799 11.864 5.87999 11.92 5.92799 11.912C5.97599 11.904 6.02399 11.832 6.06399 11.832C6.11199 11.832 6.14399 11.904 6.18399 11.928C6.22399 11.952 6.24799 11.992 6.27999 12.024C6.31199 12.056 6.37599 12.064 6.39199 12.104C6.41599 12.144 6.45599 12.184 6.47199 12.232C6.47999 12.28 6.43999 12.336 6.43199 12.376C6.43199 12.376 6.43199 12.392 6.43199 12.4C6.44799 12.384 6.46399 12.368 6.47199 12.352C6.50399 12.288 6.46399 12.176 6.51199 12.128C6.55999 12.072 6.65599 12.08 6.71199 12.048C6.77599 12.016 6.82399 11.968 6.89599 11.96C6.96799 11.944 7.03199 11.928 7.10399 11.936C7.17599 11.944 7.23999 11.968 7.30399 12C7.36799 12.032 7.45599 12.04 7.50399 12.088C7.55999 12.136 7.54399 12.24 7.58399 12.296C7.61599 12.36 7.74399 12.392 7.75999 12.464C7.76799 12.512 7.72799 12.56 7.69599 12.608C7.73599 12.64 7.76799 12.712 7.81599 12.736C7.87199 12.768 7.97599 12.72 8.02399 12.768C8.07199 12.816 8.05599 12.912 8.07999 12.968C8.07999 12.976 8.07999 12.984 8.07999 12.992C8.07999 12.944 8.09599 12.896 8.11999 12.872C8.17599 12.824 8.28799 12.88 8.35999 12.872C8.35999 12.856 8.35999 12.84 8.35999 12.824C8.35999 12.808 8.39199 12.8 8.40799 12.792C8.42399 12.776 8.43199 12.768 8.44799 12.76C8.46399 12.752 8.47999 12.76 8.49599 12.752H8.51199C8.52799 12.736 8.54399 12.72 8.55999 12.72C8.63199 12.72 8.70399 12.808 8.77599 12.824C8.84799 12.84 8.88799 12.904 8.95199 12.944C9.01599 12.984 9.10399 12.976 9.15199 13.032C9.19999 13.088 9.27999 13.136 9.30399 13.208C9.32799 13.28 9.27999 13.376 9.27999 13.448C9.27999 13.512 9.27999 13.568 9.26399 13.624C9.27999 13.648 9.28799 13.672 9.30399 13.688C9.35999 13.744 9.41599 13.784 9.44799 13.848C9.47999 13.912 9.51999 13.976 9.52799 14.056C9.54399 14.136 9.52799 14.208 9.52799 14.28C9.51999 14.36 9.52799 14.448 9.50399 14.512C9.48799 14.544 9.44799 14.568 9.41599 14.592C9.41599 14.592 9.41599 14.6 9.41599 14.608C9.47199 14.608 9.54399 14.632 9.59199 14.616C9.61599 14.616 9.63999 14.584 9.66399 14.56C9.66399 14.512 9.66399 14.456 9.69599 14.416C9.71999 14.384 9.75199 14.352 9.78399 14.32C9.76799 14.288 9.77599 14.24 9.75199 14.216C9.72799 14.184 9.66399 14.176 9.64799 14.136C9.63999 14.096 9.67199 14.056 9.67199 14.016C9.67199 13.976 9.69599 13.952 9.71199 13.912C9.71999 13.88 9.71199 13.832 9.72799 13.8C9.72799 13.8 9.72799 13.8 9.72799 13.792C9.72799 13.792 9.71999 13.784 9.71199 13.776C9.65599 13.776 9.60799 13.776 9.57599 13.76C9.53599 13.728 9.52799 13.656 9.51199 13.6C9.49599 13.584 9.47199 13.568 9.45599 13.552C9.43199 13.52 9.42399 13.488 9.41599 13.456C9.41599 13.456 9.41599 13.456 9.40799 13.456C9.40799 13.456 9.39999 13.456 9.39199 13.456C9.39199 13.456 9.39199 13.456 9.38399 13.448C9.38399 13.448 9.37599 13.448 9.36799 13.448C9.36799 13.448 9.36799 13.44 9.36799 13.432C9.36799 13.432 9.36799 13.432 9.36799 13.424C9.36799 13.424 9.36799 13.416 9.36799 13.408C9.36799 13.408 9.36799 13.408 9.36799 13.4V13.392C9.36799 13.392 9.37599 13.392 9.38399 13.392C9.35999 13.336 9.31199 13.296 9.30399 13.24C9.30399 13.184 9.30399 13.12 9.31999 13.056C9.31999 13.048 9.32799 13.04 9.33599 13.032C9.33599 12.96 9.31999 12.872 9.35199 12.8C9.38399 12.72 9.49599 12.688 9.55199 12.632C9.60799 12.568 9.66399 12.52 9.72799 12.48C9.79199 12.44 9.85599 12.448 9.91999 12.432C9.91999 12.424 9.91199 12.408 9.90399 12.4C9.87199 12.344 9.81599 12.312 9.79999 12.256C9.79199 12.2 9.78399 12.136 9.79199 12.072C9.79199 12.008 9.86399 11.976 9.88799 11.92C9.91199 11.864 9.88799 11.776 9.91999 11.728C9.95999 11.68 10.04 11.688 10.088 11.656C10.136 11.624 10.184 11.592 10.24 11.584C10.296 11.576 10.352 11.56 10.416 11.568C10.48 11.568 10.528 11.6 10.584 11.624C10.616 11.64 10.664 11.656 10.696 11.664C10.736 11.64 10.776 11.616 10.816 11.608C10.864 11.608 10.912 11.656 10.968 11.672C11.016 11.68 11.096 11.632 11.144 11.664C11.184 11.688 11.176 11.792 11.208 11.832C11.24 11.872 11.336 11.872 11.36 11.92C11.384 11.968 11.336 12.04 11.344 12.088C11.344 12.104 11.344 12.128 11.336 12.144C11.36 12.176 11.384 12.216 11.408 12.232C11.456 12.264 11.464 12.32 11.496 12.36C11.528 12.4 11.592 12.424 11.608 12.48C11.608 12.496 11.624 12.512 11.624 12.52C11.68 12.56 11.72 12.656 11.776 12.688C11.832 12.68 11.888 12.672 11.944 12.688C11.96 12.688 11.976 12.704 11.992 12.72C12.008 12.72 12.032 12.72 12.04 12.72C12.048 12.728 12.048 12.744 12.056 12.76C12.064 12.768 12.08 12.784 12.088 12.792C12.104 12.8 12.128 12.792 12.152 12.792C12.184 12.76 12.224 12.744 12.264 12.72C12.312 12.688 12.336 12.616 12.384 12.6C12.44 12.584 12.496 12.544 12.552 12.544C12.608 12.544 12.656 12.616 12.712 12.632C12.768 12.648 12.808 12.68 12.856 12.712C12.904 12.744 12.912 12.8 12.944 12.848C12.976 12.896 13.032 12.92 13.048 12.976C13.064 13.032 13.072 13.088 13.072 13.144C13.072 13.2 13.008 13.24 12.992 13.296C12.976 13.336 12.992 13.376 12.992 13.416C13.008 13.408 13.024 13.392 13.04 13.392C13.08 13.392 13.128 13.376 13.168 13.392C13.208 13.408 13.224 13.464 13.256 13.48C13.288 13.504 13.312 13.528 13.336 13.56C13.36 13.592 13.36 13.632 13.368 13.672C13.384 13.712 13.416 13.744 13.416 13.784C13.416 13.824 13.416 13.864 13.4 13.904C13.384 13.944 13.336 13.96 13.32 13.992C13.296 14.024 13.304 14.088 13.272 14.112C13.24 14.136 13.192 14.12 13.152 14.136C13.112 14.152 13.08 14.168 13.04 14.168C13 14.168 12.96 14.168 12.92 14.16C12.936 14.208 12.92 14.256 12.92 14.304C12.92 14.352 12.952 14.408 12.936 14.456C12.92 14.504 12.896 14.552 12.872 14.592C12.848 14.632 12.776 14.632 12.736 14.656C12.696 14.688 12.68 14.76 12.632 14.776C12.584 14.792 12.528 14.752 12.48 14.752C12.432 14.752 12.384 14.752 12.336 14.744C12.288 14.728 12.24 14.712 12.2 14.68C12.16 14.648 12.128 14.608 12.104 14.568C12.072 14.528 12.024 14.488 12.008 14.44C11.992 14.392 12.032 14.336 12.032 14.288C12.032 14.264 12.016 14.24 12.008 14.216C11.96 14.208 11.912 14.216 11.872 14.216C11.872 14.24 11.872 14.272 11.856 14.296C11.832 14.336 11.76 14.344 11.72 14.376C11.68 14.408 11.64 14.432 11.6 14.448C11.552 14.464 11.512 14.448 11.464 14.448C11.416 14.448 11.368 14.48 11.32 14.472C11.272 14.456 11.232 14.44 11.192 14.416C11.152 14.392 11.152 14.328 11.12 14.288C11.088 14.248 11.016 14.24 11 14.192C10.992 14.168 11 14.136 11 14.104C11 14.104 10.984 14.104 10.976 14.104C10.976 14.104 10.976 14.096 10.976 14.088C10.952 14.112 10.928 14.144 10.912 14.168C10.888 14.208 10.872 14.256 10.832 14.288C10.8 14.32 10.76 14.352 10.72 14.376C10.72 14.376 10.704 14.376 10.696 14.376C10.704 14.384 10.72 14.392 10.728 14.408C10.768 14.464 10.792 14.528 10.816 14.592C10.84 14.656 10.888 14.728 10.896 14.792C10.896 14.864 10.824 14.92 10.8 14.992C10.784 15.056 10.84 15.168 10.8 15.232C10.76 15.288 10.632 15.264 10.576 15.304C10.52 15.344 10.504 15.472 10.44 15.496C10.376 15.52 10.288 15.456 10.216 15.456C10.216 15.456 10.216 15.456 10.208 15.456C10.192 15.472 10.184 15.488 10.168 15.512C10.128 15.56 10.128 15.64 10.072 15.672C10.024 15.704 9.96799 15.736 9.90399 15.76C9.83999 15.776 9.78399 15.728 9.71999 15.728C9.65599 15.728 9.58399 15.8 9.52799 15.776C9.47199 15.752 9.43999 15.68 9.39199 15.64C9.34399 15.6 9.28799 15.576 9.25599 15.52C9.22399 15.472 9.18399 15.416 9.16799 15.352C9.15199 15.288 9.14399 15.224 9.15199 15.168C9.15199 15.152 9.15199 15.144 9.15199 15.128C9.08799 15.168 8.99199 15.128 8.92799 15.144C8.85599 15.16 8.79199 15.168 8.71999 15.16C8.64799 15.16 8.59999 15.104 8.53599 15.072C8.47199 15.04 8.39199 15.056 8.33599 15.008C8.31999 15 8.31199 14.984 8.30399 14.968C8.30399 14.968 8.29599 14.968 8.28799 14.968C8.28799 14.968 8.28799 14.952 8.28799 14.944C8.25599 14.912 8.23199 14.88 8.20799 14.848C8.19199 14.824 8.19199 14.792 8.19199 14.76C8.15199 14.808 8.11999 14.856 8.06399 14.888C8.00799 14.92 7.95199 14.952 7.88799 14.96C7.82399 14.976 7.75999 14.96 7.69599 14.96C7.63199 14.952 7.55199 14.968 7.49599 14.944C7.43999 14.912 7.41599 14.824 7.37599 14.784C7.33599 14.744 7.23199 14.736 7.19199 14.688C7.19199 14.696 7.19199 14.704 7.19999 14.712C7.19999 14.72 7.19999 14.736 7.19999 14.752C7.19999 14.768 7.21599 14.776 7.21599 14.792C7.21599 14.808 7.21599 14.824 7.21599 14.832C7.21599 14.848 7.19199 14.848 7.18399 14.856C7.17599 14.864 7.16799 14.872 7.15199 14.88C7.14399 14.88 7.12799 14.88 7.11999 14.88C7.10399 14.88 7.09599 14.896 7.08799 14.896C7.07199 14.896 7.06399 14.896 7.04799 14.888C7.03199 14.888 7.03199 14.864 7.02399 14.856C7.01599 14.848 6.99199 14.856 6.98399 14.84C6.98399 14.832 6.98399 14.816 6.98399 14.808C6.95999 14.824 6.91999 14.808 6.89599 14.808C6.89599 14.808 6.88799 14.808 6.87999 14.816C6.89599 14.816 6.91999 14.816 6.93599 14.832C6.97599 14.856 6.98399 14.912 7.00799 14.952C7.02399 14.952 7.03999 14.952 7.05599 14.952C7.11199 14.936 7.15999 14.872 7.22399 14.88C7.27999 14.88 7.35999 14.864 7.41599 14.88C7.47199 14.904 7.49599 14.992 7.54399 15.032C7.59199 15.072 7.63199 15.112 7.66399 15.168C7.69599 15.224 7.68799 15.28 7.70399 15.344C7.71999 15.4 7.76799 15.456 7.76799 15.52C7.76799 15.584 7.75199 15.64 7.72799 15.704C7.70399 15.76 7.63199 15.784 7.59199 15.832C7.55199 15.88 7.55999 15.976 7.51199 16.008C7.45599 16.04 7.38399 16.016 7.31999 16.032C7.26399 16.048 7.20799 16.072 7.14399 16.064C7.08799 16.064 7.02399 16.064 6.96799 16.032C6.91199 16.008 6.86399 15.968 6.81599 15.936C6.78399 15.904 6.74399 15.88 6.70399 15.856C6.69599 15.856 6.67999 15.864 6.67199 15.872C6.63999 15.872 6.60799 15.856 6.58399 15.84C6.55199 15.88 6.51999 15.92 6.47199 15.952C6.42399 15.992 6.35999 15.984 6.29599 16.008C6.23199 16.032 6.19199 16.088 6.11999 16.088C6.05599 16.088 5.99199 16.088 5.92799 16.064C5.86399 16.04 5.83999 15.968 5.79199 15.928C5.73599 15.888 5.63999 15.904 5.59999 15.856C5.56799 15.808 5.57599 15.736 5.55999 15.68C5.51999 15.672 5.47999 15.664 5.44799 15.632C5.40799 15.592 5.40799 15.52 5.37599 15.464C5.34399 15.416 5.24799 15.392 5.23199 15.336C5.21599 15.28 5.30399 15.216 5.31199 15.152C5.31199 15.136 5.30399 15.12 5.29599 15.104C5.27199 15.136 5.23999 15.168 5.22399 15.192C5.19999 15.248 5.15999 15.296 5.11999 15.344C5.07999 15.392 5.01599 15.392 4.95999 15.424C4.90399 15.456 4.87199 15.52 4.80799 15.528C4.75199 15.536 4.68799 15.544 4.62399 15.528C4.55999 15.52 4.52799 15.448 4.47199 15.424C4.41599 15.392 4.31999 15.424 4.27999 15.384C4.23199 15.336 4.23999 15.256 4.21599 15.2C4.18399 15.144 4.15199 15.096 4.14399 15.032C4.13599 14.968 4.11999 14.912 4.12799 14.848C4.12799 14.832 4.13599 14.824 4.14399 14.808C4.14399 14.808 4.12799 14.8 4.11999 14.792C4.07999 14.776 4.04799 14.76 4.01599 14.736C3.98399 14.712 3.96799 14.672 3.94399 14.64C3.91999 14.608 3.87199 14.592 3.86399 14.552C3.86399 14.536 3.86399 14.52 3.85599 14.504C3.83999 14.52 3.83999 14.56 3.82399 14.568C3.80799 14.568 3.78399 14.568 3.76799 14.56C3.75999 14.592 3.74399 14.616 3.72799 14.648C3.70399 14.68 3.66399 14.68 3.63999 14.704C3.60799 14.728 3.60799 14.784 3.57599 14.792C3.54399 14.808 3.50399 14.784 3.46399 14.784C3.43199 14.784 3.39999 14.792 3.35999 14.784C3.32799 14.776 3.29599 14.768 3.26399 14.744C3.23199 14.72 3.20799 14.696 3.19199 14.672C3.16799 14.64 3.13599 14.624 3.11999 14.584C3.10399 14.552 3.13599 14.512 3.12799 14.472C3.12799 14.44 3.07999 14.392 3.08799 14.36C3.09599 14.328 3.16799 14.32 3.18399 14.288C3.20799 14.256 3.18399 14.192 3.21599 14.168C3.24799 14.144 3.29599 14.168 3.32799 14.152C3.35999 14.136 3.39199 14.152 3.43199 14.152C3.46399 14.152 3.50399 14.12 3.53599 14.128C3.56799 14.136 3.61599 14.128 3.64799 14.152C3.65599 14.152 3.67199 14.144 3.68799 14.136C3.71199 14.136 3.72799 14.152 3.75199 14.16C3.77599 14.16 3.79999 14.144 3.82399 14.16C3.84799 14.168 3.84799 14.2 3.86399 14.216C3.87999 14.232 3.88799 14.24 3.90399 14.256C3.90399 14.232 3.90399 14.208 3.90399 14.192C3.92799 14.16 3.98399 14.152 4.01599 14.128C4.04799 14.104 4.07999 14.072 4.11199 14.064C4.15199 14.048 4.19199 14.04 4.23199 14.032C4.27199 14.024 4.31199 14.04 4.35199 14.056C4.39199 14.072 4.43999 14.064 4.47199 14.088C4.50399 14.112 4.51199 14.168 4.53599 14.208C4.55999 14.24 4.63199 14.256 4.64799 14.296C4.64799 14.296 4.64799 14.312 4.64799 14.32C4.69599 14.344 4.75199 14.4 4.79999 14.408C4.86399 14.416 4.95199 14.344 5.00799 14.376C5.06399 14.408 5.07999 14.504 5.11999 14.544C5.16799 14.592 5.16799 14.648 5.19999 14.704C5.19999 14.704 5.19999 14.712 5.20799 14.72C5.20799 14.712 5.19999 14.696 5.19999 14.688C5.19999 14.648 5.22399 14.616 5.24799 14.584C5.24799 14.584 5.23999 14.584 5.23199 14.576C5.21599 14.544 5.23199 14.512 5.23199 14.48C5.23199 14.448 5.22399 14.416 5.23199 14.392C5.23199 14.36 5.24799 14.328 5.26399 14.304C5.27999 14.272 5.30399 14.256 5.32799 14.232C5.35199 14.208 5.36799 14.176 5.39999 14.168C5.34399 14.192 5.23999 14.136 5.17599 14.16C5.11199 14.184 5.05599 14.296 4.98399 14.296C4.91199 14.296 4.85599 14.2 4.79199 14.184C4.72799 14.16 4.69599 14.104 4.63999 14.064C4.58399 14.024 4.49599 14.024 4.45599 13.968C4.41599 13.912 4.34399 13.864 4.31999 13.792C4.29599 13.72 4.35199 13.64 4.35999 13.568C4.35999 13.56 4.35999 13.552 4.35999 13.536C4.34399 13.528 4.32799 13.512 4.31199 13.504C4.31199 13.512 4.31199 13.52 4.31199 13.528C4.31199 13.536 4.28799 13.536 4.27999 13.544C4.27199 13.552 4.27199 13.568 4.26399 13.576C4.25599 13.576 4.23999 13.568 4.22399 13.568C4.21599 13.568 4.19999 13.584 4.19199 13.584C4.19199 13.584 4.19199 13.584 4.18399 13.576C4.16799 13.6 4.15999 13.624 4.14399 13.632C4.11999 13.648 4.08799 13.672 4.05599 13.68C4.03999 13.68 4.01599 13.672 3.99999 13.664C3.99199 13.68 3.97599 13.696 3.96799 13.704C3.94399 13.704 3.91999 13.704 3.89599 13.688C3.87999 13.744 3.83199 13.776 3.79999 13.824C3.76799 13.872 3.76799 13.952 3.71999 13.992C3.67199 14.032 3.63199 14.096 3.57599 14.112C3.51999 14.136 3.44799 14.088 3.38399 14.088C3.31999 14.088 3.27199 14.088 3.21599 14.064C3.15999 14.048 3.12799 14 3.07999 13.96C3.03199 13.928 2.95999 13.92 2.92799 13.872C2.89599 13.824 2.86399 13.776 2.83999 13.712C2.81599 13.656 2.86399 13.592 2.86399 13.528C2.86399 13.464 2.79199 13.4 2.80799 13.344C2.82399 13.288 2.89599 13.256 2.92799 13.2C2.93599 13.184 2.95199 13.168 2.96799 13.152C2.95199 13.136 2.92799 13.112 2.91199 13.096C2.86399 13.112 2.81599 13.136 2.76799 13.128C2.71999 13.128 2.68799 13.08 2.64799 13.048C2.59999 13.024 2.55999 12.984 2.51199 12.96C2.44799 12.936 2.34399 12.976 2.28799 12.928C2.23199 12.88 2.23199 12.784 2.19999 12.728C2.18399 12.704 2.17599 12.68 2.15999 12.656C2.15999 12.656 2.15999 12.656 2.15999 12.664C2.15199 12.68 2.14399 12.696 2.13599 12.712C2.11999 12.728 2.11199 12.736 2.09599 12.752C2.07999 12.76 2.06399 12.768 2.03999 12.768C2.02399 12.768 1.99999 12.784 1.98399 12.776C1.96799 12.776 1.95199 12.752 1.93599 12.744C1.91999 12.736 1.88799 12.744 1.87199 12.736C1.85599 12.72 1.87199 12.688 1.86399 12.672C1.85599 12.656 1.82399 12.648 1.81599 12.624C1.81599 12.608 1.83199 12.584 1.83999 12.568C1.83999 12.552 1.85599 12.536 1.86399 12.52C1.86399 12.512 1.84799 12.496 1.83999 12.488C1.82399 12.472 1.81599 12.456 1.80799 12.44C1.80799 12.424 1.80799 12.408 1.80799 12.384C1.79199 12.384 1.77599 12.384 1.75999 12.384C1.68799 12.36 1.63199 12.328 1.56799 12.28C1.50399 12.24 1.42399 12.216 1.38399 12.16C1.34399 12.104 1.36799 12 1.34399 11.936C1.31999 11.864 1.19999 11.808 1.19999 11.736C1.19999 11.664 1.32799 11.608 1.35199 11.536C1.37599 11.464 1.30399 11.344 1.35199 11.288C1.35199 11.28 1.37599 11.28 1.38399 11.272C1.38399 11.264 1.38399 11.248 1.38399 11.24C1.38399 11.16 1.42399 11.096 1.43999 11.016C1.45599 10.936 1.41599 10.84 1.45599 10.776C1.48799 10.72 1.51199 10.648 1.55199 10.592C1.53599 10.584 1.51999 10.576 1.51199 10.56C1.51199 10.552 1.51199 10.544 1.51199 10.536C1.51199 10.528 1.49599 10.52 1.49599 10.512C1.46399 10.48 1.39999 10.48 1.38399 10.44C1.36799 10.4 1.38399 10.352 1.38399 10.304C1.38399 10.264 1.36799 10.224 1.37599 10.176C1.37599 10.136 1.39199 10.096 1.40799 10.056C1.43199 10.016 1.45599 9.98403 1.48799 9.96003C1.51199 9.93603 1.53599 9.89603 1.56799 9.88003C1.54399 9.82403 1.53599 9.72803 1.49599 9.68003C1.44799 9.62403 1.33599 9.61603 1.29599 9.56003C1.29599 9.56003 1.29599 9.56003 1.28799 9.56003C1.23199 9.54403 1.18399 9.52003 1.13599 9.48803C1.09599 9.46403 1.05599 9.44003 1.01599 9.41603C1.01599 9.41603 0.999987 9.42403 0.991987 9.41603C0.951987 9.40803 0.919987 9.35203 0.879987 9.32003C0.879987 9.32003 0.879987 9.32803 0.871987 9.33603C0.839987 9.37603 0.791987 9.38403 0.743987 9.41603C0.703987 9.44803 0.679987 9.50403 0.623987 9.51203C0.575987 9.52803 0.527987 9.53603 0.471987 9.52803C0.415987 9.52803 0.383987 9.47203 0.335987 9.45603C0.287987 9.44003 0.215987 9.47203 0.175987 9.44003C0.135987 9.40803 0.135987 9.33603 0.103987 9.29603C0.0719873 9.25603 0.0399873 9.21603 0.0319873 9.16803C0.0159873 9.12003 -1.27344e-05 9.07203 0.00798727 9.01603C0.00798727 8.96003 0.0239873 8.91203 0.0399873 8.86403C0.0559873 8.81603 0.0559873 8.75203 0.0879873 8.71203C0.119987 8.67203 0.191987 8.67203 0.231987 8.64003C0.271987 8.60803 0.295987 8.52003 0.343987 8.50403C0.391987 8.48803 0.455987 8.56803 0.511987 8.57603C0.567987 8.57603 0.631987 8.51203 0.679987 8.52803C0.703987 8.53603 0.719987 8.56803 0.743987 8.59203C0.767987 8.57603 0.783987 8.56003 0.799987 8.54403C0.839987 8.51203 0.855987 8.44803 0.903987 8.43203C0.951987 8.40803 0.999987 8.40003 1.05599 8.39203C1.11199 8.39203 1.15199 8.44003 1.19999 8.44803C1.21599 8.44803 1.23199 8.44803 1.24799 8.44803C1.23999 8.40003 1.23199 8.34403 1.21599 8.30403C1.18399 8.24803 1.19999 8.18403 1.19199 8.12003C1.18399 8.05603 1.11999 8.00003 1.13599 7.93603C1.14399 7.87203 1.13599 7.79203 1.15999 7.72803C1.19199 7.67203 1.27199 7.64803 1.31999 7.60803C1.28799 7.56003 1.23199 7.52003 1.22399 7.46403C1.21599 7.40003 1.20799 7.33603 1.22399 7.27203C1.22399 7.24003 1.24799 7.21603 1.27199 7.19203C1.25599 7.19203 1.23999 7.18403 1.22399 7.17603C1.19199 7.15203 1.16799 7.12803 1.14399 7.10403C1.11999 7.07203 1.07999 7.05603 1.06399 7.01603C1.04799 6.98403 1.07199 6.93603 1.07199 6.89603C1.07199 6.85603 1.01599 6.81603 1.02399 6.77603C1.03199 6.74403 1.10399 6.72803 1.12799 6.69603C1.15199 6.66403 1.12799 6.60003 1.15999 6.57603C1.19199 6.55203 1.24799 6.56803 1.27999 6.55203C1.31199 6.53603 1.35199 6.55203 1.38399 6.55203C1.42399 6.55203 1.45599 6.52003 1.49599 6.52803C1.52799 6.53603 1.57599 6.52803 1.60799 6.55203C1.63999 6.57603 1.64799 6.62403 1.67199 6.65603C1.70399 6.63203 1.76799 6.64003 1.80799 6.62403C1.84799 6.60803 1.88799 6.62403 1.93599 6.60803H1.95199C1.94399 6.59203 1.92799 6.58403 1.92799 6.56803C1.91999 6.52803 1.95999 6.48003 1.95999 6.43203C1.95999 6.39203 1.91199 6.32803 1.92799 6.28803C1.94399 6.24803 2.03199 6.24803 2.05599 6.21603C2.08799 6.18403 2.07199 6.10403 2.11199 6.08003C2.15199 6.05603 2.21599 6.08003 2.25599 6.08003C2.29599 6.07203 2.33599 6.08803 2.37599 6.09603C2.41599 6.09603 2.45599 6.08003 2.49599 6.08803C2.47199 6.05603 2.44799 6.01603 2.44799 5.97603C2.44799 5.91203 2.51999 5.87203 2.55199 5.81603C2.56799 5.77603 2.59199 5.74403 2.60799 5.70403C2.60799 5.64803 2.59999 5.58403 2.60799 5.52803C2.60799 5.50403 2.60799 5.47203 2.60799 5.44803C2.59199 5.44803 2.56799 5.44803 2.55199 5.44803C2.49599 5.43203 2.46399 5.35203 2.41599 5.32003C2.36799 5.28803 2.26399 5.30403 2.22399 5.25603C2.19199 5.20803 2.24799 5.10403 2.22399 5.04803C2.20799 4.99203 2.10399 4.94403 2.10399 4.88803C2.10399 4.87203 2.11199 4.86403 2.11999 4.84803C2.09599 4.82403 2.07199 4.80003 2.03999 4.78403C1.99999 4.76003 1.96799 4.73603 1.93599 4.70403C1.90399 4.67203 1.90399 4.62403 1.87999 4.58403C1.86399 4.54403 1.81599 4.52003 1.80799 4.47203C1.80799 4.43203 1.80799 4.38403 1.80799 4.33603C1.80799 4.28803 1.86399 4.26403 1.88799 4.22403C1.90399 4.20003 1.90399 4.16803 1.90399 4.13603C1.90399 4.13603 1.90399 4.13603 1.89599 4.13603C1.87199 4.13603 1.84799 4.13603 1.82399 4.13603C1.79999 4.12803 1.79199 4.09603 1.77599 4.08003C1.75999 4.06403 1.74399 4.04803 1.73599 4.03203C1.72799 4.01603 1.72799 3.99203 1.71999 3.96803C1.71999 3.94403 1.69599 3.92803 1.69599 3.90403C1.69599 3.88003 1.69599 3.86403 1.71199 3.84003C1.71999 3.81603 1.74399 3.81603 1.75999 3.80003C1.77599 3.78403 1.76799 3.75203 1.79199 3.73603C1.80799 3.72803 1.83999 3.73603 1.85599 3.72803C1.87999 3.72803 1.89599 3.71203 1.91999 3.72003C1.94399 3.72003 1.95999 3.72003 1.98399 3.72803C2.00799 3.73603 2.02399 3.75203 2.03999 3.76003C2.05599 3.77603 2.07999 3.78403 2.09599 3.80003C2.10399 3.81603 2.09599 3.84803 2.09599 3.87203C2.09599 3.89603 2.13599 3.91203 2.13599 3.93603C2.13599 3.96003 2.09599 3.96803 2.08799 3.99203C2.08799 3.99203 2.08799 4.00803 2.08799 4.01603C2.11199 4.00003 2.13599 3.98403 2.16799 3.98403C2.20799 3.98403 2.25599 3.96803 2.29599 3.98403C2.34399 3.99203 2.38399 4.00803 2.41599 4.03203C2.45599 4.05603 2.51199 4.06403 2.53599 4.09603C2.55999 4.12003 2.55999 4.15203 2.56799 4.18403C2.59199 4.16803 2.61599 4.15203 2.62399 4.13603C2.65599 4.07203 2.59999 3.94403 2.64799 3.89603C2.69599 3.84003 2.80799 3.85603 2.87199 3.82403C2.91999 3.79203 2.98399 3.80003 3.03999 3.79203C3.03999 3.76003 3.03999 3.72803 3.03199 3.69603C2.99199 3.69603 2.95999 3.64003 2.91999 3.62403C2.87999 3.60803 2.81599 3.63203 2.78399 3.60803C2.75199 3.58403 2.78399 3.50403 2.75999 3.46403C2.73599 3.42403 2.66399 3.40803 2.65599 3.36803C2.64799 3.32803 2.68799 3.28003 2.69599 3.24003C2.69599 3.20003 2.72799 3.16803 2.74399 3.12803C2.75999 3.08803 2.74399 3.04003 2.77599 3.00803C2.79999 2.97603 2.82399 2.92803 2.85599 2.90403C2.88799 2.88003 2.95199 2.90403 2.99199 2.89603C3.03199 2.88803 3.07199 2.88803 3.11199 2.89603C3.15199 2.89603 3.18399 2.92803 3.21599 2.94403C3.25599 2.96003 3.30399 2.95203 3.33599 2.98403C3.36799 3.00803 3.39199 3.04003 3.41599 3.08003C3.43999 3.12003 3.41599 3.16803 3.42399 3.20803C3.43199 3.24803 3.48799 3.28803 3.48799 3.32803C3.48799 3.36803 3.44799 3.40003 3.43199 3.43203C3.45599 3.40803 3.47999 3.39203 3.50399 3.39203C3.55999 3.39203 3.62399 3.35203 3.68799 3.36003C3.74399 3.36803 3.78399 3.44803 3.83199 3.48003C3.85599 3.49603 3.87199 3.51203 3.88799 3.52803C3.90399 3.49603 3.88799 3.44803 3.91999 3.41603C3.94399 3.38403 3.96799 3.34403 3.99999 3.32003C3.97599 3.27203 3.91999 3.22403 3.91999 3.16803C3.91999 3.10403 3.99199 3.05603 4.01599 3.00003C4.03999 2.94403 4.05599 2.88803 4.09599 2.83203C4.13599 2.78403 4.17599 2.73603 4.22399 2.70403C4.27999 2.67203 4.33599 2.65603 4.39199 2.64003C4.43199 2.63203 4.47999 2.60803 4.52799 2.60003C4.54399 2.57603 4.56799 2.55203 4.57599 2.52803C4.59999 2.46403 4.66399 2.42403 4.70399 2.36803C4.73599 2.32803 4.75199 2.28003 4.76799 2.24003C4.76799 2.20003 4.76799 2.16003 4.76799 2.13603C4.75199 2.07203 4.74399 2.01603 4.74399 1.95203C4.74399 1.88803 4.79199 1.84003 4.80799 1.77603C4.83199 1.71203 4.80799 1.64003 4.85599 1.59203C4.89599 1.54403 4.93599 1.49603 4.99199 1.45603C5.04799 1.41603 5.11999 1.45603 5.18399 1.43203C5.24799 1.41603 5.29599 1.32803 5.35999 1.32803C5.42399 1.32803 5.47199 1.40003 5.53599 1.42403C5.59199 1.44803 5.65599 1.45603 5.70399 1.49603C5.73599 1.52803 5.76799 1.56003 5.79999 1.59203C5.81599 1.56803 5.82399 1.54403 5.84799 1.53603C5.88799 1.52003 5.95199 1.59203 5.99999 1.59203C6.04799 1.59203 6.10399 1.52803 6.15199 1.54403C6.19999 1.56003 6.21599 1.63203 6.25599 1.66403C6.29599 1.69603 6.30399 1.73603 6.32799 1.77603C6.34399 1.79203 6.35999 1.80803 6.38399 1.82403C6.40799 1.80803 6.43999 1.80003 6.47199 1.79203C6.51999 1.79203 6.55999 1.84803 6.59999 1.85603C6.63999 1.87203 6.67999 1.88803 6.71199 1.91203C6.71999 1.91203 6.72799 1.92803 6.72799 1.93603C6.76799 1.95203 6.79999 1.96803 6.83199 1.96803C6.85599 1.96803 6.87199 1.94403 6.89599 1.93603C6.89599 1.92003 6.89599 1.90403 6.89599 1.88803C6.89599 1.88803 6.89599 1.88803 6.89599 1.88003C6.83999 1.82403 6.79199 1.76003 6.75999 1.68803C6.71999 1.61603 6.76799 1.52803 6.75999 1.44803C6.74399 1.36803 6.64799 1.29603 6.65599 1.21603C6.62399 1.20803 6.59199 1.20003 6.58399 1.17603C6.55199 1.12003 6.59199 1.02403 6.58399 0.960028C6.56799 0.896028 6.59999 0.840028 6.59999 0.768028C6.59999 0.704028 6.55999 0.632028 6.58399 0.568028C6.60799 0.504028 6.61599 0.424028 6.65599 0.368028C6.70399 0.312028 6.79199 0.320028 6.84799 0.288028C6.90399 0.256028 6.95999 0.232028 7.02399 0.216028C7.08799 0.200028 7.14399 0.232028 7.20799 0.232028C7.27199 0.232028 7.34399 0.200028 7.39999 0.232028C7.45599 0.256028 7.51999 0.288028 7.56799 0.336028C7.61599 0.384028 7.60799 0.464028 7.64799 0.520028C7.67999 0.576028 7.78399 0.600028 7.79999 0.664028C7.79999 0.664028 7.79999 0.680028 7.79999 0.688028C7.87199 0.704028 7.97599 0.688028 8.03199 0.728028C8.08799 0.784028 8.03199 0.928028 8.07199 1.00803C8.07999 1.03203 8.11199 1.04803 8.13599 1.06403C8.16799 1.04003 8.19999 1.02403 8.23999 1.01603C8.23999 1.01603 8.23999 1.01603 8.24799 1.01603C8.25599 1.00803 8.26399 0.992028 8.27999 0.984028C8.31999 0.960028 8.37599 0.976028 8.43199 0.984028C8.43199 0.976028 8.43199 0.968028 8.43199 0.952028C8.44799 0.896028 8.44799 0.824028 8.47999 0.776028C8.51199 0.728028 8.59199 0.728028 8.63999 0.688028C8.68799 0.656028 8.70399 0.552028 8.75999 0.528028C8.81599 0.512028 8.88799 0.600028 8.94399 0.600028C8.99999 0.600028 9.07199 0.520028 9.12799 0.536028C9.18399 0.552028 9.20799 0.640028 9.25599 0.680028C9.30399 0.712028 9.31199 0.768028 9.35199 0.816028C9.38399 0.864028 9.45599 0.888028 9.47199 0.944028C9.48799 1.00003 9.53599 1.05603 9.53599 1.12003C9.53599 1.18403 9.47199 1.23203 9.45599 1.28803C9.44799 1.31203 9.43199 1.33603 9.42399 1.36003C9.45599 1.36003 9.48799 1.38403 9.51999 1.39203C9.55999 1.40803 9.60799 1.39203 9.64799 1.41603C9.67999 1.44003 9.71999 1.47203 9.74399 1.50403C9.76799 1.54403 9.75199 1.59203 9.76799 1.63203C9.78399 1.67203 9.84799 1.70403 9.84799 1.75203C9.84799 1.80003 9.80799 1.83203 9.79199 1.88003C9.79199 1.90403 9.77599 1.92003 9.76799 1.94403C9.76799 1.95203 9.76799 1.96003 9.76799 1.96803C9.79199 1.93603 9.82399 1.90403 9.86399 1.89603C9.92799 1.88003 10.008 1.83203 10.08 1.84003C10.152 1.84003 10.208 1.93603 10.272 1.96003C10.304 1.97603 10.328 2.00003 10.36 2.01603C10.36 2.00003 10.352 1.98403 10.352 1.96003C10.352 1.91203 10.376 1.87203 10.408 1.83203C10.392 1.81603 10.376 1.80803 10.36 1.79203C10.336 1.76803 10.352 1.72803 10.336 1.69603C10.32 1.66403 10.272 1.64803 10.272 1.60803C10.272 1.57603 10.304 1.54403 10.304 1.51203C10.304 1.48003 10.312 1.44803 10.328 1.41603C10.344 1.38403 10.36 1.36003 10.384 1.33603C10.408 1.31203 10.44 1.29603 10.472 1.28803C10.504 1.27203 10.536 1.24803 10.568 1.24803C10.6 1.24803 10.632 1.28003 10.664 1.28803C10.696 1.28803 10.744 1.26403 10.776 1.28803C10.792 1.29603 10.8 1.32003 10.8 1.34403C10.864 1.32003 10.928 1.29603 11 1.29603C11.048 1.29603 11.088 1.31203 11.128 1.32003C11.168 1.27203 11.208 1.20803 11.256 1.20003C11.32 1.19203 11.392 1.30403 11.464 1.31203C11.536 1.32003 11.632 1.24803 11.688 1.27203C11.752 1.30403 11.76 1.40803 11.808 1.45603C11.832 1.48003 11.848 1.51203 11.856 1.54403H11.872C11.904 1.56803 11.904 1.61603 11.912 1.66403C11.944 1.70403 12 1.74403 12.008 1.80003C12.008 1.84803 12.032 1.90403 12.04 1.95203C12.072 1.95203 12.104 1.95203 12.128 1.96003C12.168 1.98403 12.224 1.99203 12.248 2.03203C12.28 2.06403 12.264 2.13603 12.28 2.17603C12.296 2.21603 12.304 2.25603 12.312 2.30403C12.312 2.35203 12.288 2.38403 12.28 2.43203C12.272 2.47203 12.28 2.52003 12.264 2.55203C12.264 2.56803 12.28 2.58403 12.28 2.60803C12.28 2.63203 12.28 2.66403 12.28 2.68803C12.272 2.71203 12.256 2.73603 12.24 2.76003C12.224 2.78403 12.216 2.81603 12.192 2.83203C12.168 2.84803 12.136 2.83203 12.112 2.84803C12.088 2.85603 12.064 2.90403 12.04 2.90403C12.016 2.90403 11.992 2.85603 11.968 2.84803C11.944 2.84003 11.896 2.86403 11.88 2.84803C11.856 2.83203 11.856 2.78403 11.84 2.76803C11.84 2.76803 11.84 2.76003 11.84 2.75203C11.84 2.75203 11.832 2.75203 11.824 2.75203C11.784 2.74403 11.736 2.73603 11.704 2.71203C11.664 2.68803 11.632 2.66403 11.6 2.63203C11.584 2.61603 11.576 2.60003 11.568 2.57603H11.552C11.488 2.58403 11.44 2.64003 11.376 2.63203C11.328 2.63203 11.28 2.60803 11.24 2.59203C11.24 2.59203 11.232 2.60803 11.224 2.60803C11.16 2.63203 11.088 2.68803 11.016 2.68803C10.944 2.68803 10.88 2.60803 10.816 2.58403C10.76 2.56803 10.72 2.53603 10.672 2.51203C10.672 2.55203 10.688 2.60003 10.68 2.64003C10.68 2.65603 10.664 2.66403 10.664 2.68003C10.696 2.72003 10.72 2.76003 10.736 2.80803C10.752 2.85603 10.736 2.90403 10.736 2.96003C10.736 3.00803 10.776 3.06403 10.76 3.11203C10.744 3.16003 10.728 3.20803 10.696 3.25603C10.664 3.30403 10.6 3.30403 10.56 3.33603C10.52 3.36803 10.512 3.44803 10.464 3.47203C10.416 3.48803 10.36 3.45603 10.304 3.45603C10.272 3.45603 10.24 3.45603 10.216 3.45603C10.216 3.48003 10.2 3.48803 10.2 3.51203C10.216 3.51203 10.232 3.52003 10.256 3.52803C10.304 3.54403 10.352 3.52803 10.392 3.55203C10.408 3.56003 10.424 3.57603 10.432 3.59203C10.432 3.56003 10.432 3.52803 10.448 3.49603C10.48 3.43203 10.584 3.40803 10.632 3.35203C10.68 3.29603 10.736 3.25603 10.8 3.22403C10.864 3.19203 10.936 3.20803 11.008 3.19203C11.08 3.17603 11.144 3.12003 11.216 3.13603C11.256 3.13603 11.296 3.16003 11.336 3.17603C11.336 3.16003 11.32 3.14403 11.328 3.12803C11.328 3.11203 11.36 3.11203 11.368 3.10403C11.376 3.08803 11.368 3.06403 11.384 3.05603C11.4 3.04803 11.416 3.05603 11.432 3.05603C11.448 3.05603 11.456 3.05603 11.472 3.05603C11.488 3.05603 11.504 3.04803 11.512 3.05603C11.528 3.05603 11.544 3.05603 11.56 3.07203C11.568 3.08003 11.568 3.10403 11.576 3.11203C11.576 3.12003 11.584 3.12803 11.592 3.14403C11.608 3.14403 11.624 3.14403 11.64 3.14403C11.712 3.14403 11.792 3.11203 11.864 3.14403C11.928 3.16803 11.96 3.26403 12.024 3.30403C12.048 3.32003 12.088 3.32803 12.128 3.33603C12.152 3.32003 12.184 3.30403 12.208 3.28003C12.24 3.24803 12.24 3.17603 12.28 3.15203C12.32 3.13603 12.376 3.19203 12.424 3.18403C12.464 3.18403 12.512 3.11203 12.552 3.12003C12.592 3.12003 12.624 3.19203 12.656 3.20803C12.696 3.23203 12.704 3.26403 12.736 3.29603C12.768 3.32803 12.816 3.33603 12.832 3.37603C12.848 3.41603 12.888 3.44803 12.896 3.49603C12.896 3.53603 12.872 3.56803 12.856 3.60803C12.888 3.58403 12.928 3.56003 12.952 3.52803C12.992 3.48003 12.984 3.36003 13.04 3.32803C13.096 3.29603 13.2 3.36803 13.264 3.35203C13.328 3.33603 13.392 3.23203 13.448 3.24003C13.512 3.24003 13.56 3.33603 13.624 3.36003C13.68 3.38403 13.712 3.44003 13.76 3.48803C13.808 3.52803 13.888 3.53603 13.928 3.59203C13.96 3.64803 14.024 3.70403 14.04 3.76803C14.056 3.83203 14 3.91203 13.992 3.97603C13.992 4.01603 13.976 4.04803 13.968 4.08003C14.024 4.04003 14.08 3.97603 14.136 3.97603C14.208 3.97603 14.264 4.12003 14.336 4.14403C14.408 4.16803 14.528 4.11203 14.592 4.15203C14.648 4.20003 14.64 4.32003 14.68 4.38403C14.72 4.44803 14.712 4.52003 14.736 4.59203C14.752 4.66403 14.832 4.72003 14.832 4.80003C14.832 4.87203 14.856 4.96803 14.832 5.04003C14.808 5.11203 14.704 5.14403 14.656 5.20803C14.648 5.21603 14.632 5.22403 14.624 5.24003C14.616 5.26403 14.608 5.28803 14.592 5.31203C14.552 5.37603 14.488 5.39203 14.424 5.44003C14.408 5.44803 14.4 5.46403 14.392 5.48003C14.392 5.48003 14.392 5.48803 14.392 5.49603C14.392 5.49603 14.392 5.50403 14.392 5.51203V5.52803C14.392 5.52803 14.384 5.52803 14.376 5.53603C14.376 5.53603 14.376 5.53603 14.36 5.54403C14.36 5.54403 14.352 5.54403 14.344 5.54403C14.344 5.54403 14.336 5.54403 14.328 5.54403C14.328 5.54403 14.32 5.54403 14.312 5.54403C14.296 5.56003 14.288 5.57603 14.264 5.58403C14.2 5.60803 14.128 5.62403 14.056 5.63203C14 5.63203 13.952 5.59203 13.896 5.56803C13.856 5.56803 13.808 5.58403 13.768 5.56803C13.76 5.56803 13.752 5.55203 13.744 5.55203C13.728 5.55203 13.712 5.55203 13.696 5.55203C13.696 5.56803 13.696 5.59203 13.696 5.60803C13.696 5.65603 13.72 5.70403 13.704 5.74403C13.704 5.76003 13.688 5.77603 13.688 5.79203C13.72 5.80003 13.768 5.79203 13.792 5.82403C13.816 5.84803 13.784 5.92003 13.792 5.95203C13.808 5.98403 13.872 6.00803 13.872 6.04803C13.872 6.06403 13.864 6.08803 13.848 6.10403C13.848 6.10403 13.856 6.08803 13.864 6.08803C13.912 6.06403 13.968 6.09603 14.016 6.08803C14.064 6.08803 14.12 6.00803 14.168 6.01603C14.216 6.02403 14.24 6.12003 14.28 6.14403C14.288 6.14403 14.304 6.14403 14.32 6.14403C14.32 6.14403 14.32 6.13603 14.328 6.12803C14.368 6.08003 14.376 6.00803 14.424 5.97603C14.472 5.94403 14.528 5.91203 14.592 5.89603C14.656 5.88003 14.712 5.92803 14.768 5.93603C14.832 5.93603 14.904 5.87203 14.96 5.89603C15.016 5.92003 15.04 6.00003 15.088 6.03203C15.136 6.07203 15.184 6.10403 15.216 6.15203C15.248 6.20003 15.28 6.25603 15.296 6.32003C15.312 6.38403 15.312 6.44003 15.312 6.50403C15.312 6.56803 15.328 6.64003 15.312 6.69603C15.288 6.75203 15.208 6.77603 15.168 6.82403C15.128 6.87203 15.144 6.98403 15.088 7.02403C15.04 7.05603 14.936 6.99203 14.872 7.00803C14.808 7.02403 14.76 7.12803 14.696 7.12003C14.632 7.12003 14.584 7.03203 14.528 7.00803C14.472 6.98403 14.44 6.92803 14.392 6.89603C14.384 6.88803 14.368 6.88003 14.352 6.88003C14.32 6.90403 14.296 6.92803 14.264 6.94403C14.216 6.96803 14.176 6.95203 14.128 6.96003C14.08 6.96003 14.04 7.00803 13.984 7.00003C13.936 6.99203 13.888 6.97603 13.848 6.95203C13.8 6.92803 13.792 6.86403 13.76 6.83203C13.728 6.79203 13.648 6.79203 13.624 6.75203C13.6 6.70403 13.624 6.64803 13.624 6.60003C13.624 6.55203 13.6 6.50403 13.616 6.45603C13.616 6.44003 13.616 6.43203 13.624 6.41603C13.592 6.43203 13.544 6.40003 13.504 6.40803C13.488 6.40803 13.472 6.40803 13.456 6.40803C13.456 6.44803 13.448 6.49603 13.424 6.53603C13.392 6.60003 13.352 6.64803 13.304 6.69603C13.256 6.74403 13.224 6.82403 13.16 6.85603C13.096 6.88803 13.016 6.84803 12.952 6.85603C12.928 6.85603 12.904 6.88003 12.88 6.89603C12.88 6.96003 12.92 7.03203 12.904 7.09603C12.888 7.16003 12.808 7.20003 12.776 7.24803C12.744 7.30403 12.704 7.34403 12.656 7.38403C12.656 7.38403 12.656 7.38403 12.648 7.38403C12.648 7.38403 12.656 7.38403 12.664 7.38403C12.696 7.40803 12.712 7.43203 12.736 7.46403C12.76 7.49603 12.792 7.52003 12.8 7.55203C12.808 7.58403 12.784 7.62403 12.784 7.66403C12.784 7.69603 12.824 7.74403 12.816 7.77603C12.808 7.80803 12.736 7.81603 12.72 7.84003C12.696 7.87203 12.712 7.93603 12.68 7.95203C12.664 7.96003 12.64 7.96003 12.624 7.96003C12.624 7.96803 12.624 7.97603 12.624 7.98403C12.624 7.99203 12.624 8.00003 12.624 8.00803C12.624 8.01603 12.624 8.03203 12.624 8.04003C12.624 8.04003 12.616 8.05603 12.608 8.06403C12.624 8.06403 12.64 8.06403 12.656 8.06403C12.688 8.05603 12.72 8.05603 12.76 8.05603C12.792 8.03203 12.848 8.04003 12.88 8.02403C12.912 8.00803 12.944 7.99203 12.984 7.99203C12.984 7.99203 12.984 7.98403 12.976 7.97603C12.968 7.96803 12.96 7.96003 12.952 7.95203C12.952 7.94403 12.944 7.92803 12.936 7.92003C12.936 7.90403 12.936 7.89603 12.936 7.88803C12.936 7.87203 12.936 7.86403 12.936 7.84803C12.936 7.84003 12.96 7.83203 12.968 7.82403C12.976 7.81603 12.968 7.79203 12.984 7.78403C12.992 7.78403 13.016 7.79203 13.024 7.78403C13.04 7.78403 13.048 7.76003 13.056 7.76803C13.064 7.76803 13.08 7.78403 13.088 7.79203C13.096 7.79203 13.104 7.80803 13.112 7.81603C13.12 7.82403 13.136 7.82403 13.144 7.84003C13.144 7.84803 13.16 7.86403 13.16 7.87203C13.16 7.88803 13.152 7.89603 13.152 7.91203C13.152 7.92803 13.152 7.93603 13.144 7.94403C13.144 7.95203 13.128 7.96003 13.12 7.96803C13.12 7.96803 13.112 7.98403 13.104 7.98403C13.144 7.99203 13.184 8.01603 13.216 8.04003C13.24 8.05603 13.272 8.07203 13.304 8.08803C13.304 8.08803 13.304 8.07203 13.312 8.07203C13.368 8.02403 13.432 7.98403 13.496 7.96003C13.496 7.96003 13.496 7.96003 13.504 7.96003C13.504 7.96003 13.504 7.95203 13.504 7.94403C13.504 7.92803 13.528 7.92003 13.536 7.90403C13.544 7.88803 13.536 7.86403 13.552 7.84803C13.56 7.84803 13.576 7.84803 13.592 7.84803C13.552 7.84003 13.52 7.82403 13.488 7.80803C13.448 7.78403 13.392 7.78403 13.36 7.75203C13.328 7.72003 13.336 7.65603 13.312 7.61603C13.288 7.57603 13.208 7.55203 13.2 7.50403C13.2 7.48803 13.208 7.47203 13.224 7.45603C13.2 7.45603 13.184 7.44003 13.168 7.43203C13.144 7.43203 13.112 7.43203 13.096 7.42403C13.08 7.40803 13.048 7.40003 13.032 7.37603C13.016 7.35203 13.032 7.32003 13.016 7.29603C13.008 7.27203 13.008 7.24803 13.008 7.22403C13.008 7.20003 13.024 7.17603 13.032 7.15203C13.032 7.12803 13.032 7.09603 13.048 7.08003C13.064 7.05603 13.08 7.04003 13.104 7.02403C13.128 7.00803 13.152 7.02403 13.176 7.00803C13.2 7.00003 13.216 6.96003 13.24 6.96003C13.264 6.96003 13.288 6.98403 13.312 6.99203C13.336 6.99203 13.36 7.00003 13.376 7.01603C13.392 7.03203 13.416 7.04803 13.432 7.06403C13.432 7.06403 13.432 7.06403 13.432 7.07203C13.456 7.06403 13.48 7.04803 13.504 7.04003C13.544 7.01603 13.568 6.96003 13.616 6.95203C13.664 6.94403 13.712 6.91203 13.76 6.92003C13.808 6.92003 13.84 6.98403 13.88 7.00803C13.92 7.03203 13.96 7.05603 13.992 7.08803C14.024 7.12003 14.032 7.16803 14.048 7.20803C14.072 7.24803 14.12 7.28003 14.128 7.32003C14.128 7.34403 14.128 7.36803 14.128 7.39203C14.128 7.39203 14.128 7.39203 14.128 7.40003C14.16 7.41603 14.232 7.39203 14.256 7.41603C14.288 7.44003 14.272 7.50403 14.288 7.53603C14.304 7.56803 14.296 7.60803 14.304 7.64803C14.304 7.68803 14.344 7.72003 14.344 7.76003C14.344 7.77603 14.344 7.79203 14.344 7.80803C14.36 7.79203 14.376 7.77603 14.392 7.76003C14.424 7.74403 14.464 7.76003 14.496 7.75203C14.528 7.74403 14.56 7.69603 14.592 7.69603C14.624 7.69603 14.648 7.73603 14.68 7.74403C14.712 7.75203 14.736 7.76803 14.76 7.78403C14.76 7.78403 14.76 7.77603 14.76 7.76803C14.76 7.74403 14.72 7.70403 14.728 7.68003C14.728 7.65603 14.784 7.64803 14.8 7.62403C14.816 7.60003 14.8 7.55203 14.824 7.53603C14.848 7.52003 14.888 7.53603 14.912 7.52003C14.936 7.51203 14.96 7.52003 14.984 7.52003C15.008 7.52003 15.04 7.49603 15.064 7.50403C15.088 7.50403 15.12 7.50403 15.144 7.52003C15.168 7.53603 15.168 7.57603 15.184 7.59203C15.2 7.61603 15.216 7.63203 15.224 7.66403C15.232 7.68803 15.224 7.71203 15.224 7.74403C15.224 7.76003 15.224 7.77603 15.232 7.79203C15.288 7.79203 15.336 7.79203 15.392 7.80803C15.464 7.82403 15.504 7.88803 15.568 7.92803C15.632 7.96803 15.72 7.96803 15.768 8.03203C15.816 8.08803 15.856 8.15203 15.88 8.22403C15.912 8.29603 15.856 8.37603 15.864 8.44803L15.92 8.25603ZM7.19199 14.096C7.19199 14.096 7.23999 14.048 7.25599 14.024C7.25599 14.024 7.26399 14.016 7.27199 14.008C7.27199 14.008 7.27199 14.008 7.26399 13.992C7.25599 14.016 7.20799 14.04 7.19999 14.064C7.19999 14.072 7.19999 14.08 7.19999 14.096H7.19199ZM7.09599 14.2C7.09599 14.2 7.03999 14.208 7.01599 14.216C6.99999 14.216 6.98399 14.224 6.97599 14.232C6.97599 14.232 6.97599 14.232 6.98399 14.232C7.00799 14.248 7.04799 14.232 7.07199 14.256C7.09599 14.28 7.12799 14.296 7.14399 14.32C7.15999 14.344 7.14399 14.392 7.14399 14.416C7.14399 14.448 7.14399 14.472 7.14399 14.504C7.14399 14.528 7.12799 14.544 7.11199 14.56L7.12799 14.552C7.14399 14.552 7.14399 14.576 7.15999 14.584C7.16799 14.584 7.19199 14.584 7.19999 14.584C7.17599 14.528 7.24799 14.432 7.23199 14.368C7.21599 14.304 7.11999 14.24 7.12799 14.176C7.11199 14.176 7.10399 14.176 7.08799 14.192L7.09599 14.2ZM6.02399 12.72C6.02399 12.72 6.08799 12.808 6.11999 12.84C6.14399 12.864 6.16799 12.888 6.19199 12.912C6.20799 12.912 6.22399 12.928 6.23199 12.928C6.27999 12.928 6.31999 12.944 6.35999 12.96C6.39199 12.976 6.41599 13.008 6.43999 13.032C6.44799 13.032 6.45599 13.032 6.46399 13.032C6.47999 13.04 6.49599 13.048 6.51199 13.064V13.08C6.53599 13.088 6.55199 13.096 6.56799 13.12C6.59199 13.16 6.60799 13.2 6.61599 13.248C6.62399 13.296 6.58399 13.336 6.58399 13.384C6.58399 13.432 6.62399 13.488 6.60799 13.528C6.59199 13.568 6.53599 13.592 6.50399 13.624C6.47199 13.656 6.44799 13.696 6.40799 13.72C6.36799 13.744 6.32799 13.768 6.28799 13.776C6.27199 13.776 6.25599 13.776 6.24799 13.776C6.24799 13.816 6.24799 13.856 6.23199 13.888C6.20799 13.936 6.15199 13.952 6.11199 13.984C6.17599 13.992 6.24799 13.984 6.29599 14.016C6.35199 14.056 6.43999 14.08 6.47999 14.136C6.51999 14.192 6.49599 14.296 6.51199 14.36C6.52799 14.4 6.52799 14.448 6.53599 14.488C6.55199 14.488 6.56799 14.488 6.59199 14.488C6.59199 14.464 6.56799 14.432 6.57599 14.408C6.57599 14.376 6.61599 14.36 6.63199 14.328C6.64799 14.304 6.63199 14.248 6.64799 14.224C6.67199 14.2 6.71999 14.224 6.75199 14.208C6.76799 14.2 6.78399 14.176 6.79999 14.16C6.79999 14.16 6.79999 14.152 6.79199 14.144C6.76799 14.128 6.75199 14.104 6.73599 14.08C6.72799 14.064 6.72799 14.048 6.72799 14.032C6.71999 14.032 6.71199 14.04 6.69599 14.048C6.67999 14.048 6.66399 14.064 6.65599 14.064C6.63999 14.064 6.62399 14.048 6.61599 14.04C6.59999 14.04 6.57599 14.048 6.56799 14.04C6.55199 14.032 6.56799 14 6.55199 13.992C6.54399 13.976 6.51199 13.976 6.51199 13.96C6.51199 13.944 6.51999 13.928 6.51999 13.912C6.51999 13.896 6.52799 13.888 6.53599 13.872C6.53599 13.856 6.53599 13.84 6.53599 13.824C6.54399 13.808 6.55199 13.792 6.55999 13.784C6.57599 13.776 6.59199 13.784 6.60799 13.776C6.62399 13.776 6.63999 13.776 6.64799 13.768C6.66399 13.768 6.67199 13.776 6.68799 13.784C6.70399 13.784 6.71999 13.784 6.73599 13.792C6.73599 13.792 6.73599 13.792 6.74399 13.792C6.75999 13.784 6.76799 13.776 6.78399 13.76C6.79999 13.736 6.79999 13.688 6.82399 13.672C6.84799 13.656 6.88799 13.672 6.91199 13.664C6.94399 13.664 6.96799 13.648 6.99999 13.648C7.02399 13.648 7.05599 13.648 7.07999 13.664C7.04799 13.616 7.02399 13.568 7.00799 13.512C6.99199 13.456 7.00799 13.4 7.01599 13.344C7.01599 13.32 7.01599 13.296 7.00799 13.28C6.99999 13.28 6.98399 13.28 6.97599 13.28C6.90399 13.272 6.84799 13.184 6.78399 13.152C6.71999 13.12 6.66399 13.088 6.61599 13.032C6.55999 12.984 6.55199 12.912 6.51999 12.848C6.48799 12.784 6.41599 12.744 6.39999 12.672C6.39999 12.632 6.39999 12.592 6.39999 12.552C6.39999 12.552 6.39999 12.552 6.39999 12.544C6.39999 12.544 6.39999 12.544 6.39999 12.536V12.52C6.38399 12.536 6.36799 12.552 6.35199 12.568C6.31999 12.6 6.31199 12.656 6.27199 12.68C6.23199 12.704 6.19199 12.72 6.14399 12.728C6.11199 12.728 6.08799 12.728 6.06399 12.712L6.02399 12.72ZM5.92799 12.712C5.92799 12.712 5.95999 12.712 5.98399 12.712C5.98399 12.712 5.98399 12.712 5.97599 12.712C5.95999 12.712 5.95199 12.712 5.93599 12.72L5.92799 12.712ZM3.46399 10.376C3.46399 10.376 3.46399 10.416 3.47199 10.424C3.49599 10.464 3.55999 10.488 3.59199 10.52C3.59199 10.504 3.59199 10.488 3.59199 10.48C3.59199 10.456 3.59199 10.44 3.59199 10.416C3.57599 10.408 3.55999 10.4 3.53599 10.392C3.50399 10.392 3.47999 10.376 3.44799 10.368L3.46399 10.376ZM2.65599 9.19203C2.65599 9.19203 2.67999 9.19203 2.69599 9.20003C2.69599 9.20003 2.70399 9.20003 2.71199 9.20003C2.71199 9.17603 2.71199 9.15203 2.70399 9.12803C2.70399 9.12003 2.69599 9.11203 2.68799 9.10403C2.67199 9.13603 2.67199 9.16003 2.65599 9.19203ZM2.42399 6.95203C2.42399 6.95203 2.39999 6.92003 2.38399 6.90403C2.38399 6.91203 2.38399 6.92003 2.38399 6.92803C2.38399 6.94403 2.36799 6.96003 2.36799 6.97603C2.36799 6.97603 2.37599 6.99203 2.38399 6.99203C2.38399 6.99203 2.39199 6.99203 2.39999 7.00003C2.39999 6.98403 2.41599 6.96803 2.42399 6.95203ZM2.72799 6.33603C2.72799 6.33603 2.71999 6.33603 2.71199 6.33603C2.71199 6.35203 2.71199 6.36003 2.71199 6.37603C2.71199 6.36803 2.71999 6.35203 2.71999 6.34403L2.72799 6.33603ZM6.42399 2.71203C6.42399 2.71203 6.39999 2.68003 6.39199 2.67203C6.39199 2.68003 6.38399 2.69603 6.37599 2.71203C6.36799 2.73603 6.36799 2.76003 6.36799 2.78403C6.38399 2.76003 6.39999 2.74403 6.41599 2.72803C6.41599 2.72803 6.42399 2.72003 6.43199 2.71203H6.42399ZM7.12799 3.45603C7.12799 3.45603 7.11999 3.45603 7.11199 3.45603C7.11199 3.45603 7.11999 3.45603 7.12799 3.46403V3.45603ZM8.03999 1.88003C8.03999 1.88003 7.99999 1.84803 7.98399 1.82403C7.98399 1.84003 7.99199 1.85603 7.99199 1.87203C7.99199 1.88803 7.99199 1.91203 7.99199 1.92803C7.99199 1.92803 7.99999 1.92803 8.00799 1.92803C8.02399 1.92003 8.03199 1.89603 8.03999 1.88003ZM13.208 4.28003C13.256 4.31203 13.288 4.37603 13.336 4.40803C13.368 4.43203 13.384 4.45603 13.408 4.48803C13.408 4.45603 13.424 4.41603 13.432 4.37603C13.432 4.37603 13.416 4.36803 13.416 4.36003C13.416 4.35203 13.416 4.33603 13.416 4.32803C13.416 4.32003 13.416 4.31203 13.424 4.30403C13.424 4.29603 13.424 4.28003 13.424 4.27203C13.4 4.26403 13.384 4.25603 13.36 4.24803C13.312 4.24803 13.256 4.27203 13.208 4.28003ZM12.464 4.76003C12.464 4.76003 12.464 4.76803 12.464 4.77603C12.464 4.77603 12.464 4.76803 12.464 4.76003ZM12.672 4.45603C12.72 4.41603 12.728 4.30403 12.792 4.28003C12.848 4.25603 12.928 4.34403 12.992 4.34403C13.04 4.34403 13.096 4.29603 13.144 4.28003C13.088 4.24803 13.064 4.17603 13.016 4.13603C12.968 4.09603 12.92 4.05603 12.88 4.00003C12.848 3.94403 12.816 3.88803 12.8 3.82403C12.784 3.76003 12.784 3.69603 12.8 3.63203C12.8 3.60003 12.8 3.56003 12.8 3.52803C12.776 3.55203 12.752 3.56803 12.736 3.59203C12.704 3.62403 12.696 3.67203 12.656 3.68803C12.616 3.70403 12.576 3.72003 12.536 3.72803C12.496 3.73603 12.456 3.69603 12.416 3.68803C12.4 3.68803 12.376 3.68803 12.352 3.69603C12.328 3.72803 12.312 3.76003 12.296 3.79203C12.296 3.79203 12.304 3.79203 12.312 3.80003C12.36 3.84803 12.368 3.91203 12.4 3.96803C12.432 4.02403 12.504 4.06403 12.512 4.12803C12.528 4.19203 12.528 4.25603 12.52 4.32803C12.52 4.34403 12.504 4.35203 12.504 4.36803C12.504 4.36803 12.512 4.36803 12.52 4.38403C12.536 4.42403 12.52 4.48003 12.52 4.52003C12.52 4.52803 12.52 4.53603 12.52 4.55203C12.56 4.51203 12.624 4.50403 12.672 4.46403V4.45603ZM13.576 9.00003C13.576 9.00003 13.512 9.00003 13.48 8.98403C13.416 8.95203 13.36 8.90403 13.312 8.84803C13.264 8.79203 13.28 8.70403 13.248 8.64003C13.224 8.59203 13.184 8.56003 13.144 8.52003C13.144 8.52003 13.136 8.52003 13.128 8.52803C13.128 8.52803 13.136 8.52803 13.136 8.54403C13.136 8.56003 13.136 8.58403 13.136 8.60803C13.136 8.62403 13.136 8.64803 13.136 8.66403C13.136 8.68003 13.12 8.69603 13.104 8.71203C13.096 8.72803 13.096 8.75203 13.08 8.76003C13.104 8.80803 13.184 8.85603 13.184 8.90403C13.184 8.96003 13.112 9.01603 13.096 9.07203C13.096 9.09603 13.072 9.11203 13.056 9.12803C13.064 9.15203 13.08 9.16803 13.096 9.19203H13.104C13.12 9.20803 13.12 9.22403 13.12 9.24803C13.152 9.28803 13.168 9.33603 13.184 9.38403C13.184 9.38403 13.192 9.38403 13.2 9.37603C13.272 9.36003 13.336 9.41603 13.408 9.41603C13.448 9.41603 13.488 9.40003 13.528 9.38403C13.528 9.36803 13.512 9.36003 13.504 9.34403C13.496 9.30403 13.496 9.26403 13.496 9.22403C13.496 9.18403 13.48 9.13603 13.496 9.09603C13.512 9.05603 13.56 9.04003 13.584 9.00803L13.576 9.00003ZM14.336 7.71203C14.336 7.71203 14.296 7.73603 14.28 7.75203C14.264 7.76803 14.248 7.77603 14.24 7.78403C14.248 7.82403 14.264 7.84803 14.28 7.88003C14.288 7.88003 14.296 7.86403 14.304 7.86403C14.304 7.84803 14.304 7.83203 14.304 7.80803C14.304 7.77603 14.328 7.75203 14.344 7.72003L14.336 7.71203ZM14.424 12.344C14.424 12.344 14.36 12.296 14.328 12.264C14.296 12.24 14.264 12.216 14.232 12.2C14.192 12.184 14.152 12.184 14.112 12.184C14.072 12.184 14.04 12.192 14 12.208C13.96 12.216 13.912 12.208 13.88 12.224C13.848 12.248 13.856 12.312 13.824 12.344C13.808 12.368 13.784 12.376 13.76 12.392V12.384C13.72 12.368 13.664 12.408 13.616 12.416C13.616 12.416 13.616 12.416 13.608 12.408C13.592 12.392 13.584 12.36 13.56 12.352C13.536 12.344 13.512 12.352 13.488 12.352C13.464 12.352 13.448 12.376 13.424 12.376C13.4 12.376 13.384 12.376 13.36 12.392C13.344 12.4 13.304 12.4 13.288 12.416C13.272 12.432 13.288 12.472 13.288 12.496C13.288 12.512 13.248 12.528 13.24 12.544C13.208 12.584 13.192 12.624 13.176 12.664C13.16 12.704 13.16 12.752 13.16 12.8C13.16 12.848 13.12 12.896 13.128 12.944C13.136 12.992 13.208 13.008 13.232 13.048C13.256 13.088 13.248 13.144 13.288 13.176C13.328 13.208 13.36 13.232 13.408 13.248C13.448 13.264 13.496 13.248 13.544 13.248C13.592 13.248 13.632 13.272 13.672 13.264C13.72 13.256 13.752 13.24 13.792 13.216C13.832 13.192 13.896 13.192 13.928 13.16C13.96 13.12 13.96 13.064 13.976 13.024C13.976 13.008 13.976 12.984 13.976 12.968C14.008 12.968 14.032 12.968 14.064 12.968C14.104 12.968 14.136 12.928 14.176 12.92C14.216 12.912 14.256 12.92 14.288 12.896C14.32 12.872 14.384 12.88 14.408 12.848C14.432 12.816 14.408 12.752 14.416 12.712C14.432 12.672 14.504 12.648 14.504 12.608C14.504 12.568 14.448 12.528 14.432 12.488C14.424 12.448 14.44 12.4 14.416 12.36L14.424 12.344ZM11.088 14.488C11.088 14.488 11.088 14.488 11.08 14.48C11.08 14.48 11.08 14.48 11.08 14.472C11.08 14.472 11.08 14.472 11.072 14.472C11.072 14.472 11.064 14.472 11.056 14.472C11.056 14.472 11.048 14.472 11.04 14.472C11.04 14.472 11.04 14.472 11.032 14.48C11.032 14.48 11.032 14.48 11.024 14.48C11.024 14.48 11.016 14.48 11.016 14.488C11.016 14.488 11.016 14.496 11.016 14.504C11.016 14.504 11.016 14.512 11.016 14.52C11.016 14.52 11.024 14.52 11.032 14.528V14.536C11.032 14.536 11.04 14.536 11.048 14.536C11.048 14.536 11.056 14.536 11.064 14.536C11.064 14.536 11.072 14.536 11.08 14.536C11.08 14.536 11.08 14.536 11.088 14.536H11.096C11.096 14.536 11.096 14.528 11.096 14.52C11.096 14.52 11.096 14.52 11.096 14.512C11.096 14.512 11.096 14.504 11.096 14.496L11.088 14.488ZM9.35999 12.712C9.35999 12.712 9.34399 12.712 9.33599 12.704C9.33599 12.704 9.32799 12.696 9.31999 12.696C9.31999 12.696 9.30399 12.696 9.29599 12.696C9.29599 12.696 9.27999 12.696 9.27199 12.696C9.27199 12.696 9.26399 12.704 9.25599 12.712C9.25599 12.712 9.25599 12.728 9.24799 12.736C9.24799 12.736 9.23999 12.744 9.23999 12.752C9.23999 12.752 9.23199 12.768 9.23199 12.776L9.24799 12.792V12.816C9.24799 12.816 9.26399 12.816 9.27199 12.816C9.27199 12.816 9.27999 12.832 9.28799 12.832C9.28799 12.832 9.30399 12.832 9.31199 12.832C9.31199 12.832 9.32799 12.832 9.33599 12.832C9.33599 12.832 9.35199 12.824 9.35199 12.816C9.35199 12.816 9.35999 12.808 9.36799 12.8C9.36799 12.8 9.38399 12.792 9.38399 12.784C9.38399 12.784 9.38399 12.768 9.38399 12.76C9.38399 12.76 9.38399 12.744 9.38399 12.736C9.38399 12.736 9.38399 12.72 9.37599 12.72L9.35999 12.712ZM8.55999 15.368C8.55999 15.368 8.53599 15.336 8.51999 15.328C8.50399 15.32 8.48799 15.296 8.47199 15.296C8.45599 15.296 8.43999 15.328 8.41599 15.328C8.39999 15.328 8.36799 15.312 8.35199 15.328C8.33599 15.336 8.33599 15.368 8.32799 15.384C8.31199 15.4 8.28799 15.408 8.27999 15.424C8.27999 15.44 8.27999 15.464 8.27999 15.48C8.27999 15.496 8.27999 15.52 8.27999 15.536C8.27999 15.552 8.29599 15.568 8.30399 15.584C8.31199 15.6 8.32799 15.608 8.34399 15.624C8.35999 15.64 8.36799 15.656 8.38399 15.664C8.39999 15.664 8.42399 15.656 8.43999 15.656C8.45599 15.656 8.47199 15.672 8.49599 15.672C8.51199 15.672 8.52799 15.664 8.54399 15.648C8.55999 15.64 8.55999 15.616 8.57599 15.6C8.59199 15.584 8.60799 15.576 8.60799 15.56C8.60799 15.544 8.61599 15.528 8.62399 15.504C8.62399 15.488 8.63999 15.464 8.63999 15.448C8.63999 15.432 8.61599 15.416 8.60799 15.4C8.59999 15.384 8.57599 15.384 8.55999 15.368ZM2.71999 13.496C2.71999 13.496 2.67999 13.456 2.65599 13.44C2.63199 13.424 2.61599 13.384 2.58399 13.376C2.55199 13.368 2.51999 13.376 2.48799 13.376C2.45599 13.376 2.43999 13.408 2.40799 13.416C2.38399 13.424 2.35199 13.424 2.32799 13.44C2.30399 13.456 2.25599 13.456 2.23999 13.48C2.22399 13.504 2.25599 13.552 2.23999 13.584C2.23199 13.616 2.18399 13.64 2.18399 13.664C2.18399 13.696 2.23199 13.72 2.23999 13.744C2.24799 13.768 2.23999 13.808 2.25599 13.832C2.27199 13.856 2.31199 13.864 2.33599 13.88C2.35999 13.896 2.38399 13.912 2.41599 13.92C2.44799 13.928 2.47199 13.92 2.50399 13.92C2.53599 13.92 2.55999 13.904 2.58399 13.896C2.60799 13.888 2.64799 13.896 2.67199 13.872C2.69599 13.856 2.68799 13.808 2.70399 13.784C2.71999 13.76 2.75199 13.744 2.75999 13.72C2.76799 13.688 2.76799 13.664 2.76799 13.632C2.76799 13.6 2.73599 13.584 2.72799 13.552C2.71999 13.528 2.71999 13.496 2.70399 13.472L2.71999 13.496ZM2.22399 12.912C2.22399 12.912 2.19199 12.864 2.17599 12.84C2.15999 12.816 2.15999 12.784 2.14399 12.76C2.11999 12.736 2.10399 12.72 2.07999 12.712C2.05599 12.696 2.03199 12.656 2.00799 12.656C1.97599 12.656 1.94399 12.672 1.91999 12.672C1.88799 12.672 1.87199 12.712 1.84799 12.72C1.82399 12.736 1.79199 12.736 1.77599 12.752C1.75199 12.776 1.71199 12.776 1.69599 12.808C1.67999 12.832 1.71199 12.88 1.71199 12.904C1.71199 12.936 1.65599 12.968 1.66399 12.992C1.66399 13.024 1.71999 13.04 1.72799 13.064C1.74399 13.088 1.72799 13.128 1.75199 13.152C1.77599 13.176 1.80799 13.176 1.83199 13.192C1.85599 13.208 1.87999 13.216 1.91199 13.224C1.94399 13.224 1.96799 13.224 1.99999 13.224C2.03199 13.224 2.05599 13.2 2.07999 13.192C2.10399 13.176 2.14399 13.184 2.16799 13.16C2.19199 13.136 2.16799 13.096 2.19199 13.064C2.20799 13.04 2.23999 13.024 2.23999 12.992C2.23999 12.96 2.23999 12.936 2.23999 12.904L2.22399 12.912ZM0.831987 9.90403C0.831987 9.90403 0.831987 9.90403 0.831987 9.89603C0.831987 9.89603 0.831987 9.89603 0.823987 9.89603C0.823987 9.89603 0.823987 9.89603 0.815987 9.89603C0.815987 9.89603 0.815987 9.89603 0.807987 9.89603C0.807987 9.89603 0.807987 9.89603 0.799987 9.89603C0.799987 9.89603 0.799987 9.89603 0.799987 9.90403C0.799987 9.90403 0.799987 9.90403 0.791987 9.90403C0.791987 9.90403 0.791987 9.90403 0.791987 9.91203C0.791987 9.92003 0.791987 9.91203 0.791987 9.92003C0.791987 9.92003 0.791987 9.92003 0.799987 9.92003C0.799987 9.92003 0.799987 9.92003 0.807987 9.92003C0.807987 9.92003 0.807987 9.92003 0.815987 9.92003C0.815987 9.92003 0.815987 9.92003 0.823987 9.92003C0.823987 9.92003 0.823987 9.92003 0.823987 9.91203C0.823987 9.91203 0.823987 9.91203 0.823987 9.90403C0.823987 9.90403 0.823987 9.90403 0.823987 9.89603L0.831987 9.90403ZM0.335987 8.32803C0.335987 8.32803 0.367987 8.32803 0.375987 8.34403C0.383987 8.34403 0.391987 8.36803 0.407987 8.36803C0.423987 8.36803 0.431987 8.36803 0.447987 8.36803C0.463987 8.36803 0.471987 8.36803 0.487987 8.36803C0.503987 8.36803 0.511987 8.35203 0.519987 8.34403C0.527987 8.34403 0.535987 8.32803 0.543987 8.31203C0.543987 8.30403 0.567987 8.29603 0.567987 8.28003C0.567987 8.26403 0.559987 8.25603 0.559987 8.24003C0.559987 8.22403 0.567987 8.21603 0.559987 8.20003C0.551987 8.18403 0.551987 8.17603 0.543987 8.16803C0.543987 8.16003 0.519987 8.16003 0.511987 8.15203C0.503987 8.15203 0.495987 8.13603 0.479987 8.12803C0.463987 8.12803 0.455987 8.12803 0.439987 8.12803C0.423987 8.12803 0.415987 8.12003 0.399987 8.12803C0.383987 8.13603 0.375987 8.14403 0.367987 8.15203C0.359987 8.15203 0.359987 8.17603 0.351987 8.18403C0.351987 8.19203 0.335987 8.20003 0.327987 8.21603C0.327987 8.23203 0.311987 8.24003 0.311987 8.25603C0.311987 8.27203 0.335987 8.28003 0.335987 8.28803C0.335987 8.30403 0.335987 8.32003 0.335987 8.33603V8.32803ZM1.55199 5.96803C1.55199 5.96803 1.51999 5.94403 1.50399 5.93603C1.48799 5.92803 1.47199 5.90403 1.44799 5.89603C1.42399 5.89603 1.40799 5.92003 1.38399 5.92003C1.35999 5.92003 1.34399 5.91203 1.31999 5.92003C1.29599 5.92803 1.27999 5.94403 1.26399 5.95203C1.24799 5.96803 1.24799 5.99203 1.23999 6.00803C1.23199 6.02403 1.21599 6.04003 1.20799 6.06403C1.20799 6.08803 1.20799 6.10403 1.20799 6.12803C1.20799 6.15203 1.19199 6.17603 1.20799 6.20003C1.21599 6.22403 1.23999 6.23203 1.25599 6.24803C1.27199 6.26403 1.29599 6.26403 1.31199 6.27203C1.32799 6.28003 1.34399 6.29603 1.35999 6.30403C1.38399 6.30403 1.39999 6.33603 1.42399 6.33603C1.44799 6.33603 1.45599 6.29603 1.47999 6.28803C1.50399 6.28003 1.53599 6.29603 1.55199 6.28803C1.56799 6.27203 1.55199 6.23203 1.56799 6.21603C1.57599 6.20003 1.60799 6.18403 1.60799 6.16003C1.60799 6.13603 1.60799 6.11203 1.59999 6.09603C1.59999 6.07203 1.59999 6.05603 1.58399 6.03203C1.57599 6.00803 1.55999 6.00003 1.54399 5.98403L1.55199 5.96803ZM0.983987 5.38403C0.991987 5.42403 1.01599 5.46403 1.03999 5.50403C1.06399 5.54403 1.11199 5.54403 1.14399 5.57603C1.17599 5.60803 1.19999 5.64003 1.23999 5.65603C1.27999 5.67203 1.31999 5.68003 1.35999 5.68003C1.38399 5.68003 1.41599 5.69603 1.43999 5.70403C1.49599 5.72803 1.56799 5.70403 1.62399 5.71203C1.67999 5.71203 1.72799 5.66403 1.78399 5.64803C1.83999 5.63203 1.89599 5.64803 1.94399 5.61603C1.99199 5.58403 2.07999 5.60003 2.11999 5.55203C2.15999 5.51203 2.11999 5.40803 2.13599 5.35203C2.14399 5.32803 2.16799 5.31203 2.19199 5.29603C2.19199 5.29603 2.19199 5.31203 2.19199 5.32003C2.19199 5.32003 2.19199 5.33603 2.19199 5.34403C2.19199 5.34403 2.19199 5.36003 2.20799 5.36003C2.20799 5.36003 2.21599 5.36803 2.22399 5.37603C2.22399 5.37603 2.23199 5.39203 2.23999 5.39203C2.23999 5.39203 2.25599 5.39203 2.26399 5.39203C2.26399 5.39203 2.27999 5.39203 2.28799 5.39203C2.28799 5.39203 2.30399 5.39203 2.30399 5.38403C2.30399 5.38403 2.30399 5.36803 2.31199 5.36003C2.31199 5.36003 2.31999 5.35203 2.31999 5.34403C2.31999 5.34403 2.31999 5.32803 2.31999 5.32003C2.31999 5.32003 2.31999 5.30403 2.31999 5.29603C2.31999 5.29603 2.31199 5.28803 2.30399 5.28003C2.30399 5.28003 2.28799 5.28003 2.27999 5.27203C2.27999 5.27203 2.27199 5.26403 2.26399 5.26403C2.26399 5.26403 2.24799 5.25603 2.23999 5.25603C2.23999 5.25603 2.23199 5.27203 2.22399 5.27203C2.23999 5.25603 2.25599 5.24003 2.26399 5.22403C2.26399 5.16803 2.18399 5.11203 2.16799 5.04803C2.15199 4.99203 2.18399 4.91203 2.15199 4.86403C2.11999 4.81603 2.05599 4.79203 2.01599 4.75203C1.97599 4.71203 1.92799 4.68003 1.87199 4.65603C1.81599 4.63203 1.75999 4.63203 1.70399 4.62403C1.64799 4.62403 1.59199 4.64003 1.54399 4.64803C1.48799 4.66403 1.41599 4.63203 1.36799 4.66403C1.31999 4.69603 1.32799 4.78403 1.28799 4.83203C1.24799 4.87203 1.18399 4.88803 1.15999 4.94403C1.15999 4.94403 1.15999 4.94403 1.15199 4.94403C1.11199 4.96803 1.09599 5.00003 1.07199 5.04003C1.04799 5.07203 0.991987 5.09603 0.975987 5.13603C0.959987 5.17603 1.00799 5.22403 1.00799 5.27203C1.00799 5.31203 0.967987 5.35203 0.983987 5.40003V5.38403ZM2.59999 3.63203C2.59999 3.63203 2.60799 3.63203 2.61599 3.64803C2.61599 3.64803 2.62399 3.64803 2.63199 3.65603H2.64799C2.64799 3.65603 2.65599 3.65603 2.66399 3.65603H2.67999C2.67999 3.65603 2.67999 3.64003 2.68799 3.64003C2.68799 3.64003 2.69599 3.64003 2.70399 3.62403V3.60803C2.70399 3.60803 2.70399 3.60003 2.70399 3.59203V3.57603C2.70399 3.57603 2.70399 3.56803 2.68799 3.56003C2.68799 3.56003 2.68799 3.54403 2.67199 3.54403H2.65599C2.65599 3.54403 2.64799 3.54403 2.63999 3.54403H2.62399H2.60799C2.60799 3.54403 2.60799 3.56003 2.60799 3.56803C2.60799 3.56803 2.59199 3.57603 2.59199 3.58403L2.59999 3.60003C2.59999 3.60003 2.59999 3.61603 2.59999 3.62403V3.63203ZM3.59999 2.92003C3.59999 2.92003 3.59999 2.94403 3.61599 2.95203C3.62399 2.95203 3.63999 2.95203 3.65599 2.96003C3.66399 2.96003 3.67999 2.96003 3.68799 2.96803C3.70399 2.96803 3.71199 2.96803 3.71999 2.96803C3.72799 2.96803 3.74399 2.96003 3.75199 2.95203C3.75999 2.95203 3.77599 2.95203 3.78399 2.93603C3.78399 2.92803 3.78399 2.91203 3.78399 2.89603C3.78399 2.88803 3.79999 2.88003 3.79999 2.86403C3.79999 2.84803 3.79999 2.84003 3.79999 2.82403C3.79999 2.80803 3.78399 2.80803 3.77599 2.80003C3.77599 2.79203 3.76799 2.77603 3.75999 2.76803C3.75199 2.76803 3.74399 2.75203 3.72799 2.75203C3.71999 2.75203 3.70399 2.73603 3.69599 2.73603C3.67999 2.73603 3.67199 2.74403 3.65599 2.75203C3.64799 2.75203 3.63999 2.76803 3.63199 2.77603C3.62399 2.77603 3.60799 2.78403 3.59999 2.79203C3.59999 2.80003 3.57599 2.80803 3.56799 2.81603C3.56799 2.82403 3.58399 2.84003 3.57599 2.85603C3.57599 2.87203 3.55999 2.88803 3.55999 2.89603C3.55999 2.91203 3.58399 2.91203 3.59199 2.92003H3.59999ZM5.91199 4.44003C5.91199 4.44003 5.89599 4.44003 5.88799 4.43203C5.87999 4.43203 5.87199 4.41603 5.86399 4.41603C5.85599 4.41603 5.84799 4.43203 5.83999 4.43203C5.83199 4.43203 5.82399 4.43203 5.81599 4.43203C5.81599 4.43203 5.79999 4.44003 5.79999 4.44803C5.79999 4.44803 5.79999 4.46403 5.79999 4.47203C5.79999 4.48003 5.79199 4.48803 5.79199 4.49603C5.79199 4.50403 5.79199 4.51203 5.79199 4.52003C5.79199 4.52803 5.79199 4.54403 5.79199 4.55203C5.79199 4.55203 5.80799 4.56003 5.81599 4.56803C5.81599 4.56803 5.83199 4.56803 5.83999 4.56803C5.84799 4.56803 5.85599 4.57603 5.86399 4.57603C5.87199 4.57603 5.88799 4.58403 5.89599 4.57603C5.90399 4.57603 5.90399 4.56003 5.91199 4.55203C5.91199 4.55203 5.93599 4.55203 5.94399 4.54403C5.94399 4.54403 5.94399 4.52003 5.94399 4.51203C5.94399 4.50403 5.95999 4.49603 5.95999 4.48803C5.95999 4.48003 5.95999 4.47203 5.95199 4.46403C5.95199 4.45603 5.95199 4.44803 5.94399 4.44003L5.92799 4.42403L5.91199 4.44003ZM6.05599 4.31203C6.05599 4.31203 6.10399 4.29603 6.11999 4.28003C6.13599 4.25603 6.14399 4.24003 6.15199 4.21603C6.15999 4.19203 6.15199 4.16803 6.15199 4.14403C6.15199 4.12003 6.15999 4.09603 6.15199 4.07203C6.15199 4.04803 6.13599 4.02403 6.11999 4.00803C6.10399 3.98403 6.10399 3.95203 6.08799 3.93603C6.06399 3.92003 6.03199 3.92003 6.01599 3.91203C5.99199 3.90403 5.96799 3.92003 5.94399 3.92003C5.91999 3.92003 5.89599 3.91203 5.87199 3.92003C5.84799 3.92003 5.80799 3.92003 5.79199 3.92003C5.77599 3.93603 5.78399 3.97603 5.76799 4.00003C5.75199 4.02403 5.70399 4.02403 5.69599 4.04803C5.68799 4.07203 5.71999 4.10403 5.71999 4.12803C5.71999 4.15203 5.69599 4.18403 5.70399 4.20803C5.70399 4.23203 5.73599 4.24803 5.75199 4.27203C5.76799 4.29603 5.78399 4.31203 5.79999 4.32803C5.82399 4.34403 5.83999 4.35203 5.86399 4.36003C5.88799 4.36803 5.91199 4.36003 5.93599 4.36003C5.95999 4.36003 5.99199 4.37603 6.00799 4.36803C6.03199 4.36803 6.03999 4.32003 6.05599 4.30403V4.31203Z" fill="#26C8D2"/>
</g>
<defs>
<clipPath id="clip0_143_1282">
<rect width="16" height="16" fill="white"/>
</clipPath>
</defs>
</svg>
