<svg width="32" height="32" viewBox="0 0 32 32" fill="none" xmlns="http://www.w3.org/2000/svg">
<g clip-path="url(#clip0_149_6352)">
<path d="M9.39992 11.6039C9.52375 11.7279 9.6708 11.8263 9.83266 11.8934C9.99453 11.9605 10.168 11.995 10.3433 11.995C10.5185 11.995 10.692 11.9605 10.8538 11.8934C11.0157 11.8263 11.1628 11.7279 11.2866 11.6039L14.6666 8.22261V19.9999C14.6666 20.3536 14.8071 20.6927 15.0571 20.9428C15.3072 21.1928 15.6463 21.3333 15.9999 21.3333C16.3535 21.3333 16.6927 21.1928 16.9427 20.9428C17.1928 20.6927 17.3333 20.3536 17.3333 19.9999V8.22261L20.7146 11.6039C20.8385 11.7277 20.9855 11.8259 21.1473 11.8929C21.3092 11.9598 21.4826 11.9943 21.6577 11.9942C21.8329 11.9942 22.0063 11.9596 22.168 11.8925C22.3298 11.8254 22.4768 11.7272 22.6006 11.6033C22.7244 11.4794 22.8226 11.3323 22.8895 11.1705C22.9565 11.0087 22.9909 10.8353 22.9909 10.6601C22.9908 10.485 22.9562 10.3116 22.8892 10.1498C22.8221 9.98805 22.7238 9.84107 22.5999 9.71728L16.9426 4.06128C16.6925 3.81132 16.3535 3.6709 15.9999 3.6709C15.6464 3.6709 15.3073 3.81132 15.0573 4.06128L9.39992 9.71728C9.27595 9.84111 9.1776 9.98816 9.11051 10.15C9.04341 10.3119 9.00887 10.4854 9.00887 10.6606C9.00887 10.8358 9.04341 11.0093 9.11051 11.1712C9.1776 11.3331 9.27595 11.4801 9.39992 11.6039ZM25.3333 27.9999C25.6869 27.9999 26.026 27.8595 26.2761 27.6094C26.5261 27.3594 26.6666 27.0202 26.6666 26.6666C26.6666 26.313 26.5261 25.9739 26.2761 25.7238C26.026 25.4738 25.6869 25.3333 25.3333 25.3333H6.66659C6.31296 25.3333 5.97382 25.4738 5.72378 25.7238C5.47373 25.9739 5.33325 26.313 5.33325 26.6666C5.33325 27.0202 5.47373 27.3594 5.72378 27.6094C5.97382 27.8595 6.31296 27.9999 6.66659 27.9999H25.3333Z" fill="#FBFAF5"/>
</g>
<defs>
<clipPath id="clip0_149_6352">
<rect width="32" height="32" fill="white"/>
</clipPath>
</defs>
</svg>
