<svg width="32" height="32" viewBox="0 0 32 32" fill="none" xmlns="http://www.w3.org/2000/svg">
<path d="M12.6667 11.9999H12.68M19.3333 11.9999H19.3467M24 5.33325C25.0609 5.33325 26.0783 5.75468 26.8284 6.50482C27.5786 7.25497 28 8.27239 28 9.33325V19.9999C28 21.0608 27.5786 22.0782 26.8284 22.8283C26.0783 23.5785 25.0609 23.9999 24 23.9999H17.3333L10.6667 27.9999V23.9999H8C6.93913 23.9999 5.92172 23.5785 5.17157 22.8283C4.42143 22.0782 4 21.0608 4 19.9999V9.33325C4 8.27239 4.42143 7.25497 5.17157 6.50482C5.92172 5.75468 6.93913 5.33325 8 5.33325H24Z" stroke="#FBFAF5" stroke-width="2" stroke-linecap="round" stroke-linejoin="round"/>
<path d="M12.6667 17.3333C13.1013 17.7767 13.6199 18.129 14.1923 18.3695C14.7646 18.61 15.3792 18.7339 16.0001 18.7339C16.6209 18.7339 17.2355 18.61 17.8079 18.3695C18.3803 18.129 18.8989 17.7767 19.3334 17.3333" stroke="#FBFAF5" stroke-width="2" stroke-linecap="round" stroke-linejoin="round"/>
</svg>
