<svg width="110" height="290" viewBox="0 0 110 290" fill="none" xmlns="http://www.w3.org/2000/svg">
<g clip-path="url(#clip0_51_609)">
<path d="M78.28 17.04C75.56 20.24 74.68 20.64 73.8 20.64C72.72 20.64 71.92 19.8 71.92 18.84C71.92 18.36 72.12 17.84 72.6 17.4C76.52 13.92 80.04 9.12004 82.16 3.68004C82.52 2.80004 83.24 2.40004 83.96 2.40004C85.04 2.40004 86.16 3.24004 86.16 4.40004C86.16 5.56004 83.52 9.84004 82.2 11.84L81.76 35.44C81.72 36.64 80.72 37.24 79.72 37.24C78.72 37.24 77.76 36.68 77.76 35.52V35.44L78.28 17.04ZM84.68 35.55C83.32 35.55 82.68 34.67 82.68 33.79C82.68 32.91 83.36 32.03 84.68 32.03L93.48 32.07V23.67L87.6 23.71C86.32 23.71 85.64 22.83 85.64 21.99C85.64 21.15 86.32 20.27 87.6 20.27L93.48 20.31V13.59L86.76 13.63C85.44 13.63 84.8 12.75 84.8 11.91C84.8 11.07 85.44 10.19 86.76 10.19H104.92C106.2 10.19 106.84 11.07 106.84 11.95C106.84 12.83 106.2 13.63 104.92 13.63L97.36 13.59V20.31L103.44 20.27C104.72 20.27 105.36 21.15 105.36 21.99C105.36 22.83 104.72 23.71 103.44 23.71L97.36 23.67V32.07L106.68 32.03C107.88 32.03 108.52 32.95 108.52 33.83C108.52 34.71 107.92 35.55 106.68 35.55H84.68ZM96.04 8.20004C94.6 6.72004 92.6 5.68004 91.32 5.20004C90.6 4.92004 90.28 4.44004 90.28 3.88004C90.28 2.96004 91.24 1.92004 92.44 1.92004C93.2 1.92004 99.52 4.00004 99.52 6.60004C99.52 7.76004 98.52 8.84004 97.4 8.84004C96.96 8.84004 96.48 8.64004 96.04 8.20004Z" fill="#262B58"/>
<path d="M89.36 59.49C92.36 59.61 95.32 60.29 98.04 61.25C98.28 59.61 98.12 58.13 97.48 57.05C96.36 55.17 99.96 53.65 101.28 56.13C102.16 57.73 102.28 60.13 101.68 62.77C103.76 63.77 105.64 64.97 107.2 66.17C109.72 68.13 107 71.81 104.72 69.73C103.4 68.53 101.96 67.45 100.36 66.49C98.88 69.49 96.36 72.49 92.76 74.61C89.96 76.25 87.96 73.13 90.56 71.53C93.56 69.69 95.64 67.21 96.88 64.77C93.92 63.53 90.76 62.81 87.56 62.77C86.08 65.85 84.72 68.33 82.44 70.09C80.04 71.97 76.52 72.21 74.8 70.09C72.76 67.53 74.24 63.37 78.84 61.33C80.96 60.41 83.2 59.85 85.4 59.61C86.8 56.61 88.64 52.97 89.76 50.45C90 49.89 90.12 49.57 89.52 49.73C87.96 50.13 86.44 50.65 84.8 50.69C82.16 50.77 82.28 47.05 84.68 46.89C86.28 46.81 88.72 46.21 90.44 45.89C94.08 45.17 95.68 47.53 93.88 50.45C92.2 53.25 90.6 56.49 89.16 59.49H89.36ZM79.96 64.29C78.92 64.81 77.04 66.49 77.72 67.49C78.2 68.17 79.64 67.93 80.36 67.37C81.68 66.37 82.76 64.73 83.68 63.09C82.64 63.25 81.44 63.57 79.96 64.29Z" fill="#262B58"/>
<path d="M71.72 98.48C71.72 98.08 71.84 97.64 72.12 97.16C73.12 95.52 73.64 93.44 73.64 91.4C73.64 90.28 74.44 89.76 75.28 89.76C75.52 89.76 77.12 89.8 77.12 91.76C77.12 94 75.92 100.2 73.44 100.2C72.52 100.2 71.72 99.48 71.72 98.48ZM77.92 83.64C77.92 82.44 78.84 81.88 79.8 81.88C80.76 81.88 81.72 82.48 81.72 83.64V89.64C82 89.44 82.4 89.32 82.76 89.32C84.2 89.32 85.92 92.72 85.92 93.6C85.92 94.68 85 95.4 84.2 95.4C83.68 95.4 83.2 95.12 83 94.48C82.68 93.44 82.12 92.44 81.72 91.8V115.4C81.72 116.52 80.76 117.08 79.8 117.08C78.84 117.08 77.92 116.52 77.92 115.4V83.65V83.64ZM100.32 110.95C100.4 110.99 100.44 111.03 100.52 111.07C101.88 111.95 104.52 112.87 106.8 113.07C107.92 113.15 108.44 113.99 108.44 114.83C108.44 115.79 107.76 116.79 106.6 116.79C104.68 116.79 97.8 114.47 97.8 112.39C97.8 111.83 98.16 111.27 98.64 110.99C97.72 110.99 96.76 111.03 95.84 111.03C94.92 111.03 94 110.99 93.04 110.99C93.6 111.27 94 111.87 94 112.51C94 112.95 93.8 113.43 93.32 113.79C91.24 115.47 86.96 116.99 84.72 116.99C83.52 116.99 82.84 116.07 82.84 115.11C82.84 114.31 83.36 113.51 84.52 113.39C86.88 113.15 89.72 112.27 91.36 111.15C91.48 111.07 91.6 110.99 91.72 110.95H90.64C88.12 110.91 87.04 109.79 86.96 107.63C86.92 106.43 86.92 104.99 86.92 103.55C86.92 102.11 86.92 100.67 86.96 99.51C87 97.95 87.72 96.39 90.6 96.27C92.12 96.23 93.72 96.19 95.4 96.19C97.4 96.19 99.48 96.23 101.44 96.27C103.68 96.31 105 97.43 105.12 99.27C105.2 100.39 105.24 101.91 105.24 103.39C105.24 109.03 105.24 110.83 101.24 110.95H100.32ZM105.51 90.56C105.47 90.84 105.47 91.16 105.43 91.4C105.15 93.56 104.07 94.72 101.31 94.8C99.27 94.84 97.39 94.88 95.59 94.88C88.03 94.88 86.39 94.88 86.39 91.64V91.44C86.39 91.2 86.43 90.88 86.43 90.56H85.19C84.27 90.56 83.83 89.8 83.83 89.04C83.83 88.28 84.27 87.52 85.19 87.52H86.67C86.91 85.04 87.11 83.28 90.99 83.12C92.79 83.04 94.63 83.04 96.51 83.04C98.39 83.04 100.39 83.04 102.43 83.12C104.87 83.2 105.83 84.52 105.83 86.16V86.24C105.83 86.6 105.79 87.04 105.75 87.52H107.47C108.43 87.52 108.95 88.28 108.95 89.08C108.95 89.8 108.47 90.56 107.47 90.56H105.51ZM94.28 90.2H89.88V91.08C89.88 92.24 89.96 92.28 94.12 92.28L94.28 90.2ZM94.64 85.56C93.64 85.56 92.64 85.56 91.76 85.6C90.32 85.64 90.28 86.16 90.08 87.88H94.44L94.64 85.56ZM101.75 102.64H90.23V104.4H101.75V102.64ZM101.67 99.76C101.67 98.64 100.67 98.64 95.63 98.64C90.95 98.64 90.39 98.72 90.31 99.88L90.27 100.4H101.71L101.67 99.76ZM90.28 106.64C90.28 106.96 90.32 107.24 90.32 107.52C90.36 108.48 90.52 108.64 95.96 108.64C100.92 108.64 101.6 108.64 101.68 107.4C101.68 107.16 101.72 106.88 101.72 106.64H90.28ZM97.56 90.2L97.4 92.28C98.44 92.28 99.48 92.28 100.48 92.24C101.76 92.2 101.84 91.8 102.08 90.2H97.56ZM102.28 87.88C102.32 87.48 102.32 87.08 102.32 86.8C102.32 85.6 102.28 85.56 97.88 85.56L97.72 87.88H102.28Z" fill="#262B58"/>
<path d="M79.88 150.72C78.08 153.88 74.04 151.44 76.24 148.84C76.36 148.68 76.48 148.56 76.56 148.48C78.32 146.08 80.92 142.6 82.52 139.56C82.6 138.76 82.64 138 82.72 137.2C81.8 137.52 80.68 138 79.68 138.64C76.92 140.4 75.68 136.48 77.84 135.48C79.28 134.8 81.2 134 83.08 133.28C83.36 130.28 83.68 127.6 83.88 125.84C84.2 123.2 87.96 124.04 87.56 126.24C87.28 127.68 87 129.68 86.72 132C88 131.84 89.12 133.04 88.52 134.92C89 134.48 89.48 134.04 89.92 133.68C96.12 128.6 101.92 128.96 101.4 136.92C101.24 139.32 100.6 143.56 100.4 145.84C100 150.4 102.36 149.92 105.04 147.08C107.08 144.92 109.6 147.84 107.92 149.72C102.84 155.28 95.68 154.64 96.6 145.8C96.8 143.68 97.52 139.36 97.64 136.96C97.76 134.12 97.16 131.96 91.56 136.6C89.64 138.2 87.76 139.64 85.84 141.8C85.6 146.24 85.64 150.64 86.16 153.68C86.64 156.44 82.44 157.36 82.12 154C81.96 152.24 81.96 149.6 82.08 146.6C81.24 148.04 80.52 149.56 79.88 150.72Z" fill="#262B58"/>
<path d="M80.64 193.54C79.44 196.22 75.2 195.06 76.88 191.66C78.6 188.14 81.44 182.06 83.88 174.3C81.76 174.54 79.72 174.46 78.04 173.74C76 172.86 76.4 169.22 79.4 170.3C81.08 170.9 83.04 170.9 84.92 170.54C85.16 169.06 85 167.98 84.88 166.22C84.72 163.94 88.48 163.82 88.88 166.02C89.04 167.02 89.04 168.1 88.92 169.22C89.48 168.94 89.96 168.66 90.44 168.38C92.52 167.02 95 170.34 92 171.82C90.88 172.38 89.44 172.98 87.96 173.42C85.44 182.18 82.6 189.1 80.64 193.54ZM90.36 191.74C88.64 189.82 91.12 186.66 93.2 188.78C95.24 190.86 97.68 190.66 102.36 190.26C105.28 190.02 105.52 193.86 102.88 194.38C97.08 195.54 92.12 193.7 90.36 191.74ZM94.88 177.78C92.8 178.54 91.56 175.26 94.2 174.34C96.24 173.62 99.88 173.14 103.8 174.54C106.48 175.5 105.4 179.02 102.88 178.18C100.64 177.42 97 176.98 94.88 177.78Z" fill="#262B58"/>
<path d="M98 210.44H91.32C91.36 212.08 91.36 214 91.36 215.92C91.36 219.44 91.32 222.96 91.24 225.04C91.16 227.2 89.56 229 87.08 229.16C85.68 229.24 84.16 229.32 82.68 229.32C81.2 229.32 79.76 229.24 78.4 229.16C75.72 228.96 74.4 227.36 74.32 225.08C74.28 223 74.24 219.6 74.24 216.2C74.24 212.8 74.28 209.4 74.32 207.32C74.36 205.44 75.48 203.56 78.44 203.4C79.88 203.32 81.32 203.32 82.76 203.32C84.2 203.32 85.68 203.32 87.08 203.4C89.6 203.52 91.12 205 91.24 206.92H106.32C107.6 206.92 108.24 207.8 108.24 208.68C108.24 209.56 107.6 210.44 106.28 210.44H101.88V225.32L101.96 231.2V231.28C101.96 233.72 100.16 236.76 95.16 236.76C90.16 236.76 89.96 235.28 89.96 234.36C89.96 233.44 90.68 232.44 91.84 232.44C92.04 232.44 92.24 232.48 92.48 232.52C93.36 232.76 94.28 232.92 95.12 232.92C96.72 232.92 98 232.32 98 230.44V210.44ZM81 206.48C78.76 206.48 77.88 206.64 77.8 208.2C77.76 209.52 77.68 211.64 77.68 213.92H81V206.48ZM81 217.04H77.68C77.68 219.92 77.72 222.72 77.8 224.4C77.84 225.48 78.44 225.96 79.52 226C80 226 80.48 226.04 81 226.04V217.04ZM87.92 213.92C87.92 211.6 87.92 209.52 87.88 208.24C87.84 206.64 87.2 206.48 84.48 206.48V213.92H87.92ZM84.48 217.04V226.08C86.52 226.08 87.84 225.92 87.88 224.32C87.92 222.72 87.92 219.92 87.92 217.04H84.48Z" fill="#262B58"/>
<path d="M86.76 256.01C87.16 255.25 87.52 254.61 88.04 253.93C88.68 253.09 88.48 253.13 87.72 253.37C84.72 254.33 85.4 254.33 82.68 255.37C81.4 255.85 80.28 256.25 79.08 256.57C75.56 257.53 74.48 252.93 77.68 252.25C78.52 252.05 80.84 251.61 82.12 251.29C84.08 250.81 87.6 250.01 91.68 248.85C95.8 247.69 99.04 246.73 102.56 246.49C105.04 246.33 105.72 248.29 105.28 249.57C105.04 250.25 104.16 251.05 101.36 250.89C99.32 250.77 96.8 251.53 95.44 252.01C93.2 252.81 91.16 255.21 90.28 256.69C86.76 262.57 89.44 270.97 98.4 270.65C102.6 270.49 102.88 275.21 98.64 275.17C86.56 275.13 82.4 264.05 86.76 256.01ZM99.08 258.65C96.96 257.73 98.56 255.25 100.52 255.97C101.64 256.37 103.8 257.49 104.72 258.49C106.36 260.25 103.88 262.81 102.48 261.17C101.92 260.53 99.92 259.01 99.08 258.65ZM103.12 255.17C100.96 254.33 102.52 251.77 104.48 252.41C105.6 252.77 107.76 253.85 108.72 254.81C110.4 256.49 108.04 259.13 106.6 257.53C106.04 256.89 103.96 255.49 103.12 255.17Z" fill="#262B58"/>
<path d="M104.71 288.64C103.71 287.16 101.51 285.32 99.79 284.44C99.03 284.04 98.71 283.44 98.71 282.84C98.71 281.92 99.43 281.08 100.59 281.08C101.99 281.08 108.39 284.6 108.39 287.32C108.39 288.6 107.31 289.52 106.23 289.52C105.67 289.52 105.11 289.24 104.71 288.64Z" fill="#262B58"/>
<path d="M12.88 24.42C11.48 20.54 13.64 17.66 16.08 16.9C17.24 16.54 18.44 16.38 19.52 16.54C19.48 15.66 19.44 14.46 19.4 13.3C16.04 13.62 12.72 14.1 10.64 14.42C7.76 14.86 5.88 15.38 4.68 15.58C2 16.06 1.2 12.06 4.36 11.54C5.96 11.26 8.56 10.98 10.24 10.7C12.24 10.38 15.84 9.93998 19.36 9.61998V8.89998C19.4 6.41998 19.16 6.25998 19.16 4.97999C19.16 2.05999 23.2 2.33999 23.36 4.85999C23.4 5.77999 23.28 7.61998 23.2 8.69998C23.2 8.89998 23.16 9.09999 23.16 9.29998C24.32 9.21999 25.36 9.17999 26.24 9.17999C28.2 9.17999 29.6 9.13999 32.32 9.17999C35.68 9.25998 35.52 13.5 32.32 13.26C29.48 13.02 28.52 13.02 26.04 12.98C25.12 12.98 24.16 13.02 23.12 13.06C23.16 14.34 23.2 15.58 23.2 16.74C23.2 17.3 23.28 18.14 23.32 19.02C26.88 24.62 22.64 33.1 18.4 36.5C15.72 38.62 12.24 35.78 15.72 33.3C17.64 31.94 19.32 29.7 20.28 27.42C17.64 28.78 14.16 28.02 12.88 24.42ZM19.6 20.22C19.04 19.74 17.88 19.66 17.04 20.06C16.08 20.5 15.44 21.74 15.88 23.1C16.6 25.26 20.08 25.26 20.48 22.42C20.6 21.58 20.48 21.22 20.24 20.9C20.04 20.66 19.84 20.42 19.6 20.22ZM29.24 7.73998C28.84 7.01999 27.16 5.33999 26.44 4.85999C24.6 3.65999 26.52 1.53998 28.24 2.53998C29.2 3.09998 31.04 4.53999 31.76 5.61999C33 7.53999 30.28 9.49998 29.24 7.73998ZM34.11 5.41999C33.43 4.73999 31.95 3.01998 31.19 2.57998C29.31 1.45998 31.15 -0.700015 32.91 0.219985C33.91 0.739985 35.79 2.13999 36.55 3.17999C37.87 5.05999 35.55 6.85999 34.11 5.41999Z" fill="#262B58"/>
<path d="M20.68 69.51C19.32 69.51 18.64 68.63 18.64 67.71C18.64 66.79 19.28 65.95 20.52 65.75C29.72 64.43 31 59.87 31 58.67C31 56.79 29.28 55.07 25.96 55.07C24.88 55.07 23.76 55.27 22.76 55.55C19.88 56.43 17.28 58.03 14.56 59.27C14.16 59.47 13.8 59.55 13.44 59.55C12.28 59.55 11.52 58.55 11.52 57.59C11.52 56.87 11.92 56.15 12.84 55.75C15.4 54.71 18.88 53.11 22.04 52.31C23.24 52.03 24.6 51.83 25.96 51.83C31.28 51.83 34.72 55.11 34.72 58.79C34.72 61.15 33.36 63.47 31.16 65.31C26.8 68.95 21.04 69.51 20.68 69.51Z" fill="#262B58"/>
<path d="M10.6 89.24C8.52 86.68 12.44 84.52 14.04 86.8C15.76 89.24 17.56 92.8 18.72 96.12C20.88 94.6 23.16 93.16 25.76 91.72C28.48 90.2 30.56 94.04 27.48 95.6C23.4 97.68 19.28 100 16.12 102.68C12.16 106.04 12.04 109.04 15.16 110.56C17.96 111.96 23.68 110.92 26.08 110.04C29.44 108.76 30.64 113.36 27.08 114.36C23.92 115.24 17.24 116.04 13.28 114.04C7.52 111.12 7.76 104.64 14.24 99.48C14.64 99.16 15 98.84 15.4 98.56C14.36 95.4 12.44 91.48 10.6 89.24Z" fill="#262B58"/>
<path d="M2.92 156.87C1.64 156.87 1 155.87 1 154.87C1 154.07 1.4 153.31 2.24 153.11C10.36 151.07 12.12 144.91 12.52 139.55C12.6 138.31 13.44 137.83 14.36 137.83C15.4 137.83 16.56 138.55 16.56 139.67V139.83C15.96 146.19 13.4 154.15 3.72 156.75C3.44 156.83 3.16 156.87 2.92 156.87ZM33.47 137.32L23.71 137.2C23.67 140.8 23.55 147.76 23.55 150.12C23.55 151.6 23.55 152.64 26.99 152.64C29.47 152.64 31.51 152.16 31.51 148.68C31.51 147.36 32.43 146.8 33.39 146.8C33.63 146.8 35.55 146.84 35.55 148.92C35.55 156.16 29.51 156.24 26.39 156.24C22.59 156.24 19.71 155.56 19.71 151.48C19.71 150.2 19.75 141.36 19.83 137.2C17.11 137.2 13.75 137.2 3.51 137.32H3.47C2.27 137.32 1.63 136.4 1.63 135.48C1.63 134.56 2.27 133.64 3.51 133.64H33.47C34.67 133.64 35.27 134.56 35.27 135.52C35.27 136.4 34.71 137.32 33.51 137.32H33.47ZM7.8 128.08C6.56 128.08 5.96 127.16 5.96 126.24C5.96 125.32 6.56 124.44 7.8 124.44H28.92C30.16 124.44 30.8 125.36 30.8 126.28C30.8 127.2 30.2 128.08 28.92 128.08H7.8Z" fill="#262B58"/>
<path d="M4.6 196.63C3.48 196.63 2.76 195.71 2.76 194.79C2.76 194.15 3.12 193.51 3.96 193.15C7.12 191.79 9.8 190.03 12.16 187.75C10.92 187.03 9.64 186.39 8.48 185.83C7.76 185.47 7.44 184.91 7.44 184.31C7.44 183.43 8.2 182.51 9.24 182.51C10.08 182.51 13.12 184.19 14.6 185.07C15.72 183.71 16.76 182.19 17.8 180.51C18.2 179.87 18.76 179.59 19.36 179.59C20.36 179.59 21.36 180.43 21.36 181.51C21.36 181.83 21.28 182.75 17.68 186.99C21.96 189.87 22.28 191.07 22.28 191.75C22.28 192.91 21.32 193.91 20.28 193.91C19.8 193.91 19.28 193.67 18.84 193.15C17.84 191.95 16.56 190.79 15.16 189.75C9.76 195.15 5.28 196.63 4.6 196.63ZM11.2 168.6C7.48 174.36 6.16 174.56 5.52 174.56C4.48 174.56 3.56 173.8 3.56 172.88C3.56 172.44 3.76 172 4.24 171.56C7.12 169.04 8.92 165.4 10.28 162.36C10.6 161.68 11.2 161.4 11.84 161.4C12.88 161.4 13.96 162.16 13.96 163.2C13.96 163.48 13.92 163.88 13.16 165.24L30.92 165.2C32.08 165.2 32.68 166.04 32.68 166.88C32.68 167.72 32.08 168.6 30.88 168.6H11.2ZM6.44 178.6C5.4 178.6 4.84 177.8 4.84 177C4.84 176.2 5.4 175.4 6.44 175.4H25.56C27.76 175.44 29.92 176.8 29.92 179.24C29.92 180.24 29.84 181.68 29.84 183.32C29.84 190.24 32.12 192.16 32.48 192.16C32.96 192.16 33.4 191.24 33.68 189C33.8 188 34.56 187.56 35.32 187.56C36.28 187.56 37.28 188.2 37.28 189.4C37.28 191.6 35.68 196.36 32.4 196.36C31.56 196.36 26.04 196.08 26.04 180.84C26.04 179.76 26.04 178.6 24.28 178.6H6.44ZM11.56 173.4C10.52 173.4 10 172.68 10 171.96C10 171.2 10.52 170.48 11.56 170.48H27.6C28.64 170.48 29.12 171.2 29.12 171.92C29.12 172.68 28.64 173.4 27.6 173.4H11.56Z" fill="#262B58"/>
<path d="M6.92 233.56C3.72 225.68 6.88 213.84 7.6 209.08C8.04 206.12 11.92 207 11.48 209.32C10.84 212.56 8.44 221.96 9.4 225.68C9.52 226.2 9.68 226.08 9.84 225.72C9.92 225.52 10.36 224.72 10.52 224.44C11.76 222.48 14.24 224.4 13.32 226C11.84 228.6 11.2 230.44 10.96 231.6C10.72 232.68 11.2 233.92 10.2 234.8C9.2 235.68 7.72 235.52 6.92 233.56ZM17.64 230.72C16 228.92 18.4 226.08 20.48 227.96C22.64 229.92 27.44 229.28 30.56 228.64C33.8 227.96 34 232.2 31.36 232.88C27.08 233.96 20.52 233.84 17.64 230.72ZM19.92 214.76C17.72 215.32 16.44 211.76 19.36 211.04C22.92 210.16 27.08 210.12 29.88 210.8C32.68 211.48 31.92 215.24 29.2 214.64C26.32 214.04 23.28 213.92 19.92 214.76Z" fill="#262B58"/>
</g>
<defs>
<clipPath id="clip0_51_609">
<rect width="110" height="290" fill="white"/>
</clipPath>
</defs>
</svg>
