<svg width="240" height="34" viewBox="0 0 240 34" fill="none" xmlns="http://www.w3.org/2000/svg">
<g clip-path="url(#clip0_65_963)">
<path d="M54.0655 28.99C54.0655 29.276 54.0219 29.892 53.2582 29.892C52.6473 29.892 52.3637 29.672 52.3637 28.99V19.838C52.0582 20.828 51.36 22.456 50.9019 23.248C50.5964 23.798 50.291 24.216 49.8764 24.216C49.4401 24.216 48.9382 23.732 48.9382 23.16C48.9382 22.83 49.0255 22.698 49.7455 21.62C51.011 19.75 51.7964 17.616 52.3419 15.438H50.0946C49.8546 15.438 49.1782 15.438 49.1782 14.624C49.1782 13.964 49.4619 13.7 50.0946 13.7H52.3637V10.158C52.3637 9.85 52.3855 9.256 53.2146 9.256C53.8473 9.256 54.0655 9.608 54.0655 10.158V13.7H55.8546C56.1601 13.7 56.6837 13.744 56.6837 14.558C56.6837 15.306 56.291 15.438 55.8546 15.438H54.0655V16.274C54.9601 18.364 55.8546 19.508 55.9855 19.684C56.9455 20.85 56.9673 20.872 56.9673 21.18C56.9673 21.576 56.5964 22.06 56.1382 22.06C55.7673 22.06 55.5491 21.796 55.2437 21.29C55.091 21.07 54.5237 20.168 54.0655 18.98V28.99ZM64.5382 19.728C65.0182 20.894 66.371 23.732 69.0764 26.152C69.4037 26.438 69.6 26.658 69.6 27.01C69.6 27.516 69.1201 28.132 68.6182 28.132C68.051 28.132 67.091 26.922 66.5891 26.262C65.171 24.414 64.4291 22.962 63.8619 21.62V28.99C63.8619 29.628 63.6 29.892 62.9673 29.892C62.1382 29.892 62.1382 29.21 62.1382 28.99V21.576C61.2 23.512 60.0219 25.316 58.5164 26.856C57.4255 27.956 57.251 28.088 56.8582 28.088C56.2691 28.088 55.8764 27.538 55.8764 27.054C55.8764 26.988 55.8764 26.79 56.051 26.592C56.1382 26.46 57.2291 25.47 57.4473 25.294C58.4291 24.414 60.3055 22.236 61.4619 19.728H57.1855C56.7928 19.728 56.2691 19.662 56.2691 18.892C56.2691 18.078 56.9237 18.056 57.1855 18.056H62.1382V14.712H59.2364C58.9746 15.24 58.6473 15.922 58.1019 16.67C57.8619 17.022 57.6437 17.154 57.3819 17.154C57.0328 17.154 56.4655 16.824 56.4655 16.296C56.4655 16.12 56.5091 15.966 56.7928 15.592C57.4255 14.734 58.2328 13.502 58.7128 11.236C58.9746 10.004 59.04 9.718 59.6291 9.718C59.9782 9.718 60.48 9.916 60.48 10.422C60.48 10.73 60.2619 11.896 59.9128 13.018H62.1382V10.18C62.1382 9.784 62.2255 9.256 63.011 9.256C63.84 9.256 63.8619 9.872 63.8619 10.18V13.018H68.051C68.5091 13.018 68.9673 13.128 68.9673 13.876C68.9673 14.668 68.3782 14.712 68.051 14.712H63.8619V18.056H68.64C69.1855 18.056 69.5346 18.232 69.5346 18.914C69.5346 19.684 69.011 19.728 68.64 19.728H64.5382Z" fill="#222222"/>
<path d="M90.9928 13.106C91.2765 13.106 91.8874 13.128 91.8874 13.964C91.8874 14.756 91.3637 14.844 90.9928 14.844H85.0146C85.1892 23.996 87.9819 27.648 89.1601 27.648C89.9456 27.648 90.1855 26.174 90.2946 25.58C90.4255 24.766 90.5128 24.282 91.211 24.282C91.3856 24.282 92.0401 24.304 92.0401 25.14C92.0401 25.536 91.691 27.362 91.1019 28.44C90.8619 28.88 90.2728 29.716 89.2037 29.716C87.371 29.716 86.0619 27.582 85.4728 26.46C83.6183 22.94 83.3565 18.342 83.1383 14.844H72.4474C72.1856 14.844 71.531 14.822 71.531 13.986C71.531 13.238 72.011 13.106 72.4474 13.106H83.0946C83.0728 12.666 83.051 10.312 83.0728 10.048C83.1165 9.454 83.5746 9.322 83.9892 9.322C84.971 9.322 84.971 9.916 84.971 10.378V13.106H90.9928ZM76.4183 19.794H72.9274C72.6437 19.794 72.0328 19.772 72.0328 18.936C72.0328 18.254 72.4037 18.056 72.9274 18.056H81.7201C82.0256 18.056 82.6146 18.1 82.6146 18.914C82.6146 19.64 82.2001 19.794 81.7201 19.794H78.251V26.284C79.6692 26.064 79.9092 25.998 82.091 25.58C82.331 25.536 82.5274 25.514 82.6146 25.514C83.3128 25.514 83.3565 26.24 83.3565 26.416C83.3565 27.12 82.9855 27.186 81.611 27.472C78.0546 28.22 73.0146 28.924 72.3601 28.924C71.531 28.924 71.531 28 71.531 27.934C71.531 27.142 72.0765 27.054 72.5565 27.01C74.9346 26.746 75.2183 26.724 76.4183 26.57V19.794ZM89.8365 10.906C90.3165 11.302 90.6001 11.588 90.6001 11.962C90.6001 12.38 90.1201 12.776 89.6183 12.776C89.291 12.776 89.1819 12.71 88.1128 11.808C87.7637 11.522 86.8692 10.774 86.8692 10.774C86.7601 10.642 86.6946 10.488 86.6946 10.312C86.6946 10.004 86.9783 9.498 87.6765 9.498C88.0692 9.498 89.3783 10.51 89.8365 10.906Z" fill="#222222"/>
<path d="M98.7601 17.11C98.2583 17.11 97.8437 16.956 97.8437 16.252C97.8437 16.098 97.8874 16.01 97.9092 15.9C97.4292 16.186 96.4474 16.802 95.2474 17.352C94.7455 17.594 94.5056 17.66 94.2656 17.66C93.7856 17.66 93.3928 17.11 93.3928 16.538C93.3928 15.966 93.7637 15.812 94.2001 15.636C95.5092 15.152 96.6001 14.536 97.4074 14.008C99.4146 12.732 100.244 11.852 101.836 10.136C102.687 9.19 102.84 9.036 103.604 9.036C104.367 9.036 104.673 9.344 105.153 9.872C106.615 11.522 108.709 13.876 113.051 15.746C113.509 15.944 113.858 16.098 113.858 16.626C113.858 17.154 113.444 17.704 112.898 17.704C112.658 17.704 112.353 17.594 112.026 17.418C110.913 16.868 110.018 16.34 109.495 15.988C109.516 16.054 109.538 16.142 109.538 16.296C109.538 17.11 108.84 17.11 108.622 17.11H98.7601ZM101.924 21.576C101.095 23.49 100.135 25.316 99.0437 27.076C104.476 26.834 104.498 26.834 109.102 26.504C107.989 25.206 107.858 25.074 106.702 23.908C106.44 23.644 106.309 23.446 106.309 23.16C106.309 22.742 106.811 22.302 107.247 22.302C107.64 22.302 107.793 22.456 108.644 23.27C110.433 25.008 111.611 26.57 112.069 27.186C112.811 28.154 112.898 28.352 112.898 28.66C112.898 29.166 112.309 29.628 111.786 29.628C111.48 29.628 111.327 29.474 111.196 29.298C111.066 29.1 110.455 28.198 110.324 28C106.353 28.33 105.262 28.418 102.491 28.594C100.178 28.748 95.2692 28.99 95.0074 28.99C94.7674 28.99 94.0692 28.99 94.0692 28.066C94.0692 27.824 94.1128 27.296 94.6801 27.208C94.9201 27.186 96.6437 27.142 97.0146 27.142C98.0837 25.36 99.1528 23.534 99.851 21.576H94.7455C94.3092 21.576 93.8074 21.466 93.8074 20.718C93.8074 19.86 94.5055 19.86 94.7455 19.86H112.462C112.855 19.86 113.4 19.948 113.4 20.718C113.4 21.576 112.702 21.576 112.484 21.576H101.924ZM98.7601 15.438H108.666C107.007 14.316 105.48 13.018 104.215 11.478C103.887 11.082 103.844 11.038 103.669 11.038C103.495 11.038 103.451 11.082 103.124 11.456C101.291 13.612 99.6328 14.8 98.6074 15.46L98.7601 15.438Z" fill="#222222"/>
<path d="M121.789 12.864C122.313 12.864 123.666 12.864 123.666 14.382C123.666 15.108 123.36 15.746 123.12 16.164C123.033 16.34 122.531 17.242 121.549 18.452C122.073 19.112 122.509 19.574 123.535 20.498C124.364 21.224 124.451 21.312 124.451 21.664C124.451 22.06 124.08 22.61 123.556 22.61C123.273 22.61 123.076 22.5 122.684 22.104C122.313 21.73 121.396 20.652 120.96 20.036V28.902C120.96 29.584 120.655 29.804 120 29.804C119.193 29.804 119.171 29.166 119.171 28.902V20.96C118.516 21.532 117.011 22.852 116.422 22.852C115.942 22.852 115.527 22.302 115.527 21.796C115.527 21.598 115.571 21.378 115.811 21.158C115.898 21.07 117.295 20.102 117.535 19.926C119.629 18.474 121.746 15.614 121.746 14.954C121.746 14.514 121.331 14.514 120.982 14.514H116.596C116.378 14.514 115.68 14.514 115.68 13.7C115.68 12.886 116.4 12.864 116.596 12.864H119.149V10.136C119.149 9.432 119.476 9.212 120.109 9.212C120.96 9.212 120.96 9.894 120.96 10.136V12.864H121.789ZM134.509 15.526C134.727 15.526 135.447 15.548 135.447 16.384C135.447 17.066 135.142 17.308 134.509 17.308H130.604V27.208H134.967C135.164 27.208 135.906 27.23 135.906 28.044C135.906 28.704 135.6 28.968 134.967 28.968H124.146C123.884 28.968 123.142 28.968 123.142 28.088C123.142 27.274 123.775 27.208 124.146 27.208H128.727V17.308H125.127C124.887 17.308 124.211 17.308 124.211 16.428C124.211 15.614 124.756 15.526 125.127 15.526H128.727V10.158C128.727 9.828 128.771 9.234 129.6 9.234C130.298 9.234 130.604 9.454 130.604 10.158V15.526H134.509Z" fill="#222222"/>
<path d="M160.756 28.022C159.011 28.462 154.898 28.792 151.625 28.792C147.295 28.792 139.931 28.374 139.931 22.962C139.931 20.267 141.731 18.485 142.767 17.55C143.531 16.868 143.825 16.725 144.218 16.725C145.145 16.725 145.495 17.517 145.495 17.847C145.495 18.144 145.385 18.419 144.567 19.2C142.495 21.07 142.44 22.192 142.44 22.83C142.44 25.69 146.335 26.427 151.189 26.427C155.193 26.427 158.171 25.965 158.607 25.877C160.462 25.492 160.68 25.437 161.007 25.437C161.793 25.437 162.153 25.965 162.153 26.559C162.153 27.571 161.804 27.769 160.767 28.011L160.756 28.022ZM143.771 9.63C142.68 9.63 141.644 9.63 141.644 8.398C141.644 7.551 142.025 7.188 143.007 7.188C143.738 7.188 147.011 7.265 147.665 7.243C154.702 7.111 155.487 7.078 156.229 7.023C157.942 6.913 158.138 6.913 158.465 6.913C159.044 6.913 160.102 6.913 160.102 8.068C160.102 8.915 159.742 9.08 158.553 9.63C156.404 10.62 154.222 11.995 153.098 12.71C152.389 13.15 152.095 13.282 151.767 13.282C151.08 13.282 150.567 12.732 150.567 12.127C150.567 11.61 150.949 11.28 152.531 10.367C152.891 10.147 154.571 9.377 154.931 9.212C151.2 9.41 147.109 9.63 143.782 9.63H143.771Z" fill="#222222"/>
<path d="M169.375 6.77C169.375 6.902 169.342 7.21 169.32 7.43C168.72 10.642 168.666 11.115 168.48 13.425C168.262 15.955 168.262 17.605 168.262 18.562C168.262 20.289 168.349 23.974 168.786 26.317C168.84 26.647 169.026 27.549 169.026 27.824C169.026 28.484 168.665 28.946 167.793 28.946C167.105 28.946 166.702 28.649 166.538 27.769C166.047 25.382 165.851 21.092 165.851 18.364C165.851 11.764 166.833 6.924 166.855 6.814C166.964 6.352 167.16 5.549 168.382 5.714C168.906 5.791 169.364 6.044 169.364 6.759L169.375 6.77ZM180.36 6.825C180.327 6.33 180.415 5.538 181.593 5.538C182.684 5.538 182.815 6.176 182.815 6.803L182.902 10.598C183.938 10.576 184.407 10.576 186.611 10.466C186.851 10.466 187.156 10.444 187.244 10.444C187.571 10.444 188.465 10.444 188.465 11.621C188.465 11.808 188.466 12.578 187.626 12.721C187.484 12.743 183.426 12.919 182.935 12.919L183.044 19.959C184.647 20.806 186.175 21.884 187.866 23.446C188.684 24.183 188.956 24.678 188.956 25.118C188.956 25.943 188.302 26.493 187.724 26.493C187.233 26.493 187.211 26.438 185.902 25.041C184.538 23.611 183.589 22.984 182.989 22.599C183.011 24.249 182.989 25.514 182.553 26.559C181.571 28.869 178.625 29.034 177.458 29.034C176.367 29.034 174.6 28.869 173.204 27.956C171.48 26.834 171.185 25.041 171.185 23.941C171.185 20.531 174.022 18.716 177.622 18.716C179.127 18.716 180.098 18.991 180.676 19.134L180.535 13.007C177.807 13.117 175.113 13.172 172.407 13.172C172.025 13.172 171.131 13.172 171.131 11.995C171.131 10.895 171.916 10.873 172.495 10.873C174.295 10.84 178.898 10.763 180.48 10.708L180.371 6.858L180.36 6.825ZM177.665 20.762C176.705 20.762 173.335 20.96 173.335 23.952C173.335 26.647 176.084 26.944 177.316 26.944C180.753 26.944 180.753 24.887 180.753 22.907C180.753 22.577 180.731 21.895 180.731 21.367C180.076 21.125 179.225 20.762 177.676 20.762H177.665ZM184.124 5.923C184.069 5.758 184.069 5.648 184.069 5.538C184.069 5.076 184.505 4.823 184.887 4.823C185.324 4.823 185.433 5.098 185.738 5.67C186.098 6.352 186.971 7.98 186.971 8.585C186.971 9.245 186.284 9.355 186.12 9.355C185.902 9.355 185.629 9.245 185.465 8.948C185.356 8.695 184.887 7.518 184.778 7.276C184.615 6.891 184.287 6.319 184.124 5.934V5.923ZM187.287 5.23C187.233 5.12 187.2 4.933 187.2 4.845C187.2 4.295 187.745 4.108 188.04 4.108C188.476 4.108 188.64 4.405 189.109 5.285C189.24 5.56 190.058 7.232 190.058 7.727C190.058 8.277 189.436 8.497 189.164 8.497C188.858 8.497 188.673 8.277 188.618 8.167C188.564 8.057 188.04 6.847 187.931 6.605C187.844 6.385 187.364 5.428 187.276 5.23H187.287Z" fill="#222222"/>
<path d="M201.96 28.385C201.96 29.507 200.956 29.562 200.564 29.562C199.506 29.562 199.396 28.737 199.287 28.022C198.655 23.842 197.673 19.64 196.56 15.097C195.011 15.724 194.651 15.889 193.211 16.582C192.851 16.747 192.426 16.934 191.978 16.934C191.215 16.934 190.887 16.164 190.887 15.647C190.887 15.152 191.106 14.855 191.727 14.547C192.415 14.25 192.764 14.107 196.004 12.875C195.546 11.17 195.436 10.873 194.64 8.178C194.607 8.101 194.476 7.661 194.476 7.353C194.476 6.253 195.567 6.198 195.753 6.198C196.538 6.198 196.789 6.715 196.92 7.133C197.138 7.705 197.466 9.08 198.262 12.05C199.407 11.665 202.593 10.598 203.466 10.345C203.247 9.828 202.735 8.398 202.189 7.463C201.775 6.748 201.775 6.583 201.775 6.418C201.775 5.681 202.462 5.406 202.92 5.406C203.433 5.406 203.826 5.703 203.978 5.934C204.393 6.484 205.615 9.289 205.8 9.784C206.706 9.619 207.546 9.509 208.473 9.509C211.713 9.509 214.822 11.434 214.822 15.801C214.822 18.386 213.895 23.336 207.436 23.336C206.618 23.336 205.636 23.248 204.873 22.896C204.273 22.599 204.186 22.214 204.186 21.851C204.186 20.751 205.113 20.751 205.298 20.751C205.462 20.751 205.549 20.751 206.226 20.883C206.498 20.938 206.902 20.993 207.447 20.993C208.724 20.993 209.924 20.696 210.829 19.948C211.811 19.101 212.356 17.506 212.356 16.021C212.356 14.789 212.084 13.656 211.396 12.886C210.578 11.951 209.269 11.654 208.342 11.654C207.764 11.654 207.109 11.742 206.542 11.819C206.815 12.589 207.436 14.481 207.436 15.141C207.436 15.933 206.782 16.263 206.127 16.263C205.527 16.263 205.276 16.076 205.124 15.526C204.851 14.646 204.436 13.249 204.142 12.369C201.578 13.139 201.36 13.216 198.775 14.206C200.171 19.838 201.916 26.966 201.916 28.396L201.96 28.385Z" fill="#222222"/>
<path d="M222.382 6.913C222.382 7.375 222.273 9.41 222.273 9.828C222.218 11.17 222.033 18.595 222.033 19.618C222.033 23.16 222.033 26.845 227.945 26.845C229.876 26.845 232.276 26.427 233.891 25.305C235.473 24.183 236.313 22.313 236.858 20.443C237 19.981 237.349 17.891 237.545 17.506C237.818 16.978 238.364 16.956 238.549 16.956C239.149 16.956 239.989 17.143 239.989 18.133C239.989 18.815 239.662 20.63 238.876 22.533C237.873 24.975 235.713 29.188 228.109 29.188C224.673 29.188 221.869 28.275 220.396 25.668C219.469 24.051 219.469 21.928 219.469 19.321C219.469 17.044 219.687 6.869 219.742 6.451C219.884 5.483 220.647 5.461 221.105 5.461C222.382 5.461 222.382 6.418 222.382 6.913Z" fill="#222222"/>
<path d="M16.3636 33.8636C25.401 33.8636 32.7273 26.5374 32.7273 17.5C32.7273 8.46261 25.401 1.13636 16.3636 1.13636C7.32625 1.13636 0 8.46261 0 17.5C0 26.5374 7.32625 33.8636 16.3636 33.8636Z" fill="#FA66A9"/>
<path d="M28.8546 28.06C27.2182 23.3255 23.651 19.4855 19.0801 17.5C23.651 15.5145 27.2182 11.6745 28.8546 6.94C28.1346 6.08909 27.3273 5.32545 26.4546 4.63818C24.9819 10.7255 19.7673 15.3618 13.3964 15.9618C12.9819 11.1618 10.6473 6.91818 7.18915 3.95091C6.36006 4.50727 5.59642 5.15091 4.88733 5.84909C8.32369 8.57636 10.5382 12.7873 10.5382 17.5C10.5382 22.2127 8.32369 26.4236 4.89824 29.1509C5.60733 29.8491 6.38187 30.4927 7.20006 31.0491C10.6582 28.0927 12.9928 23.8382 13.4073 19.0382C19.7891 19.6382 24.9928 24.2745 26.4655 30.3509C27.3382 29.6636 28.1455 28.9 28.8655 28.0491L28.8546 28.06Z" fill="white"/>
</g>
<defs>
<clipPath id="clip0_65_963">
<rect width="240" height="33" fill="white" transform="translate(0 0.5)"/>
</clipPath>
</defs>
</svg>
