<svg width="176" height="24" viewBox="0 0 176 24" fill="none" xmlns="http://www.w3.org/2000/svg">
<g clip-path="url(#clip0_190_4493)">
<path d="M39.648 20.72C39.648 20.928 39.616 21.376 39.056 21.376C38.608 21.376 38.4 21.216 38.4 20.72V14.064C38.176 14.784 37.664 15.968 37.328 16.544C37.104 16.944 36.88 17.248 36.576 17.248C36.256 17.248 35.888 16.896 35.888 16.48C35.888 16.24 35.952 16.144 36.48 15.36C37.408 14 37.984 12.448 38.384 10.864H36.736C36.56 10.864 36.064 10.864 36.064 10.272C36.064 9.79204 36.272 9.60004 36.736 9.60004H38.4V7.02404C38.4 6.80004 38.416 6.36804 39.024 6.36804C39.488 6.36804 39.648 6.62404 39.648 7.02404V9.60004H40.96C41.184 9.60004 41.568 9.63204 41.568 10.224C41.568 10.768 41.28 10.864 40.96 10.864H39.648V11.472C40.304 12.992 40.96 13.824 41.056 13.952C41.76 14.8 41.776 14.816 41.776 15.04C41.776 15.328 41.504 15.68 41.168 15.68C40.896 15.68 40.736 15.488 40.512 15.12C40.4 14.96 39.984 14.304 39.648 13.44V20.72ZM47.328 13.984C47.68 14.832 48.672 16.896 50.656 18.656C50.896 18.864 51.04 19.024 51.04 19.28C51.04 19.648 50.688 20.096 50.32 20.096C49.904 20.096 49.2 19.216 48.832 18.736C47.792 17.392 47.248 16.336 46.832 15.36V20.72C46.832 21.184 46.64 21.376 46.176 21.376C45.568 21.376 45.568 20.88 45.568 20.72V15.328C44.88 16.736 44.016 18.048 42.912 19.168C42.112 19.968 41.984 20.064 41.696 20.064C41.264 20.064 40.976 19.664 40.976 19.312C40.976 19.264 40.976 19.12 41.104 18.976C41.168 18.88 41.968 18.16 42.128 18.032C42.848 17.392 44.224 15.808 45.072 13.984H41.936C41.648 13.984 41.264 13.936 41.264 13.376C41.264 12.784 41.744 12.768 41.936 12.768H45.568V10.336H43.44C43.248 10.72 43.008 11.216 42.608 11.76C42.432 12.016 42.272 12.112 42.08 12.112C41.824 12.112 41.408 11.872 41.408 11.488C41.408 11.36 41.44 11.248 41.648 10.976C42.112 10.352 42.704 9.45604 43.056 7.80804C43.248 6.91204 43.296 6.70404 43.728 6.70404C43.984 6.70404 44.352 6.84804 44.352 7.21604C44.352 7.44004 44.192 8.28804 43.936 9.10404H45.568V7.04004C45.568 6.75204 45.632 6.36804 46.208 6.36804C46.816 6.36804 46.832 6.81604 46.832 7.04004V9.10404H49.904C50.24 9.10404 50.576 9.18404 50.576 9.72804C50.576 10.304 50.144 10.336 49.904 10.336H46.832V12.768H50.336C50.736 12.768 50.992 12.896 50.992 13.392C50.992 13.952 50.608 13.984 50.336 13.984H47.328Z" fill="white"/>
<path d="M66.728 9.16802C66.936 9.16802 67.384 9.18401 67.384 9.79201C67.384 10.368 67 10.432 66.728 10.432H62.344C62.472 17.088 64.52 19.744 65.384 19.744C65.96 19.744 66.136 18.672 66.216 18.24C66.312 17.648 66.376 17.296 66.888 17.296C67.016 17.296 67.496 17.312 67.496 17.92C67.496 18.208 67.24 19.536 66.808 20.32C66.632 20.64 66.2 21.248 65.416 21.248C64.072 21.248 63.112 19.696 62.68 18.88C61.32 16.32 61.128 12.976 60.968 10.432H53.128C52.936 10.432 52.456 10.416 52.456 9.80802C52.456 9.26402 52.808 9.16802 53.128 9.16802H60.936C60.92 8.84802 60.904 7.13602 60.92 6.94402C60.952 6.51202 61.288 6.41602 61.592 6.41602C62.312 6.41602 62.312 6.84801 62.312 7.18401V9.16802H66.728ZM56.04 14.032H53.48C53.272 14.032 52.824 14.016 52.824 13.408C52.824 12.912 53.096 12.768 53.48 12.768H59.928C60.152 12.768 60.584 12.8 60.584 13.392C60.584 13.92 60.28 14.032 59.928 14.032H57.384V18.752C58.424 18.592 58.6 18.544 60.2 18.24C60.376 18.208 60.52 18.192 60.584 18.192C61.096 18.192 61.128 18.72 61.128 18.848C61.128 19.36 60.856 19.408 59.848 19.616C57.24 20.16 53.544 20.672 53.064 20.672C52.456 20.672 52.456 20 52.456 19.952C52.456 19.376 52.856 19.312 53.208 19.28C54.952 19.088 55.16 19.072 56.04 18.96V14.032ZM65.88 7.56802C66.232 7.85602 66.44 8.06402 66.44 8.33602C66.44 8.64002 66.088 8.92801 65.72 8.92801C65.48 8.92801 65.4 8.88001 64.616 8.22401C64.36 8.01601 63.704 7.47202 63.704 7.47202C63.624 7.37602 63.576 7.26402 63.576 7.13602C63.576 6.91202 63.784 6.54402 64.296 6.54402C64.584 6.54402 65.544 7.28002 65.88 7.56802Z" fill="white"/>
<path d="M72.424 12.08C72.056 12.08 71.752 11.968 71.752 11.456C71.752 11.344 71.784 11.28 71.8 11.2C71.448 11.408 70.728 11.856 69.848 12.256C69.48 12.432 69.304 12.48 69.128 12.48C68.776 12.48 68.488 12.08 68.488 11.664C68.488 11.248 68.76 11.136 69.08 11.008C70.04 10.656 70.84 10.208 71.432 9.82401C72.904 8.89601 73.512 8.25601 74.68 7.00801C75.304 6.32001 75.416 6.20801 75.976 6.20801C76.536 6.20801 76.76 6.43201 77.112 6.81601C78.184 8.01601 79.72 9.72801 82.904 11.088C83.24 11.232 83.496 11.344 83.496 11.728C83.496 12.112 83.192 12.512 82.792 12.512C82.616 12.512 82.392 12.432 82.152 12.304C81.336 11.904 80.68 11.52 80.296 11.264C80.312 11.312 80.328 11.376 80.328 11.488C80.328 12.08 79.816 12.08 79.656 12.08H72.424ZM74.744 15.328C74.136 16.72 73.432 18.048 72.632 19.328C76.616 19.152 76.632 19.152 80.008 18.912C79.192 17.968 79.096 17.872 78.248 17.024C78.056 16.832 77.96 16.688 77.96 16.48C77.96 16.176 78.328 15.856 78.648 15.856C78.936 15.856 79.048 15.968 79.672 16.56C80.984 17.824 81.848 18.96 82.184 19.408C82.728 20.112 82.792 20.256 82.792 20.48C82.792 20.848 82.36 21.184 81.976 21.184C81.752 21.184 81.64 21.072 81.544 20.944C81.448 20.8 81 20.144 80.904 20C77.992 20.24 77.192 20.304 75.16 20.432C73.464 20.544 69.864 20.72 69.672 20.72C69.496 20.72 68.984 20.72 68.984 20.048C68.984 19.872 69.016 19.488 69.432 19.424C69.608 19.408 70.872 19.376 71.144 19.376C71.928 18.08 72.712 16.752 73.224 15.328H69.48C69.16 15.328 68.792 15.248 68.792 14.704C68.792 14.08 69.304 14.08 69.48 14.08H82.472C82.76 14.08 83.16 14.144 83.16 14.704C83.16 15.328 82.648 15.328 82.488 15.328H74.744ZM72.424 10.864H79.688C78.472 10.048 77.352 9.10401 76.424 7.98401C76.184 7.69601 76.152 7.66401 76.024 7.66401C75.896 7.66401 75.864 7.69601 75.624 7.96801C74.28 9.53601 73.064 10.4 72.312 10.88L72.424 10.864Z" fill="white"/>
<path d="M89.312 8.99206C89.696 8.99206 90.688 8.99206 90.688 10.0961C90.688 10.6241 90.464 11.0881 90.288 11.3921C90.224 11.5201 89.856 12.1761 89.136 13.0561C89.52 13.5361 89.84 13.8721 90.592 14.5441C91.2 15.0721 91.264 15.1361 91.264 15.3921C91.264 15.6801 90.992 16.0801 90.608 16.0801C90.4 16.0801 90.256 16.0001 89.968 15.7121C89.696 15.4401 89.024 14.6561 88.704 14.2081V20.6561C88.704 21.1521 88.48 21.3121 88 21.3121C87.408 21.3121 87.392 20.8481 87.392 20.6561V14.8801C86.912 15.2961 85.808 16.2561 85.376 16.2561C85.024 16.2561 84.72 15.8561 84.72 15.4881C84.72 15.3441 84.752 15.1841 84.928 15.0241C84.992 14.9601 86.016 14.2561 86.192 14.1281C87.728 13.0721 89.28 10.9921 89.28 10.5121C89.28 10.1921 88.976 10.1921 88.72 10.1921H85.504C85.344 10.1921 84.832 10.1921 84.832 9.60006C84.832 9.00806 85.36 8.99206 85.504 8.99206H87.376V7.00806C87.376 6.49606 87.616 6.33606 88.08 6.33606C88.704 6.33606 88.704 6.83206 88.704 7.00806V8.99206H89.312ZM98.64 10.9281C98.8 10.9281 99.328 10.9441 99.328 11.5521C99.328 12.0481 99.104 12.2241 98.64 12.2241H95.776V19.4241H98.976C99.12 19.4241 99.664 19.4401 99.664 20.0321C99.664 20.5121 99.44 20.7041 98.976 20.7041H91.04C90.848 20.7041 90.304 20.7041 90.304 20.0641C90.304 19.4721 90.768 19.4241 91.04 19.4241H94.4V12.2241H91.76C91.584 12.2241 91.088 12.2241 91.088 11.5841C91.088 10.9921 91.488 10.9281 91.76 10.9281H94.4V7.02406C94.4 6.78406 94.432 6.35206 95.04 6.35206C95.552 6.35206 95.776 6.51206 95.776 7.02406V10.9281H98.64Z" fill="white"/>
<path d="M117.888 20.0161C116.608 20.3361 113.592 20.5761 111.192 20.5761C108.016 20.5761 102.616 20.2721 102.616 16.3361C102.616 14.3761 103.936 13.0801 104.696 12.4001C105.256 11.9041 105.472 11.8001 105.76 11.8001C106.44 11.8001 106.696 12.3761 106.696 12.6161C106.696 12.8321 106.616 13.0321 106.016 13.6001C104.496 14.9601 104.456 15.7761 104.456 16.2401C104.456 18.3201 107.312 18.8561 110.872 18.8561C113.808 18.8561 115.992 18.5201 116.312 18.4561C117.672 18.1761 117.832 18.1361 118.072 18.1361C118.648 18.1361 118.912 18.5201 118.912 18.9521C118.912 19.6881 118.656 19.8321 117.896 20.0081L117.888 20.0161ZM105.432 6.64006C104.632 6.64006 103.872 6.64006 103.872 5.74406C103.872 5.12806 104.152 4.86406 104.872 4.86406C105.408 4.86406 107.808 4.92006 108.288 4.90406C113.448 4.80806 114.024 4.78406 114.568 4.74406C115.824 4.66406 115.968 4.66406 116.208 4.66406C116.632 4.66406 117.408 4.66406 117.408 5.50406C117.408 6.12006 117.144 6.24006 116.272 6.64006C114.696 7.36006 113.096 8.36006 112.272 8.88006C111.752 9.20006 111.536 9.29606 111.296 9.29606C110.792 9.29606 110.416 8.89606 110.416 8.45606C110.416 8.08006 110.696 7.84006 111.856 7.17606C112.12 7.01606 113.352 6.45606 113.616 6.33606C110.88 6.48006 107.88 6.64006 105.44 6.64006H105.432Z" fill="white"/>
<path d="M124.208 4.56002C124.208 4.65602 124.184 4.88002 124.168 5.04002C123.728 7.37602 123.688 7.72002 123.552 9.40002C123.392 11.24 123.392 12.44 123.392 13.136C123.392 14.392 123.456 17.072 123.776 18.776C123.816 19.016 123.952 19.672 123.952 19.872C123.952 20.352 123.688 20.688 123.048 20.688C122.544 20.688 122.248 20.472 122.128 19.832C121.768 18.096 121.624 14.976 121.624 12.992C121.624 8.19202 122.344 4.67202 122.36 4.59202C122.44 4.25602 122.584 3.67202 123.48 3.79202C123.864 3.84802 124.2 4.03202 124.2 4.55202L124.208 4.56002ZM132.264 4.60002C132.24 4.24002 132.304 3.66402 133.168 3.66402C133.968 3.66402 134.064 4.12802 134.064 4.58402L134.128 7.34402C134.888 7.32802 135.232 7.32802 136.848 7.24802C137.024 7.24802 137.248 7.23202 137.312 7.23202C137.552 7.23202 138.208 7.23202 138.208 8.08802C138.208 8.22402 138.208 8.78402 137.592 8.88802C137.488 8.90402 134.512 9.03202 134.152 9.03202L134.232 14.152C135.408 14.768 136.528 15.552 137.768 16.688C138.368 17.224 138.568 17.584 138.568 17.904C138.568 18.504 138.088 18.904 137.664 18.904C137.304 18.904 137.288 18.864 136.328 17.848C135.328 16.808 134.632 16.352 134.192 16.072C134.208 17.272 134.192 18.192 133.872 18.952C133.152 20.632 130.992 20.752 130.136 20.752C129.336 20.752 128.04 20.632 127.016 19.968C125.752 19.152 125.536 17.848 125.536 17.048C125.536 14.568 127.616 13.248 130.256 13.248C131.36 13.248 132.072 13.448 132.496 13.552L132.392 9.09602C130.392 9.17602 128.416 9.21602 126.432 9.21602C126.152 9.21602 125.496 9.21602 125.496 8.36002C125.496 7.56002 126.072 7.54402 126.496 7.54402C127.816 7.52002 131.192 7.46402 132.352 7.42402L132.272 4.62402L132.264 4.60002ZM130.288 14.736C129.584 14.736 127.112 14.88 127.112 17.056C127.112 19.016 129.128 19.232 130.032 19.232C132.552 19.232 132.552 17.736 132.552 16.296C132.552 16.056 132.536 15.56 132.536 15.176C132.056 15 131.432 14.736 130.296 14.736H130.288ZM135.024 3.94402C134.984 3.82402 134.984 3.74402 134.984 3.66402C134.984 3.32802 135.304 3.14402 135.584 3.14402C135.904 3.14402 135.984 3.34402 136.208 3.76002C136.472 4.25602 137.112 5.44002 137.112 5.88002C137.112 6.36002 136.608 6.44002 136.488 6.44002C136.328 6.44002 136.128 6.36002 136.008 6.14402C135.928 5.96002 135.584 5.10402 135.504 4.92802C135.384 4.64802 135.144 4.23202 135.024 3.95202V3.94402ZM137.344 3.44002C137.304 3.36002 137.28 3.22402 137.28 3.16002C137.28 2.76002 137.68 2.62402 137.896 2.62402C138.216 2.62402 138.336 2.84002 138.68 3.48002C138.776 3.68002 139.376 4.89602 139.376 5.25602C139.376 5.65602 138.92 5.81602 138.72 5.81602C138.496 5.81602 138.36 5.65602 138.32 5.57602C138.28 5.49602 137.896 4.61602 137.816 4.44002C137.752 4.28002 137.4 3.58402 137.336 3.44002H137.344Z" fill="white"/>
<path d="M148.104 20.28C148.104 21.096 147.368 21.136 147.08 21.136C146.304 21.136 146.224 20.536 146.144 20.016C145.68 16.976 144.96 13.92 144.144 10.616C143.008 11.072 142.744 11.192 141.688 11.696C141.424 11.816 141.112 11.952 140.784 11.952C140.224 11.952 139.984 11.392 139.984 11.016C139.984 10.656 140.144 10.44 140.6 10.216C141.104 9.99999 141.36 9.89599 143.736 8.99999C143.4 7.75999 143.32 7.54399 142.736 5.58399C142.712 5.52799 142.616 5.20799 142.616 4.98399C142.616 4.18399 143.416 4.14399 143.552 4.14399C144.128 4.14399 144.312 4.51999 144.408 4.82399C144.568 5.23999 144.808 6.23999 145.392 8.39999C146.232 8.11999 148.568 7.34399 149.208 7.15999C149.048 6.78399 148.672 5.74399 148.272 5.06399C147.968 4.54399 147.968 4.42399 147.968 4.30399C147.968 3.76799 148.472 3.56799 148.808 3.56799C149.184 3.56799 149.472 3.78399 149.584 3.95199C149.888 4.35199 150.784 6.39199 150.92 6.75199C151.584 6.63199 152.2 6.55199 152.88 6.55199C155.256 6.55199 157.536 7.95199 157.536 11.128C157.536 13.008 156.856 16.608 152.12 16.608C151.52 16.608 150.8 16.544 150.24 16.288C149.8 16.072 149.736 15.792 149.736 15.528C149.736 14.728 150.416 14.728 150.552 14.728C150.672 14.728 150.736 14.728 151.232 14.824C151.432 14.864 151.728 14.904 152.128 14.904C153.064 14.904 153.944 14.688 154.608 14.144C155.328 13.528 155.728 12.368 155.728 11.288C155.728 10.392 155.528 9.56799 155.024 9.00799C154.424 8.32799 153.464 8.11199 152.784 8.11199C152.36 8.11199 151.88 8.17599 151.464 8.23199C151.664 8.79199 152.12 10.168 152.12 10.648C152.12 11.224 151.64 11.464 151.16 11.464C150.72 11.464 150.536 11.328 150.424 10.928C150.224 10.288 149.92 9.27199 149.704 8.63199C147.824 9.19199 147.664 9.24799 145.768 9.96799C146.792 14.064 148.072 19.248 148.072 20.288L148.104 20.28Z" fill="white"/>
<path d="M163.08 4.66403C163.08 5.00003 163 6.48003 163 6.78403C162.96 7.76003 162.824 13.16 162.824 13.904C162.824 16.48 162.824 19.16 167.16 19.16C168.576 19.16 170.336 18.856 171.52 18.04C172.68 17.224 173.296 15.864 173.696 14.504C173.8 14.168 174.056 12.648 174.2 12.368C174.4 11.984 174.8 11.968 174.936 11.968C175.376 11.968 175.992 12.104 175.992 12.824C175.992 13.32 175.752 14.64 175.176 16.024C174.44 17.8 172.856 20.864 167.28 20.864C164.76 20.864 162.704 20.2 161.624 18.304C160.944 17.128 160.944 15.584 160.944 13.688C160.944 12.032 161.104 4.63203 161.144 4.32803C161.248 3.62403 161.808 3.60803 162.144 3.60803C163.08 3.60803 163.08 4.30403 163.08 4.66403Z" fill="white"/>
<path d="M12 24C18.6274 24 24 18.6274 24 12C24 5.37258 18.6274 0 12 0C5.37258 0 0 5.37258 0 12C0 18.6274 5.37258 24 12 24Z" fill="white"/>
<path d="M21.16 19.744C19.96 16.272 17.344 13.456 13.992 12C17.344 10.544 19.96 7.72797 21.16 4.25597C20.632 3.63197 20.04 3.07197 19.4 2.56796C18.32 7.03197 14.496 10.432 9.82401 10.872C9.52001 7.35197 7.80802 4.23997 5.27202 2.06396C4.66402 2.47196 4.10401 2.94397 3.58401 3.45597C6.10402 5.45597 7.72801 8.54397 7.72801 12C7.72801 15.456 6.10401 18.544 3.59201 20.544C4.11201 21.056 4.68001 21.528 5.28001 21.936C7.81601 19.768 9.52801 16.648 9.83201 13.128C14.512 13.568 18.328 16.968 19.408 21.424C20.048 20.92 20.64 20.36 21.168 19.736L21.16 19.744Z" fill="#FA66A9"/>
</g>
<defs>
<clipPath id="clip0_190_4493">
<rect width="176" height="24" fill="white"/>
</clipPath>
</defs>
</svg>
